<?xml version="1.0" encoding="utf-8"?>
<!-- Generator: Adobe Illustrator 23.0.3, SVG Export Plug-In . SVG Version: 6.00 Build 0)  -->
<svg version="1.1" id="Layer_1" xmlns="http://www.w3.org/2000/svg" xmlns:xlink="http://www.w3.org/1999/xlink" x="0px" y="0px"
	 viewBox="0 0 158.1 233.5" style="enable-background:new 0 0 158.1 233.5;" xml:space="preserve">
<style type="text/css">
	.st0{fill:#231F20;}
	.st1{fill:#FFFFFF;}
	.st2{fill:none;stroke:#FFFFFF;}
	.st3{fill-rule:evenodd;clip-rule:evenodd;fill:#FFFFFF;}
	.st4{fill-rule:evenodd;clip-rule:evenodd;fill:#231F20;}
</style>
<title>Asset 1</title>
<g>
	<g id="Layer_1-2">
		<path class="st0" d="M78.5,99.3c12.3,0,22.2,9.9,22.2,22.2c0,12.3-9.9,22.2-22.2,22.2c-12.3,0-22.2-9.9-22.2-22.2c0,0,0,0,0,0
			C56.3,109.2,66.2,99.3,78.5,99.3z"/>
		<path class="st0" d="M74.5,99.6c1-0.3,2.5-0.7,2.5-1.4c0-6.2-1.1-9.3-1.1-12.4c0-5.7,1.4-7.7,2.6-7.7s2.6,2.1,2.6,7.7
			c0,3-1.1,6.1-1.1,12.4c0,0.7,1.5,1.1,2.5,1.4 M78.5,80.7c-1.4,3.9,0,7.8,0,7.8S80,84.7,78.5,80.7z"/>
		<path class="st1" d="M75.4,106.9c-0.3,0.7-0.5,1.4-0.7,2.2c-0.3,1.1-0.6,1.8-0.9,2.2c-0.2,0.4-0.6,0.6-1,0.6c-0.1,0-0.1,0-0.2,0
			h-0.2c-0.1,0-0.2-0.1-0.3-0.1l-0.2,0.5c0.3,0.2,0.6,0.3,0.9,0.2c0.8-0.1,1.5-0.5,1.9-1.1c0.6-0.9,1-1.9,1.2-3
			c0.3-1.3,0.7-2.2,1.2-2.8c0.4,0,0.9-0.1,1.2-0.3c0.4-0.2,0.5-0.4,0.5-0.6c0-0.1-0.1-0.2-0.2-0.2c-0.1,0-0.1,0-0.2,0.1
			c-0.3,0.1-0.6,0.2-0.9,0.2c-0.3,0-0.8,0-1.4,0s-0.9,0-1,0c-1.2,0.1-2.1,0.4-2.7,0.9c-0.7,0.5-1,1.1-0.9,1.7c0,0.3,0.2,0.6,0.4,0.8
			c0.2,0.2,0.5,0.3,0.8,0.3c0.3,0,0.6-0.1,0.9-0.3c0.3-0.2,0.6-0.4,0.8-0.7l-0.2-0.3c-0.3,0.3-0.7,0.4-1.1,0.5c-0.2,0-0.5,0-0.7-0.1
			c-0.2-0.1-0.2-0.3-0.3-0.5c0-0.8,0.8-1.2,2.6-1.3l1.7-0.1C75.9,106.1,75.6,106.5,75.4,106.9"/>
		<path class="st1" d="M81.2,111.5c-0.2,0-0.3-0.1-0.3-0.2c0,0,0-0.1,0-0.1c0-0.5,0.2-1,0.4-1.4c0.2-0.5,0.3-0.9,0.4-1.4
			c0-0.4-0.3-0.6-0.9-0.6c-0.3,0-0.7,0.2-1.1,0.7c-0.6,0.7-1.1,1.4-1.5,2.2c0.2-0.7,0.4-1.6,0.7-2.8c0.4-1.2,0.8-2.4,1.3-3.6
			l-0.6-0.2c-1.5,3.6-2.1,5.7-2.4,7.8l0.7,0.2c0.3-0.8,0.6-1.6,1.1-2.3c0.5-0.7,0.9-1,1.1-1c0.3,0,0.5,0.1,0.5,0.3
			c0,0.4-0.1,0.8-0.3,1.2c-0.2,0.4-0.2,0.8-0.3,1.3c0,0.3,0.2,0.6,0.5,0.7c0.1,0,0.1,0,0.2,0c0.5,0,1-0.3,1.3-0.9l-0.3-0.2
			C81.6,111.3,81.4,111.5,81.2,111.5"/>
		<path class="st1" d="M83.3,108.7c0.4-0.5,0.8-0.8,1.2-0.8c0.1,0,0.2,0,0.3,0.1c0.1,0.1,0.1,0.2,0.1,0.3c0,0.3-0.2,0.6-0.6,1
			c-0.5,0.4-1,0.7-1.6,0.9C82.7,109.7,83,109.1,83.3,108.7 M83.6,111.1c-0.2,0-0.3,0-0.5-0.1c-0.2-0.1-0.3-0.2-0.4-0.4
			c0.8-0.3,1.6-0.8,2.3-1.4c0.5-0.5,0.8-0.9,0.8-1.4c0-0.4-0.3-0.6-0.8-0.6c-0.8,0.1-1.6,0.5-2.3,1.2s-1.1,1.5-1,2.2
			c0,0.4,0.2,0.7,0.4,0.9c0.3,0.2,0.6,0.3,1,0.3c0.4,0,0.9-0.2,1.2-0.4c0.4-0.2,0.7-0.5,1-0.9l-0.3-0.2
			C84.4,110.9,84,111.1,83.6,111.1"/>
		<path class="st2" d="M96.9,112.8C92.1,102.6,80,98.3,69.8,103c-4.3,2-7.7,5.5-9.7,9.7"/>
		
			<rect x="59.6" y="112.3" transform="matrix(0.4261 -0.9047 0.9047 0.4261 -67.5569 119.0942)" class="st1" width="0.9" height="0.9"/>
		
			<rect x="96.4" y="112.3" transform="matrix(0.9047 -0.4261 0.4261 0.9047 -38.8214 52.0429)" class="st1" width="0.9" height="0.9"/>
		<path class="st1" d="M60.8,127.8l0.3,0.8c0.1,0.2,0.1,0.4,0,0.5c0,0.1-0.1,0.2-0.2,0.2l0,0c-0.2,0.1-0.4,0-0.5-0.1
			c0,0.2-0.1,0.5-0.3,0.5l0,0c-0.3,0.1-0.6-0.1-0.8-0.5l-0.4-0.8L60.8,127.8z M60.2,129l-0.2-0.5l-0.5,0.2l0.2,0.5
			c0.1,0.2,0.2,0.3,0.4,0.2l0,0C60.2,129.4,60.3,129.3,60.2,129L60.2,129z M60.8,129.1c0.1-0.1,0.2-0.2,0.1-0.4l-0.2-0.5l-0.5,0.2
			l0.2,0.4C60.5,129.1,60.6,129.2,60.8,129.1L60.8,129.1z"/>
		<path class="st1" d="M61.6,129.6l0.4,0.8c0.1,0.2,0.1,0.4,0.1,0.6c0,0.1-0.1,0.3-0.3,0.4l0,0c-0.2,0.1-0.6,0.1-0.7-0.1l-0.4,0.8
			l-0.2-0.4l0.4-0.8l-0.2-0.4l-0.6,0.3l-0.2-0.3L61.6,129.6z M61.2,130.8c0.1,0.2,0.3,0.3,0.5,0.2l0,0c0.2-0.1,0.2-0.3,0.1-0.5
			l-0.2-0.5l-0.6,0.3L61.2,130.8z"/>
		<path class="st1" d="M62.6,131.3l0.8,1.2l-0.2,0.2l-0.6-0.9l-0.4,0.3l0.6,0.8l-0.3,0.2l-0.6-0.8l-0.4,0.3l0.7,0.9l-0.3,0.2
			l-0.8-1.2L62.6,131.3z"/>
		<path class="st1" d="M64.2,133.3l0.2,0.2l-0.9,2l-0.2-0.3l0.2-0.5l-0.6-0.7l-0.5,0.2l-0.2-0.3L64.2,133.3z M63.6,134.5l0.4-0.8
			l-0.8,0.3L63.6,134.5z"/>
		<path class="st1" d="M65.2,134.4l0.3,0.2l-0.7,0.7l1.4-0.1l0.3,0.3l-1.2,0.1l-0.1,1.4l-0.3-0.3l0.1-1.1l-0.4,0l-0.4,0.4l-0.3-0.2
			L65.2,134.4z"/>
		<path class="st1" d="M66.7,135.8l1.2,0.9l-0.2,0.3l-0.9-0.7l-0.3,0.4l0.8,0.6l-0.2,0.3l-0.8-0.6l-0.5,0.6l-0.3-0.2L66.7,135.8z"/>
		<path class="st1" d="M68.6,137.1l0.3,0.2l-0.3,2.1l-0.3-0.2l0.1-0.5l-0.8-0.5l-0.4,0.3l-0.3-0.2L68.6,137.1z M68.4,138.3l0.1-0.8
			l-0.7,0.5L68.4,138.3z"/>
		<path class="st1" d="M69,139.2l0.3-0.1c0.1,0.2,0.3,0.4,0.5,0.5c0.2,0.1,0.4,0.1,0.4-0.1l0,0c0.1-0.1,0-0.2-0.3-0.5
			c-0.3-0.2-0.5-0.5-0.3-0.8l0,0c0.2-0.3,0.5-0.4,0.8-0.3c0,0,0,0,0,0c0.2,0.1,0.4,0.3,0.5,0.5l-0.3,0.2c-0.1-0.2-0.2-0.3-0.4-0.4
			c-0.2-0.1-0.3,0-0.4,0.1l0,0c-0.1,0.1,0,0.2,0.3,0.5c0.3,0.2,0.5,0.5,0.3,0.8l0,0c-0.2,0.3-0.5,0.4-0.9,0.2
			C69.4,139.7,69.1,139.5,69,139.2z"/>
		<path class="st1" d="M71.8,138.9l-0.6-0.2l0.1-0.3l1.5,0.5l-0.1,0.3l-0.6-0.2l-0.6,1.5l-0.3-0.1L71.8,138.9z"/>
		<path class="st1" d="M74.1,140.5L74.1,140.5c0.1-0.2,0.3-0.3,0.5-0.3c0.2,0.1,0.3,0.2,0.3,0.4l0,0c-0.1,0.2-0.3,0.3-0.5,0.3
			C74.2,140.9,74.1,140.7,74.1,140.5z"/>
		<path class="st1" d="M89.8,136l0.3-0.2l1,1.3l0.8-0.6l0.2,0.2l-1.1,0.9L89.8,136z"/>
		<path class="st1" d="M91.9,135.8l-0.8-0.8l0.2-0.2l0.8,0.8c0.2,0.2,0.5,0.3,0.7,0.1c0,0,0.1,0,0.1-0.1c0.2-0.2,0.2-0.5,0.1-0.7
			c0,0,0,0-0.1-0.1l-0.8-0.8l0.2-0.2l0.8,0.8c0.3,0.3,0.4,0.8,0.1,1.1c0,0-0.1,0.1-0.1,0.1c-0.3,0.3-0.8,0.4-1.1,0.1
			C91.9,135.9,91.9,135.9,91.9,135.8z"/>
		<path class="st1" d="M92.6,133.5l0.2-0.2l1.7,0l-1.1-0.9l0.2-0.3l1.5,1.2l-0.2,0.2l-1.8,0l1.1,0.9l-0.2,0.3L92.6,133.5z"/>
		<path class="st1" d="M94.7,132.4L94.7,132.4c-0.5-0.3-0.6-0.9-0.3-1.4c0,0,0,0,0,0c0.1-0.2,0.4-0.4,0.7-0.5l0.1,0.3
			c-0.2,0-0.4,0.2-0.5,0.3c-0.2,0.3-0.1,0.7,0.2,0.9c0,0,0,0,0,0l0,0c0.3,0.2,0.7,0.1,0.9-0.2c0,0,0,0,0,0c0.1-0.2,0.1-0.4,0.1-0.6
			l0.3-0.1c0.1,0.3,0,0.6-0.1,0.9C95.8,132.6,95.2,132.7,94.7,132.4C94.7,132.4,94.7,132.4,94.7,132.4z"/>
		<path class="st1" d="M95,130.1l0.2-0.3l0.7,0.4l0.4-0.8l-0.7-0.4l0.2-0.3l1.8,0.9l-0.2,0.3l-0.7-0.4l-0.4,0.8l0.7,0.4l-0.2,0.3
			L95,130.1z"/>
		<path class="st1" d="M89.1,138.4L89.1,138.4c-0.1-0.2,0-0.4,0.2-0.5c0.2-0.1,0.4,0,0.5,0.2l0,0c0.1,0.2,0,0.4-0.2,0.5
			C89.5,138.7,89.2,138.6,89.1,138.4L89.1,138.4z"/>
		<path class="st1" d="M76,139.6l0.9,0.1c0.2,0,0.4,0.1,0.5,0.2c0.1,0.1,0.1,0.2,0.1,0.3l0,0c0,0.2-0.1,0.4-0.3,0.4
			c0.2,0.1,0.4,0.3,0.3,0.5l0,0c0,0.4-0.3,0.5-0.8,0.5l-0.9-0.1L76,139.6z M77.1,140.3c0-0.2-0.1-0.3-0.3-0.3l-0.5-0.1l-0.1,0.5
			l0.5,0C76.9,140.6,77.1,140.5,77.1,140.3L77.1,140.3z M76.7,140.8l-0.5-0.1l-0.1,0.5l0.6,0.1c0.2,0,0.4-0.1,0.4-0.2l0,0
			C77.1,141,77,140.9,76.7,140.8L76.7,140.8z"/>
		<path class="st1" d="M77.9,139.8h0.9c0.2,0,0.4,0.1,0.6,0.2c0.1,0.1,0.2,0.3,0.2,0.4l0,0c0,0.3-0.2,0.5-0.5,0.6l0.5,0.7h-0.4
			l-0.5-0.7h-0.4v0.7H78L77.9,139.8z M78.8,140.8c0.2,0,0.4-0.1,0.4-0.3l0,0c0-0.2-0.2-0.3-0.4-0.3h-0.5v0.7L78.8,140.8z"/>
		<path class="st1" d="M80,140.9l-0.1-1.1l0.3,0l0.1,1.1c0,0.4,0.2,0.5,0.6,0.5c0.3,0,0.5-0.2,0.4-0.5c0,0,0-0.1,0-0.1l-0.1-1.1
			l0.3-0.1l0.1,1.1c0.1,0.5-0.3,0.9-0.7,0.9C80.5,141.7,80.1,141.4,80,140.9L80,140.9z"/>
		<path class="st1" d="M82,139.5l0.3-0.1l1.3,1.1l-0.3-1.3l0.3-0.1l0.4,1.9l-0.3,0.1l-1.4-1.1l0.3,1.4l-0.3,0.1L82,139.5z"/>
		<path class="st1" d="M84.4,140L84.4,140c-0.2-0.5,0.1-1.1,0.6-1.3c0,0,0,0,0,0c0.3-0.1,0.6-0.1,0.8,0l-0.1,0.3
			c-0.2-0.1-0.4-0.1-0.6,0c-0.3,0.1-0.5,0.5-0.4,0.8c0,0,0,0,0,0l0,0c0.1,0.4,0.5,0.6,0.8,0.4c0,0,0,0,0,0c0.2-0.1,0.4-0.2,0.4-0.4
			l0.3,0.1c-0.1,0.3-0.3,0.5-0.6,0.6C85.1,140.8,84.6,140.5,84.4,140C84.4,140,84.4,140,84.4,140z"/>
		<path class="st1" d="M86,138.3l0.3-0.1l0.4,0.7l0.8-0.4l-0.4-0.7l0.3-0.1l0.8,1.8l-0.3,0.2l-0.4-0.7l-0.8,0.4l0.4,0.7l-0.3,0.1
			L86,138.3z"/>
		<path class="st3" d="M87.3,128.7c0.1,0.1,0.1,0.2,0,0.4c-0.2,0.5-3.1,1.5-3.9,1.8c-3.2,1.3-6.6,2.3-9.6,4
			c-0.4,0.2-2.2,1.3-2.5,1.2c-0.3-0.1-0.6-0.4-0.6-0.7c-0.1-0.2,0-0.5,0.2-0.7l3.9-1.4c3.2-1,5-2.9,8.2-3.9
			C84.6,128.9,86.3,128,87.3,128.7z"/>
		<path class="st4" d="M70.4,130l0.1-0.1c0.4,0.2,2.9,1.2,3.1,1.2c0.1-0.1,0.1-0.2,0-0.3l-3-1.3c0,0,0-0.1,0-0.1l0.1,0l3.1,1.2l0,0
			c0,0,0-0.1,0-0.1l-3-1.4c0,0,0,0,0,0l0.1-0.1c0.3-0.1,2.6,1.1,3.1,1.2c0-0.1,0-0.1,0.1-0.2l-3-1.4l0.1-0.1c0.3-0.1,1,0.4,1.4,0.5
			l2.2,0.7c0.4,0.1,0.7,0.2,1,0.4c0.5,0.4,0.6,1.1,1.2,1.5l6.2,2.4l0.9,0.3c0.4,0.1,2.1,0.7,2.4,1c0.2,0.2,0.3,0.4,0.3,0.7
			c-0.3,1-2.9-0.5-3.8-1l-3.9-1.8c-0.6-0.3-1.9-1.1-2.5-1.2c-0.6-0.1-1.1,0.3-1.6,0.3c-0.7,0-2.8-1.2-3.5-1.6
			C71.2,130.4,70.6,130.3,70.4,130z"/>
		<path class="st3" d="M70.5,129.6l0.1-0.1c0.4,0.2,2.9,1.2,3.1,1.2c0.1-0.1,0.1-0.2,0-0.3l-3-1.3c0,0,0-0.1,0-0.1l0.1,0l3.1,1.2
			l0,0c0-0.1,0-0.1,0-0.1l-3-1.4c0,0,0,0,0,0c0,0,0-0.1,0.1-0.1c0.3-0.1,2.6,1.1,3.1,1.2c0-0.1,0-0.1,0.1-0.2l-3-1.4
			c0,0,0-0.1,0.1-0.1c0.3-0.1,1,0.4,1.4,0.5l2.2,0.7c0.4,0.1,0.7,0.2,1,0.4c0.5,0.4,0.6,1.1,1.2,1.5l6.2,2.4l0.9,0.4
			c0.4,0.1,2.1,0.7,2.4,1c0.2,0.2,0.3,0.4,0.3,0.7c-0.3,1-2.9-0.5-3.8-1l-3.9-1.8c-0.6-0.3-1.9-1.1-2.5-1.2
			c-0.6-0.1-1.1,0.3-1.6,0.3c-0.7,0-2.8-1.2-3.5-1.6C71.2,130,70.7,129.9,70.5,129.6z"/>
		<path class="st1" d="M60.2,125.9h-1.8v-10.3h1.7c1,0,1.5,0.5,1.5,1.5v2.2c0,0.5-0.2,0.8-0.5,1c0.4,0.2,0.6,0.5,0.6,1v3
			C61.6,125.4,61.1,125.9,60.2,125.9z M59.5,116.6v3.2H60c0.2,0,0.4-0.1,0.5-0.4c0,0,0-0.1,0-0.1v-2.2c0-0.3-0.2-0.5-0.5-0.5H59.5z
			 M59.5,124.9h0.6c0.2,0,0.4-0.1,0.5-0.4c0,0,0-0.1,0-0.1v-3.1c0-0.3-0.2-0.5-0.5-0.5h-0.6V124.9z"/>
		<path class="st1" d="M64.2,120.8h-0.6v5.1h-1.1v-10.3h1.8c1,0,1.5,0.5,1.5,1.5l0,2.1c0.1,0.4-0.1,0.8-0.5,1.1
			c0.3,0.2,0.5,0.5,0.5,1.1v4.5h-1.1v-4.6c0-0.2-0.1-0.4-0.3-0.5C64.3,120.8,64.2,120.8,64.2,120.8z M63.6,116.6v3.2h0.6
			c0.2,0,0.4-0.1,0.5-0.4c0,0,0-0.1,0-0.1v-2.2c0-0.3-0.2-0.5-0.5-0.5H63.6z"/>
		<path class="st1" d="M68.9,124.9v1.1h-2.3v-10.3h2.3v1.1h-1.2v3.1h1.1v1h-1.1v4.1H68.9z"/>
		<path class="st1" d="M71.7,125.9v-5.1h-1v5.1h-1.1v-5.4c0-0.9,0-1.9,0.2-2.8c0.2-0.7,0.5-1.3,0.9-1.9l0.1-0.2h0.8l0.2,0.2
			c0.4,0.6,0.7,1.2,0.9,1.9c0.2,0.9,0.2,1.8,0.2,2.8v5.4H71.7z M70.7,119.6v0.2h1v-0.2c0-0.9-0.1-1.8-0.4-2.6l-0.1-0.2h-0.1
			l-0.1,0.2C70.9,117.6,70.7,118.5,70.7,119.6z"/>
		<path class="st1" d="M73.8,125.9v-10.3h1.7c1,0,1.5,0.5,1.5,1.5v7.3c0,1-0.5,1.5-1.5,1.5H73.8z M74.8,124.9h0.6
			c0.2,0,0.4-0.1,0.5-0.4c0,0,0-0.1,0-0.1v-7.3c0-0.3-0.2-0.5-0.5-0.5h-0.6V124.9z"/>
		<path class="st1" d="M82.3,124.3c0,1.1-0.5,1.6-1.5,1.6h-0.3c-1,0-1.5-0.5-1.5-1.6v-3c0-0.5,0.2-0.9,0.5-1.1
			c-0.3-0.3-0.5-0.7-0.5-1.1v-2.1c0-1.1,0.5-1.6,1.5-1.6h0.3c1,0,1.5,0.5,1.5,1.6v0.6h-1.1v-0.7c0-0.4-0.2-0.6-0.5-0.6h-0.1
			c-0.3,0-0.5,0.2-0.5,0.6v2.3c0,0.2,0.1,0.4,0.3,0.5c0,0,0.1,0,0.1,0h0.6v-1.3h1.1v1.3h0.6v1h-0.6V124.3z M80.7,125.1
			c0.3,0,0.5-0.2,0.5-0.6v-3.7h-0.6c-0.2,0-0.4,0.1-0.5,0.4c0,0,0,0.1,0,0.1v3.2C80.2,124.9,80.3,125.1,80.7,125.1L80.7,125.1z"/>
		<path class="st1" d="M86.8,125.9h-1.1v-3.3l-0.2-0.3c-0.3-0.5-0.6-1.1-0.7-1.7c-0.1-0.9-0.2-1.7-0.2-2.6v-2.4h1.1v3.1
			c0,1.2,0.1,2,0.4,2.5l0.1,0.2h0.1l0.1-0.2c0.2-0.5,0.4-1.4,0.4-2.5v-3.1h1.1v2.4c0,0.9,0,1.7-0.1,2.6c-0.1,0.6-0.4,1.2-0.7,1.7
			l-0.2,0.3L86.8,125.9z"/>
		<path class="st1" d="M90.1,126c-1,0-1.4-0.5-1.4-1.6v-7.2c0-1.1,0.5-1.6,1.4-1.6h0.3c1,0,1.5,0.5,1.5,1.6v7.2
			c0,1.1-0.5,1.6-1.5,1.6H90.1z M90.2,125L90.2,125c0.4,0,0.5-0.2,0.5-0.6v-7.3c0-0.4-0.2-0.6-0.5-0.6h-0.1c-0.3,0-0.5,0.2-0.5,0.6
			v7.3C89.7,124.8,89.9,125,90.2,125L90.2,125z"/>
		<path class="st1" d="M94.8,125.9h-2v-10.3h1.1v9.3h0.9V125.9z"/>
		<path class="st1" d="M96.6,120.8h-0.1v5.1h-1.1v-10.3h1.1v4.2h0.1c0.6,0,0.8-0.4,0.8-1.1v-3.1h1.1v3.1c0,0.8-0.3,1.3-0.8,1.6
			c0.6,0.2,0.8,0.8,0.9,1.6v4h-1.1v-4.1C97.5,121.2,97.2,120.8,96.6,120.8z"/>
	</g>
</g>
</svg>
