<svg width="150" height="150" xmlns="http://www.w3.org/2000/svg"><g transform="translate(-126)" fill="none" fill-rule="evenodd"><circle fill="#FF3D3D" cx="201" cy="75" r="75"/><path d="M251.912 41.637c-10.941-16.509-29.749-27.403-51.115-27.403-21.821 0-40.975 11.364-51.804 28.467m0 65.662c10.941 16.509 29.75 27.403 51.115 27.403 21.821 0 40.975-11.364 51.804-28.467" stroke="#FFF" stroke-width="2.6" stroke-linecap="round" stroke-linejoin="round"/><path d="M202.046 89.321c2.042-10.625 8.749-14.43 20.121-11.415-1.705 9.42-8.413 13.225-20.121 11.415zm.784 5.873c10.445-2.822 16.805 1.538 19.08 13.082-9.214 2.596-15.574-1.765-19.08-13.082zm-5.576.513c7.116 8.15 5.985 15.779-3.393 22.884-6.373-7.144-5.241-14.772 3.393-22.884zm4.699-6.785c11.571-5.859 18.284-9.64 20.139-11.343m-18.944 17.357c10.339 7.832 16.68 12.208 19.023 13.128M197.58 94.576c-2.507 12.726-3.66 20.343-3.46 22.853" stroke="#FFF" stroke-width="1.671"/><path stroke="#FFF" stroke-width="1.671" d="M208.828 77.453l-2.32 7.789 7.405 3.085m2.387 7.503l-8.018 1.328.474 8.009m-6.646 2.649l-4.709-6.624-6.99 3.936m25.039-29.216l-1.167 6.538 4.492 2.065m1.845 17.09l-6.388 1.816.113 4.943m-14.405 6.676l-4.433-4.945-4.394 2.27m5.703-16.927l.05-6.705 6.305 5.238m-.825-5.785l-6.354 1.467m-4.52-3.057L199 90.213m-21.316-.723c-2.786-2.652-3.4-5.311-1.842-7.977 1.557-2.666 3.494-3.69 5.81-3.072 2.088 1.99 2.594 4.18 1.516 6.57-1.078 2.39-2.906 3.884-5.484 4.48zm11.904 9.715c-3.555 1.465-6.234.945-8.037-1.562-1.802-2.508-1.95-4.693-.442-6.557 2.666-1.1 4.873-.67 6.618 1.287 1.746 1.956 2.366 4.234 1.861 6.832zm2.75-19.171c1.589 3.503 1.162 6.198-1.28 8.087-2.443 1.888-4.622 2.112-6.538.671-1.191-2.627-.84-4.847 1.055-6.66 1.895-1.812 4.15-2.512 6.763-2.098z"/><path d="M176.087 89.475c-.649-3.42-.16-5.317 1.468-5.693 1.628-.376 2.051-2.258 1.269-5.648m10.183 20.732c-3.388-.798-4.923-2.017-4.604-3.657.318-1.64-1.23-2.792-4.644-3.456M191.322 80c-.679 3.413-1.843 4.99-3.494 4.728-1.65-.261-2.747 1.326-3.291 4.761" stroke="#FFF" stroke-width="1.671"/><path d="M179.234 57.812c.582-.582 1.316-1.05 2.202-1.401.886-.352 1.875-.455 2.967-.31l1.638-3.931a23.003 23.003 0 0 1 1.783-3.422c.437-.703.904-1.274 1.402-1.71a6.93 6.93 0 0 1 1.583-1.056 33.285 33.285 0 0 1-.692-.146 9.853 9.853 0 0 1-.691-.182c-.631-.17-1.34-.29-2.13-.364a13.015 13.015 0 0 0-2.475.019 13.75 13.75 0 0 0-2.62.527c-.886.267-1.742.656-2.567 1.165-2.79 1.723-4.586 4.417-5.387 8.081-.146.655-.473 1.128-.983 1.42-.51.29-1.019.4-1.529.327a2.097 2.097 0 0 1-1.292-.691c-.352-.389-.455-.935-.31-1.638a13.041 13.041 0 0 1 1.093-3.076 14.485 14.485 0 0 1 1.729-2.657 17.179 17.179 0 0 1 2.184-2.22 18.69 18.69 0 0 1 2.457-1.766 14.336 14.336 0 0 1 2.857-1.329c1.032-.352 2.1-.6 3.203-.746a19.086 19.086 0 0 1 3.331-.146c1.116.049 2.172.207 3.167.474 1.456.388 2.67.63 3.64.728.97.097 1.753.12 2.348.072.594-.048 1.019-.127 1.274-.236.254-.11.406-.176.455-.2.267-.267.576-.407.928-.419.352-.012.661.091.928.31.291.266.455.588.491.964.037.376-.078.698-.345.965-.073.12-.304.315-.692.582-.388.267-1.007.485-1.856.655-.825.146-1.82.182-2.985.11-.728 0-1.42.29-2.075.873-.655.582-1.274 1.347-1.856 2.293a27.88 27.88 0 0 0-1.693 3.258 159.652 159.652 0 0 0-1.62 3.767c.728.073 1.329.019 1.802-.163.473-.182.807-.346 1.001-.492a1.343 1.343 0 0 1 1.02-.236c.363.06.654.248.873.564.218.315.297.661.236 1.037a1.29 1.29 0 0 1-.564.892c-.752.534-1.59.88-2.511 1.037-.923.158-1.893.128-2.912-.09a65.761 65.761 0 0 1-1.62 3.749 32.435 32.435 0 0 1-1.82 3.367 16.277 16.277 0 0 1-2.111 2.73c-.765.788-1.608 1.377-2.53 1.765-.728.34-1.408.57-2.039.692a9.299 9.299 0 0 1-1.747.182c-.946 0-1.753-.146-2.42-.437-.668-.291-1.183-.57-1.547-.837a6.464 6.464 0 0 1-2.148-2.803 6.972 6.972 0 0 1-.437-3.604 7.491 7.491 0 0 1 1.802-4.04c1.007-1.165 2.324-2.075 3.95-2.73a1.24 1.24 0 0 1 1.037.018c.352.158.6.406.746.746a1.4 1.4 0 0 1-.036 1.038 1.203 1.203 0 0 1-.728.71c-1.165.485-2.1 1.122-2.803 1.91a4.852 4.852 0 0 0-1.238 2.712 4.092 4.092 0 0 0 .237 2.202c.279.692.697 1.244 1.256 1.657.63.46 1.37.697 2.22.71.85.012 1.784-.189 2.803-.601.655-.291 1.28-.759 1.874-1.402a14.4 14.4 0 0 0 1.693-2.275 28.837 28.837 0 0 0 1.529-2.875 81.056 81.056 0 0 0 1.42-3.24c-.68-.073-1.275-.03-1.784.128-.51.157-.898.37-1.165.637-.291.267-.576.394-.855.382a.937.937 0 0 1-.674-.291c-.17-.182-.242-.425-.218-.728.024-.304.206-.625.546-.965zm15.106 7.098a3.927 3.927 0 0 1-.783-.673 2.994 2.994 0 0 1-.6-1.038c-.146-.412-.213-.904-.2-1.474.012-.57.139-1.232.382-1.984.267-.825.643-1.674 1.128-2.548.485-.873.959-1.71 1.42-2.511.34-.534.68-1.105 1.019-1.711.34-.607.522-1.032.546-1.274 0-.388.133-.716.4-.983s.583-.4.947-.4c.388 0 .715.127.982.382s.413.576.437.964c0 .534-.17 1.14-.51 1.82-.34.68-.824 1.553-1.455 2.621-.292.51-.631 1.098-1.02 1.766a19.856 19.856 0 0 0-1 1.947c-.28.63-.462 1.207-.547 1.729-.085.522.019.868.31 1.037a.69.69 0 0 0 .273.037c.133 0 .31-.049.528-.146a5.91 5.91 0 0 0 .819-.473c.327-.218.71-.522 1.146-.91.437-.388.862-.807 1.274-1.256.413-.449.795-.886 1.147-1.31a57.3 57.3 0 0 0 .928-1.147c.267-.34.473-.619.619-.837.218-.291.443-.473.673-.546.23-.073.43-.067.6.018.17.085.274.237.31.455.037.219-.054.473-.273.765-.121.145-.34.497-.655 1.055-.315.558-.716 1.19-1.201 1.893a32.84 32.84 0 0 1-1.638 2.166 12.214 12.214 0 0 1-1.911 1.893c-.668.521-1.353.867-2.057 1.037-.704.17-1.383.049-2.038-.364zm8.19-17.69c0 .485-.164.891-.492 1.219a1.656 1.656 0 0 1-1.219.491c-.485 0-.892-.163-1.22-.491a1.656 1.656 0 0 1-.49-1.22c0-.485.163-.891.49-1.219a1.656 1.656 0 0 1 1.22-.491c.485 0 .892.164 1.22.491.327.328.49.734.49 1.22zm-2.803 18.163a1.55 1.55 0 0 1-.692-.182 1.264 1.264 0 0 1-.637-.837 1.413 1.413 0 0 1 .164-1.056c.437-.728.983-1.656 1.638-2.784.655-1.129 1.353-2.336 2.093-3.622s1.487-2.603 2.239-3.95a146.518 146.518 0 0 0 2.075-3.84 92.294 92.294 0 0 0 1.62-3.257c.448-.959.746-1.68.891-2.166a1.43 1.43 0 0 1 .619-.856 1.124 1.124 0 0 1 1.02-.127c.363.097.648.303.855.619.206.315.248.655.127 1.019-.121.485-.358 1.122-.71 1.911-.352.789-.77 1.668-1.256 2.639-.485.97-1.019 2.002-1.601 3.094a217.608 217.608 0 0 1-1.784 3.276h.255c.218.049.425.103.619.164.194.06.376.127.546.2a13.29 13.29 0 0 0 2.02-1.347 24.896 24.896 0 0 0 3.33-3.203c.437-.51.777-.922 1.02-1.238.242-.29.552-.46.928-.51.376-.048.71.05 1.001.292.291.218.461.516.51.892a1.25 1.25 0 0 1-.292 1 17.82 17.82 0 0 1-1.42 1.548 18.203 18.203 0 0 1-1.71 1.474c-.607.461-1.244.88-1.911 1.256a10.92 10.92 0 0 1-2.02.892c.242.267.437.594.582.982.194.51.291 1.026.291 1.547 0 .522-.024 1.026-.072 1.511-.025.34-.049.692-.073 1.056-.024.364.024.594.145.691a.16.16 0 0 1 .073.018c.024.013.073.006.146-.018.46-.073 1.189-.558 2.184-1.456.995-.898 2.22-2.39 3.676-4.477.219-.291.45-.473.692-.546.242-.073.443-.073.6 0 .158.073.255.218.292.437.036.218-.043.473-.237.764a171.99 171.99 0 0 0-2.038 3.021 44.814 44.814 0 0 1-1.711 2.44c-.534.703-1.044 1.273-1.529 1.71-.485.437-.983.704-1.492.8a3.066 3.066 0 0 1-.546.074c-.316 0-.613-.049-.892-.146a3.18 3.18 0 0 1-.783-.4 2.877 2.877 0 0 1-.837-.929 3.354 3.354 0 0 1-.382-1.092 5.755 5.755 0 0 1-.073-1.11c.012-.364.03-.716.055-1.055.048-.486.072-.88.072-1.183 0-.304-.042-.546-.127-.728a.892.892 0 0 0-.4-.419c-.182-.097-.431-.17-.747-.218-.412-.073-.715-.28-.91-.62a135.18 135.18 0 0 1-1.492 2.567c-.485.813-.916 1.547-1.292 2.202a85.704 85.704 0 0 1-.983 1.675c-.28.46-.467.776-.564.946-.267.437-.655.655-1.165.655zm18.31 0c-.607 0-1.141-.133-1.602-.4a3.424 3.424 0 0 1-1.438-1.438c-.328-.619-.48-1.329-.455-2.13.024-.946.279-1.977.764-3.093a16.811 16.811 0 0 1 1.893-3.258 19.024 19.024 0 0 1 2.675-2.93c1.007-.898 2.045-1.602 3.113-2.112 1.213-.582 2.372-.849 3.476-.8 1.104.048 2.08.4 2.93 1.055.315.243.497.51.546.801.049.291.012.534-.11.728-.12.194-.315.322-.582.382-.267.06-.558-.03-.873-.273-.922-.704-2.111-.691-3.567.037-.898.436-1.79 1.055-2.676 1.856-.886.8-1.686 1.662-2.402 2.584a16.181 16.181 0 0 0-1.747 2.749c-.45.91-.686 1.68-.71 2.311-.024.413.024.692.145.837.122.146.23.243.328.291.291.17.722.097 1.292-.218.57-.315 1.214-.825 1.93-1.529.715-.704 1.48-1.583 2.293-2.639a31.768 31.768 0 0 0 2.384-3.622 3.622 3.622 0 0 1 .255-.436c.194-.34.467-.559.819-.656a1.315 1.315 0 0 1 1.037.146 1.324 1.324 0 0 1 .51 1.856c-.097.146-.17.28-.219.4-.63 1.093-1.098 2.045-1.401 2.858-.304.813-.504 1.493-.6 2.039-.098.546-.122.97-.074 1.274.049.303.122.479.219.527.121.073.394.019.819-.163.424-.182.989-.625 1.692-1.329a19.304 19.304 0 0 0 2.039-2.239 78.267 78.267 0 0 0 1.747-2.311c.17-.267.37-.43.6-.491.231-.061.431-.049.601.036.17.085.273.23.31.437.036.206-.03.443-.2.71-.195.242-.425.612-.692 1.11a40.175 40.175 0 0 1-2.148 3.53 14.616 14.616 0 0 1-1.383 1.748 7.135 7.135 0 0 1-1.547 1.274c-.546.327-1.11.491-1.693.491-.485 0-1.007-.158-1.565-.473-.145-.073-.297-.237-.455-.491a4.424 4.424 0 0 1-.418-.929 5.254 5.254 0 0 1-.237-1.255 5.362 5.362 0 0 1 .127-1.547 14.94 14.94 0 0 1-1.055 1.583c-.413.546-.874 1.05-1.383 1.51a8.29 8.29 0 0 1-1.602 1.147 3.544 3.544 0 0 1-1.71.455z" fill="#FFF" fill-rule="nonzero"/></g></svg>