<svg width="79" height="36" xmlns="http://www.w3.org/2000/svg"><path d="M13.968 18.69c.689-.688 1.556-1.24 2.602-1.655 1.046-.416 2.214-.538 3.504-.366l1.936-4.644a27.174 27.174 0 0 1 2.106-4.042c.517-.831 1.068-1.505 1.656-2.021a8.186 8.186 0 0 1 1.87-1.247 39.32 39.32 0 0 1-.816-.172c-.259-.057-.53-.129-.817-.215-.746-.2-1.584-.344-2.516-.43a15.375 15.375 0 0 0-2.924.021c-1.018.1-2.05.309-3.096.624a12.763 12.763 0 0 0-3.031 1.376c-3.297 2.035-5.418 5.217-6.365 9.546-.172.774-.558 1.333-1.16 1.677-.603.344-1.204.473-1.806.387a2.477 2.477 0 0 1-1.527-.817c-.416-.459-.538-1.104-.366-1.935.287-1.29.717-2.501 1.29-3.633a17.112 17.112 0 0 1 2.043-3.14 20.293 20.293 0 0 1 2.58-2.622 22.08 22.08 0 0 1 2.903-2.086 16.935 16.935 0 0 1 3.375-1.57 19.64 19.64 0 0 1 3.784-.881 22.546 22.546 0 0 1 3.935-.172c1.318.057 2.565.244 3.74.559 1.72.459 3.154.745 4.3.86 1.147.115 2.072.143 2.774.086.702-.057 1.204-.15 1.505-.28.301-.129.48-.207.538-.236.315-.315.68-.48 1.096-.495a1.59 1.59 0 0 1 1.097.366c.344.315.537.695.58 1.14.043.444-.093.824-.408 1.139-.086.143-.359.373-.817.688-.46.315-1.19.573-2.193.774-.975.172-2.15.215-3.527.129-.86 0-1.676.344-2.45 1.032-.775.688-1.505 1.591-2.194 2.709-.688 1.118-1.354 2.4-1.999 3.848a188.605 188.605 0 0 0-1.914 4.451c.86.086 1.57.022 2.129-.194.559-.215.953-.408 1.182-.58a1.587 1.587 0 0 1 1.204-.28c.43.072.774.294 1.032.667.259.373.352.781.28 1.226a1.53 1.53 0 0 1-.666 1.053 7.14 7.14 0 0 1-2.968 1.225c-1.089.187-2.235.151-3.44-.107a77.685 77.685 0 0 1-1.913 4.429 38.316 38.316 0 0 1-2.15 3.977 19.228 19.228 0 0 1-2.494 3.225c-.903.932-1.9 1.627-2.989 2.086-.86.401-1.662.674-2.407.817-.746.143-1.434.215-2.065.215-1.118 0-2.07-.172-2.859-.516-.788-.344-1.397-.674-1.828-.989a7.636 7.636 0 0 1-2.536-3.311C.223 29.039.05 27.62.25 26.129a8.85 8.85 0 0 1 2.129-4.773c1.19-1.376 2.745-2.451 4.665-3.225.402-.172.81-.165 1.226.022.416.186.71.48.882.881.143.401.129.81-.043 1.226-.173.415-.46.695-.86.838-1.377.573-2.48 1.326-3.312 2.258-.83.931-1.318 1.999-1.462 3.203-.143.917-.05 1.784.28 2.601.33.818.824 1.47 1.484 1.957.745.545 1.62.824 2.622.838 1.004.015 2.107-.222 3.311-.709.775-.344 1.513-.896 2.215-1.655a17.011 17.011 0 0 0 2-2.688 34.065 34.065 0 0 0 1.805-3.397 95.753 95.753 0 0 0 1.677-3.827c-.802-.086-1.504-.036-2.106.15-.603.187-1.061.438-1.376.753-.345.315-.681.466-1.011.451-.33-.014-.595-.128-.795-.343-.201-.216-.287-.502-.259-.86.03-.359.244-.739.645-1.14zm17.845 8.385a4.64 4.64 0 0 1-.924-.796 3.537 3.537 0 0 1-.71-1.225c-.172-.487-.25-1.068-.236-1.741.014-.674.165-1.455.451-2.344.316-.975.76-1.978 1.333-3.01a222.938 222.938 0 0 1 1.677-2.967c.402-.63.803-1.304 1.205-2.021.4-.717.616-1.218.645-1.505 0-.459.157-.846.472-1.161a1.529 1.529 0 0 1 1.119-.473c.458 0 .845.15 1.16.451.316.302.488.681.516 1.14 0 .63-.2 1.347-.602 2.15-.4.803-.974 1.835-1.72 3.096a292.51 292.51 0 0 1-1.204 2.085 23.457 23.457 0 0 0-1.182 2.301c-.33.745-.545 1.426-.645 2.042-.1.617.021 1.025.366 1.226.057.029.164.043.322.043s.365-.057.624-.172c.258-.115.58-.301.967-.559.387-.258.838-.616 1.355-1.075a20.929 20.929 0 0 0 1.505-1.483 40.21 40.21 0 0 0 1.354-1.549c.416-.501.781-.953 1.097-1.354.315-.401.558-.731.73-.989.259-.344.524-.559.796-.645.272-.086.509-.079.71.022.2.1.322.279.365.537.043.258-.064.559-.322.903-.144.172-.402.588-.774 1.247-.373.66-.846 1.405-1.42 2.236a38.795 38.795 0 0 1-1.934 2.559c-.717.874-1.47 1.62-2.258 2.235-.788.617-1.598 1.025-2.43 1.226-.83.2-1.633.057-2.408-.43zM41.49 6.177c0 .573-.194 1.053-.581 1.44-.387.388-.867.581-1.44.581-.574 0-1.054-.193-1.441-.58-.387-.388-.58-.868-.58-1.441 0-.573.193-1.053.58-1.44.387-.388.867-.581 1.44-.581.574 0 1.054.193 1.441.58.387.388.58.868.58 1.441zm-3.311 21.457a1.83 1.83 0 0 1-.817-.215 1.493 1.493 0 0 1-.753-.989 1.67 1.67 0 0 1 .194-1.247 275.24 275.24 0 0 0 1.934-3.29 1102.06 1102.06 0 0 0 2.473-4.278c.874-1.52 1.756-3.074 2.645-4.665a173.085 173.085 0 0 0 2.45-4.537 104.825 104.825 0 0 0 1.914-3.848c.53-1.133.881-1.986 1.053-2.559.115-.43.359-.767.732-1.01a1.328 1.328 0 0 1 1.204-.151c.43.115.766.358 1.01.731s.294.774.15 1.204c-.143.573-.422 1.326-.838 2.258a79.24 79.24 0 0 1-1.484 3.117 156.936 156.936 0 0 1-1.891 3.655c-.689 1.29-1.39 2.58-2.107 3.87h.3c.259.057.502.122.731.194.23.071.445.15.645.236a15.7 15.7 0 0 0 2.387-1.591 29.41 29.41 0 0 0 3.934-3.784c.517-.602.918-1.09 1.205-1.462a1.656 1.656 0 0 1 1.096-.602 1.48 1.48 0 0 1 1.183.344c.344.258.544.61.602 1.053a1.48 1.48 0 0 1-.345 1.183 21.375 21.375 0 0 1-1.676 1.827 21.504 21.504 0 0 1-2.022 1.742 19.506 19.506 0 0 1-2.257 1.483 12.9 12.9 0 0 1-2.387 1.054c.287.315.516.702.688 1.161.23.602.345 1.211.345 1.828 0 .616-.03 1.21-.087 1.784l-.086 1.247c-.028.43.03.702.173.817a.19.19 0 0 1 .086.021c.028.015.086.008.172-.021.544-.086 1.404-.66 2.58-1.72 1.175-1.06 2.622-2.824 4.343-5.289.258-.344.53-.559.816-.645.287-.086.524-.086.71 0 .186.086.301.258.344.516.043.258-.05.559-.28.903a203.17 203.17 0 0 0-2.407 3.569 52.94 52.94 0 0 1-2.022 2.881c-.63.831-1.232 1.505-1.805 2.021-.574.516-1.161.831-1.763.946a3.622 3.622 0 0 1-.645.086c-.373 0-.724-.057-1.054-.172a3.757 3.757 0 0 1-.925-.473 3.4 3.4 0 0 1-.988-1.096 3.963 3.963 0 0 1-.452-1.29 6.799 6.799 0 0 1-.086-1.312c.014-.43.036-.846.064-1.247.058-.573.086-1.04.086-1.398 0-.358-.05-.644-.15-.86-.1-.215-.258-.38-.473-.494-.215-.115-.509-.2-.882-.258-.487-.086-.845-.33-1.075-.731-.602 1.06-1.19 2.071-1.762 3.032-.574.96-1.083 1.827-1.527 2.601a98.913 98.913 0 0 1-1.161 1.978c-.33.545-.552.917-.667 1.118-.315.516-.773.774-1.375.774zm21.629 0c-.717 0-1.348-.158-1.893-.473a4.044 4.044 0 0 1-1.698-1.699c-.387-.73-.566-1.569-.538-2.515.03-1.118.33-2.336.904-3.655a19.86 19.86 0 0 1 2.235-3.849 22.506 22.506 0 0 1 3.161-3.461c1.19-1.06 2.415-1.892 3.676-2.494 1.434-.688 2.803-1.003 4.107-.946 1.304.057 2.458.473 3.461 1.247.373.287.588.602.645.946.058.344.015.63-.128.86-.144.23-.373.38-.688.452-.316.071-.66-.036-1.032-.323-1.09-.831-2.494-.817-4.215.043-1.06.516-2.114 1.247-3.16 2.193a23.727 23.727 0 0 0-2.838 3.053c-.846 1.09-1.534 2.171-2.064 3.247-.53 1.075-.81 1.985-.838 2.73-.03.487.028.817.172.989.143.172.272.287.386.344.345.2.853.115 1.527-.258.674-.373 1.433-.975 2.279-1.806.846-.831 1.749-1.87 2.709-3.117a37.52 37.52 0 0 0 2.816-4.279 4.279 4.279 0 0 1 .302-.516c.229-.401.551-.66.967-.774.416-.115.824-.057 1.226.172.4.23.659.552.774.967.114.416.057.825-.172 1.226a2.68 2.68 0 0 0-.259.473c-.745 1.29-1.297 2.415-1.655 3.375-.358.96-.595 1.763-.71 2.408-.114.646-.143 1.147-.085 1.506.057.358.143.566.257.623.144.086.466.022.968-.194.502-.215 1.168-.738 2-1.569a22.805 22.805 0 0 0 2.407-2.644c.775-.99 1.462-1.9 2.065-2.731.2-.315.437-.509.709-.58.272-.072.509-.058.71.043.2.1.322.272.365.515.043.244-.036.524-.236.839-.23.287-.502.724-.817 1.311a47.46 47.46 0 0 1-2.537 4.171 17.252 17.252 0 0 1-1.635 2.064 8.428 8.428 0 0 1-1.827 1.506c-.645.387-1.311.58-2 .58-.573 0-1.19-.186-1.849-.559-.172-.086-.35-.28-.537-.58a5.226 5.226 0 0 1-.494-1.097 6.207 6.207 0 0 1-.28-1.484 6.335 6.335 0 0 1 .15-1.827c-.344.602-.76 1.225-1.246 1.87a12.84 12.84 0 0 1-1.634 1.785 9.792 9.792 0 0 1-1.893 1.354c-.659.359-1.332.538-2.02.538z"/></svg>