<svg width="98" height="82" xmlns="http://www.w3.org/2000/svg"><path d="M73.486 56.041c-2.092-.263-7.35-1.592-9.173-3.335-.427-.408-.848-.801-1.467-.86-3.25-.303-13.547 8.42-19.958 7.206.104-.351.208-.703.31-1.054.675-.458 1.047-1.116 1.347-1.885C56.371 58.247 63.1 30.698 58.934 23.23c-.14-.252-.695-.469-.956-.293-7.868 5.32-12.059 21.606-15.917 34.768a3.798 3.798 0 0 1-1.442.362 5.521 5.521 0 0 1-.545-.483c.352-.494.659-1.02.915-1.572.15-.314-.739-.607-.922-.358-.25.34-.499.682-.745 1.025a11.16 11.16 0 0 1-1.184-2.252c-.112-.28-1.076-.521-1.02-.075.188 1.5.286 3.002.327 4.505a8.888 8.888 0 0 1-2.246.774c.1-.284.183-.572.265-.86a6.973 6.973 0 0 0 .856-2.046c.086-.336-.71-.595-.895-.347-.532.711-.766 1.527-1.022 2.348a3.832 3.832 0 0 1-2.16 1.372c.44-.954.735-1.967.876-3.008.118-.844-2.82-.265-3.354.318-.336.366-.283.971-.872 2.96-.157.533 1.261.532 1.813.535-1.372 1.946-3.278 2.562-4.363 2.278.905-1.61 2.12-4.275 2.148-6.163.004-.271-.508-.394-.698-.394-1.655 0-1.274-.133-2.218 1.241-1.21 1.762-2.059 4.043-.359 5.35-2.26 3.428-5.493 5.342-7.008 2.631.601-4.67.863-6.451.863-6.451a22.924 22.924 0 0 1 2.653-4.13c1.734-1.054 3.296-2.066 4.523-3.145.278-.244-.444-.485-.582-.482-1.938.047-3.606 1.678-4.854 3.262-.443.257-.886.51-1.33.76.279-2.987.369-4.746.763-9.135 8.944-10.381 16.66-22.627 19.624-36.073.662-3.004 1.62-8.44-2.1-9.913-13.645-5.405-17.01 31.296-18.33 45.86A153.14 153.14 0 0 1 4.58 61.543c-.084.073.173.184.25.12a131.595 131.595 0 0 0 14.503-14.09c-.273 3.039-.548 6.197-.784 8.615C9.036 61.577-.825 66.894.055 74.6c.41 3.59 3.387 6.297 6.782 7.135 7.843 1.935 10.18-7.14 11.246-14.944 1.523 1.265 4.942 1.885 7.978-3.128 1.92.667 4.44-.596 5.782-2.82a5.886 5.886 0 0 0 2.11-.635c.439.605 2.957-.367 3.508-.6.066 4.104-.248 8.215-.282 12.323-.003.324.785.506.926.21 1.928-4 3.329-8.229 4.605-12.492 6.612 1.55 14.365-5.677 19.851-7.114.947-.248.572.847 3.39 2.1 9.564 4.25 15.872 1.718 24.371.802 13.805-1.487 1.806 9.388-7.463 19.67-.157.174.372.396.51.242 2.97-3.294 8.747-8.045 12.476-13.199 9.441-13.046-14.747-5.153-22.36-6.11zM33.606 1.053c12.384-4.545 4.966 22.475-13.253 44.264C21.577 31.975 24.21 4.5 33.605 1.053zm-13.95 55.433c-.1.148-.2.299-.3.452l.03-.297.27-.155zM9.872 81.265C5.337 82.436-.995 77.563 1.429 71.034c2.186-5.888 11.514-10.737 17.023-13.86a219.19 219.19 0 0 1-.17 1.608c-1.05 2.048-2.094 5.257-.926 7.17-.83 5.502-2.075 13.915-7.485 15.313zm17.253-24.008h.32c-.118 1.846-.865 3.729-1.861 5.38-1.375-2.075 1.969-5.38 1.541-5.38zm2.916 3.007c.672-2.44.204-2.637 2.027-2.905a8.783 8.783 0 0 1-.96 2.904c-.355.02-.711.02-1.067.001zm28.2-36.296c3.258 7.763-3.183 32.855-13.488 31.572.14-.418.418-.992-.463-1.293 2.558-8.778 6.91-24.882 13.952-30.279zm-16.427 34.58l-.052.174c-.132-.054-.177-.076-.27-.12.108-.015.215-.033.322-.055zm-3.398-.603c-.014-.42-.032-.84-.057-1.26.16.221.327.433.504.635l-.447.625zm-.277 11.767c.089-3.53.349-7.067.304-10.595a5.06 5.06 0 0 0 .612-.434c.441.003.909.014 1.379.002.367.238.755.441 1.16.608-1.337 4.493-2.288 7.588-3.455 10.42z" fill="#231F20"/></svg>