<svg xmlns="http://www.w3.org/2000/svg" width="56" height="77" viewBox="0 0 56 77"><g><g><path fill="#e50303" d="M33.54 39.333h2.827c.718 0 1.3.597 1.3 1.334 0 .736-.582 1.333-1.3 1.333H17.3c-.718 0-1.3-.597-1.3-1.333 0-.737.582-1.334 1.3-1.334h2.827a10.316 10.316 0 0 1-3.26-7.555v-4.445c0-.736.582-1.333 1.3-1.333h19.066C39.862 26 42 28.193 42 30.889c0 2.694-2.137 4.887-4.763 4.889h-1.232a10.269 10.269 0 0 1-2.465 3.555zm3.175-6.222h.518c1.195 0 2.167-.997 2.167-2.222s-.972-2.222-2.167-2.222H36.8v3.11c0 .453-.03.898-.085 1.334zM34 22.625c0 .76-.672 1.375-1.5 1.375s-1.5-.616-1.5-1.375c0-.773-.325-1.104-1.06-1.778-.82-.75-1.94-1.778-1.94-3.722s1.12-2.972 1.94-3.722a1.598 1.598 0 0 1 2.12 0 1.295 1.295 0 0 1 0 1.944c-.735.675-1.06 1.005-1.06 1.778 0 .773.325 1.103 1.06 1.778.819.75 1.94 1.777 1.94 3.722zm-7 0c0 .76-.672 1.375-1.5 1.375s-1.5-.616-1.5-1.375c0-.773-.325-1.104-1.06-1.778-.82-.75-1.94-1.778-1.94-3.722 0-1.945 1.12-2.972 1.94-3.722a1.598 1.598 0 0 1 2.12 0 1.295 1.295 0 0 1 0 1.944c-.735.675-1.06 1.005-1.06 1.778 0 .773.325 1.103 1.06 1.778.819.75 1.94 1.777 1.94 3.722zM28 0C12.56 0 0 12.51 0 27.886 0 46.97 25.057 74.984 26.124 76.167a2.529 2.529 0 0 0 3.752 0C30.943 74.984 56 46.97 56 27.887 56 12.51 43.44 0 28 0z"/></g></g></svg>