<svg xmlns="http://www.w3.org/2000/svg" viewBox="0 0 169.26 186.97"><defs><style>.cls-1{fill:#d25400}.cls-2{fill:#1c100b}</style></defs><g id="Layer_2" data-name="Layer 2"><g id="Objects"><path class="cls-1" d="M22.24 163.4H1.44v-7.82H4.3v-21.47H1.44v-7.82h21.42a21.44 21.44 0 0 1 5.27.6 9.94 9.94 0 0 1 4 1.93 8.73 8.73 0 0 1 2.51 3.48 15.86 15.86 0 0 1 0 10.42 8.73 8.73 0 0 1-2.51 3.46 10.08 10.08 0 0 1-4 1.94 22 22 0 0 1-5.27.59h-5.2v6.87h4.58zm-3-21.46a2.77 2.77 0 0 0 2-.72 3.2 3.2 0 0 0 .72-2.34v-1.71a3.3 3.3 0 0 0-.7-2.34 2.74 2.74 0 0 0-2.07-.72h-1.53v7.83zm30.09 13.64h2.87l-.82-3.77h-6.44l-.76 3.77H47v7.82H30.73v-7.82h1.91l8.06-29.29h17.36l8.07 29.29H68v7.82H49.33zM46 146.75h4.39l-2-9.54H48zm37.25 8.12a3.94 3.94 0 0 0 2.24-.48 1.64 1.64 0 0 0 .67-1.43 1.52 1.52 0 0 0-.55-1.17 7.89 7.89 0 0 0-2.21-1.17q-3.54-1.34-6.18-2.55a18.74 18.74 0 0 1-4.39-2.7 9.36 9.36 0 0 1-2.6-3.46 12 12 0 0 1-.86-4.79 13.2 13.2 0 0 1 .83-4.8 8.71 8.71 0 0 1 2.72-3.62 13.09 13.09 0 0 1 5-2.29 31.85 31.85 0 0 1 7.71-.79 35 35 0 0 1 7.82.84 22.32 22.32 0 0 1 6.11 2.21v8.54h-10a2.1 2.1 0 0 0-.76-1.88 3.36 3.36 0 0 0-1.87-.5 4.72 4.72 0 0 0-2.26.4 1.5 1.5 0 0 0-.69 1.41 1.24 1.24 0 0 0 .74 1.19 14 14 0 0 0 2.21.86c1.85.61 3.59 1.24 5.23 1.91a17.75 17.75 0 0 1 4.32 2.48 10.9 10.9 0 0 1 2.93 3.58 11.18 11.18 0 0 1 1.07 5.15q0 6.21-4 9.23t-11.74 3a45.37 45.37 0 0 1-8.44-.76 31.5 31.5 0 0 1-6.49-1.81v-9.45h10.48a3.29 3.29 0 0 0 .58 2.12 3.05 3.05 0 0 0 2.38.73zm18.56-28.58h35.87v11.59h-8.2v-3.77h-3.06v21.47h3.34v7.82h-20v-7.82h3.34v-21.47H110v3.77h-8.2z"/><path class="cls-1" d="M150.56 155.58h2.87l-.82-3.77h-6.44l-.76 3.77h2.86v7.82H132v-7.82h1.91l8.06-29.29h17.36l8.07 29.29h1.9v7.82h-18.7zm-3.34-8.83h4.39l-2-9.54h-.48z"/><path class="cls-2" d="M31.45 100.12a19.08 19.08 0 0 0 19.08 19.08h80.81a19.08 19.08 0 0 0 19.08-19.08zM64.11 33a13.7 13.7 0 0 1 5.5 1.15A13.59 13.59 0 0 0 75 35.28h.69V50.2h.51a44.73 44.73 0 0 1 6.48.48V3.46A3.3 3.3 0 0 0 82.37 2a3.47 3.47 0 0 0-6.5.5 3.46 3.46 0 0 0-.16 1v2.35L68.3 10.1a13.44 13.44 0 0 0-6.68 10.11A13.81 13.81 0 0 1 53.87 31l-50 23.87A6.71 6.71 0 0 0 5.2 67.49a6.48 6.48 0 0 0 1.51.17 6.69 6.69 0 0 0 3.77-1.15l45.89-31.13A13.81 13.81 0 0 1 64.11 33zm8.75-18.71l2.85-1.64v5.18l-.62.36a2.25 2.25 0 1 1-2.23-3.9z"/><path class="cls-2" d="M93.55 29.94v30.42a39.08 39.08 0 0 0-56.43 35h7a32.11 32.11 0 0 1 64.22 0h7a39.06 39.06 0 0 0-14.78-30.59v-7.5a45.64 45.64 0 0 1 7.64 6.13 32.16 32.16 0 0 1 29 32h7a39 39 0 0 0-43.61-38.83V7.71a3.47 3.47 0 0 0-2.86-3.39 3.2 3.2 0 0 0-.73-.07 3.49 3.49 0 0 0-3.44 3.35L89.4 10v7.1l4.15-2.37v5.18l-4.15 2.37v6.8l4.15-2.38z"/><path class="cls-2" d="M114.2 70.92a44.75 44.75 0 0 1 5.52 12.2 19 19 0 0 1 4.48 12.28h7a26.17 26.17 0 0 0-17-24.48zM98.1 95.4h4.26a26.14 26.14 0 0 0-52.28 0h7a19.15 19.15 0 0 1 38.3 0z"/><path class="cls-2" d="M76.22 81.45a14 14 0 0 0-13.94 14h7a7 7 0 1 1 13.9 0h7a14 14 0 0 0-13.96-14zM37.68 186.81h-3a1.27 1.27 0 0 1-1.19-.62l-2.36-4.13a1.22 1.22 0 0 0-.37-.38 1.18 1.18 0 0 0-.59-.12h-.84v5.25h-3.27V172.6h4.62a9.55 9.55 0 0 1 2.63.32 5.06 5.06 0 0 1 1.77.88 3.4 3.4 0 0 1 1 1.34 4.37 4.37 0 0 1 .31 1.68 4.59 4.59 0 0 1-.18 1.3 4.29 4.29 0 0 1-.55 1.14 4.12 4.12 0 0 1-.89.93 4.62 4.62 0 0 1-1.22.67 3 3 0 0 1 .6.42 2.68 2.68 0 0 1 .51.59zm-7-7.53a3.28 3.28 0 0 0 1.15-.17 2 2 0 0 0 .77-.47 1.81 1.81 0 0 0 .44-.71 2.74 2.74 0 0 0 .14-.87 1.85 1.85 0 0 0-.61-1.46 2.86 2.86 0 0 0-1.89-.53h-1.33v4.21zm11.51-4.14v3.32h4.47v2.43h-4.47v3.39H48v2.53h-9.12V172.6H48v2.54zm15.71.35a1.21 1.21 0 0 1-.31.35.65.65 0 0 1-.41.12 1 1 0 0 1-.48-.14l-.59-.32a5.14 5.14 0 0 0-.74-.32 3.13 3.13 0 0 0-1-.14 2 2 0 0 0-1.38.4 1.34 1.34 0 0 0-.45 1.06 1 1 0 0 0 .27.72 2.16 2.16 0 0 0 .72.48 6.49 6.49 0 0 0 1 .38c.38.11.77.24 1.17.38a10.59 10.59 0 0 1 1.16.49 4.09 4.09 0 0 1 1 .72 3.51 3.51 0 0 1 .71 1.07 3.85 3.85 0 0 1 .28 1.52 4.9 4.9 0 0 1-.35 1.84 4.18 4.18 0 0 1-1 1.5 4.59 4.59 0 0 1-1.59 1 6.11 6.11 0 0 1-2.16.37 6.88 6.88 0 0 1-1.35-.14 8.58 8.58 0 0 1-1.34-.38 8.92 8.92 0 0 1-1.2-.59 5.21 5.21 0 0 1-1-.77l1-1.54a.87.87 0 0 1 .3-.27.79.79 0 0 1 .42-.12 1.17 1.17 0 0 1 .59.19l.67.41a6.28 6.28 0 0 0 .86.41 3.35 3.35 0 0 0 1.15.18 2.22 2.22 0 0 0 1.4-.39 1.5 1.5 0 0 0 .5-1.25 1.17 1.17 0 0 0-.28-.81 2.14 2.14 0 0 0-.71-.52 6.27 6.27 0 0 0-1-.36c-.38-.1-.77-.22-1.16-.35a7.78 7.78 0 0 1-1.16-.46 3.51 3.51 0 0 1-1-.74 3.32 3.32 0 0 1-.72-1.13 4.53 4.53 0 0 1-.27-1.67 3.89 3.89 0 0 1 .32-1.56 4.05 4.05 0 0 1 .94-1.36 4.84 4.84 0 0 1 1.54-.95 5.76 5.76 0 0 1 2.07-.35 7.51 7.51 0 0 1 1.27.1 7 7 0 0 1 1.18.3 7.64 7.64 0 0 1 1 .48 5.16 5.16 0 0 1 .86.63zm13.16-.27h-4v11.59h-3.3v-11.59h-4v-2.62h11.3zm13.03 11.59h-2.56a1.15 1.15 0 0 1-.69-.2 1.27 1.27 0 0 1-.4-.51l-.84-2.48h-5.4l-.84 2.48a1.17 1.17 0 0 1-.38.49 1.06 1.06 0 0 1-.69.22h-2.57l5.5-14.21h3.37zm-5.24-5.43l-1.31-3.89c-.1-.25-.2-.54-.31-.87s-.23-.7-.34-1.09c-.09.4-.2.76-.31 1.1s-.21.63-.31.88L75 181.38zm11.92 2.83A3.1 3.1 0 0 0 92 184a2.57 2.57 0 0 0 .89-.63 2.84 2.84 0 0 0 .55-1 4.56 4.56 0 0 0 .19-1.34v-8.43h3.29v8.4a6.65 6.65 0 0 1-.42 2.4 5.45 5.45 0 0 1-1.22 1.88 5.29 5.29 0 0 1-1.92 1.23 7 7 0 0 1-2.54.44 7.12 7.12 0 0 1-2.56-.44 5.3 5.3 0 0 1-3.13-3.11 6.65 6.65 0 0 1-.42-2.4v-8.4H88v8.4a4.25 4.25 0 0 0 .19 1.34 2.84 2.84 0 0 0 .55 1 2.44 2.44 0 0 0 .88.64 3.19 3.19 0 0 0 1.15.23zm20.3 2.6h-3a1.26 1.26 0 0 1-1.18-.62l-2.37-4.13a1.12 1.12 0 0 0-.37-.38 1.14 1.14 0 0 0-.58-.12h-.84v5.25h-3.28V172.6h4.62a9.6 9.6 0 0 1 2.63.32 5.06 5.06 0 0 1 1.77.88 3.4 3.4 0 0 1 1 1.34 4.37 4.37 0 0 1 .31 1.68 4.59 4.59 0 0 1-.18 1.3 4.29 4.29 0 0 1-.55 1.14 4.12 4.12 0 0 1-.89.93 4.68 4.68 0 0 1-1.23.67 2.76 2.76 0 0 1 .61.42 2.68 2.68 0 0 1 .51.59zm-7-7.53a3.18 3.18 0 0 0 1.14-.17 2 2 0 0 0 .78-.47 1.81 1.81 0 0 0 .44-.71 2.73 2.73 0 0 0 .13-.87 1.82 1.82 0 0 0-.61-1.46 2.81 2.81 0 0 0-1.88-.53h-1.33v4.21z"/><path class="cls-2" d="M125 186.81h-2.56a1.15 1.15 0 0 1-.69-.2 1.27 1.27 0 0 1-.4-.51l-.84-2.48h-5.4l-.84 2.48a1.17 1.17 0 0 1-.38.49 1.06 1.06 0 0 1-.69.22h-2.57l5.5-14.21h3.37zm-5.24-5.43l-1.31-3.89c-.1-.25-.2-.54-.31-.87s-.23-.7-.34-1.09c-.09.4-.2.76-.31 1.1s-.21.63-.31.88l-1.31 3.87zm18.77-8.78v14.21h-1.71a1.29 1.29 0 0 1-1.15-.55l-6.7-8.47c0 .25 0 .5.05.74s0 .46 0 .67v7.61h-2.91V172.6h2.1a1.12 1.12 0 0 1 .26.08.75.75 0 0 1 .23.15 2.15 2.15 0 0 1 .24.26l6.76 8.53a7.23 7.23 0 0 1-.07-.79v-8.23zm12.96 2.62h-4v11.59h-3.29v-11.59h-4v-2.62h11.29z"/></g></g></svg>