<svg xmlns="http://www.w3.org/2000/svg" viewBox="0 0 227.06 148.21"><defs><style>.cls-1{fill:#1c100b}</style></defs><g id="Layer_2" data-name="Layer 2"><g id="Objects"><path class="cls-1" d="M63.63 119.55a10.3 10.3 0 1 0 14.52 14.52l28.55-33.22-9.06-10.53zM194 26.72a4.67 4.67 0 0 0-6.6 0L166 48.19a3.45 3.45 0 0 1-4.87-4.88L182.5 21.9a4.74 4.74 0 1 0-6.7-6.7l-21.41 21.41a3.45 3.45 0 0 1-4.88-4.87l21.37-21.37a4.8 4.8 0 0 0 0-6.8 4.24 4.24 0 0 0-6 0l-23.8 23.81A20.63 20.63 0 0 0 135.26 45a21.11 21.11 0 0 1-7.14 19.1L119 72l7.21 6.19 7.39-8.59a21.15 21.15 0 0 1 19.1-7.14 20.63 20.63 0 0 0 17.64-5.83L194 32.91a4.38 4.38 0 0 0 0-6.19z"/><path class="cls-1" d="M161.12 119.55L96.63 64.12A21.15 21.15 0 0 1 89.49 45a20.6 20.6 0 0 0-5.83-17.64c-6.2-6.21-22.56-14.84-33.47-14.84-3.28 0-6.07.79-7.94 2.66-8.07 8.07 4.11 33.34 12.18 41.41a20.71 20.71 0 0 0 17.64 5.83 21.39 21.39 0 0 1 3.08-.23 21.11 21.11 0 0 1 16 7.37l55.43 64.49a10.28 10.28 0 0 0 7.42 3.57h.39a10.29 10.29 0 0 0 6.71-18.1zM13.32 86.72a7.52 7.52 0 0 1-1.45 4.77 5.24 5.24 0 0 1-2.77 1.9 7.55 7.55 0 0 1-2.24.3 6.28 6.28 0 0 1-3.92-1.18A6.59 6.59 0 0 1 .88 89.9 10.71 10.71 0 0 1 0 86.12l3.84-.28a5.86 5.86 0 0 0 1.23 3.39 2.05 2.05 0 0 0 1.66.77 2.49 2.49 0 0 0 2.11-1.3 3.26 3.26 0 0 0 .41-1.77 4.94 4.94 0 0 0-1.52-3.33l-3.58-3.39a15.35 15.35 0 0 1-2.83-3.48A8 8 0 0 1 .43 73a6.5 6.5 0 0 1 2.45-5.52 6 6 0 0 1 3.75-1.13 6.79 6.79 0 0 1 3.68 1 5.47 5.47 0 0 1 1.93 2.08 7.62 7.62 0 0 1 .88 3.09l-3.85.71a4.7 4.7 0 0 0-.94-2.56 2 2 0 0 0-1.6-.67 1.84 1.84 0 0 0-1.68 1 3.82 3.82 0 0 0-.47 2 5.91 5.91 0 0 0 1.58 3.73A13.17 13.17 0 0 0 8 78.32c.89.78 1.5 1.33 1.8 1.68a13.76 13.76 0 0 1 2.3 2.94 12 12 0 0 1 .62 1.26 7.57 7.57 0 0 1 .6 2.52zM23 66.67a6.17 6.17 0 0 1 4.69 1.85A6.44 6.44 0 0 1 29.32 73v3.88a6.2 6.2 0 0 1-1.85 4.51A6 6 0 0 1 23 83.31h-2.31v10.06h-4v-26.7zm2.41 6.43a2.3 2.3 0 0 0-.63-1.68 2.23 2.23 0 0 0-1.67-.64h-2.42v8.54h2.43a2.18 2.18 0 0 0 1.63-.68 2.27 2.27 0 0 0 .67-1.64zm13.05-6.77a6.37 6.37 0 0 1 6.39 6.39v14.57a6.38 6.38 0 1 1-12.76 0V72.72a6.37 6.37 0 0 1 6.37-6.39zm2.19 6.3A2.23 2.23 0 0 0 40 71a2.25 2.25 0 0 0-1.63-.67 2.29 2.29 0 0 0-1.64.67 2.24 2.24 0 0 0-.73 1.63v14.62a2.22 2.22 0 0 0 .68 1.63 2.25 2.25 0 0 0 1.64.67 2.29 2.29 0 0 0 2.3-2.3zm14.04-6.3a6.14 6.14 0 0 1 4.53 1.87 6.2 6.2 0 0 1 1.87 4.52v14.57a6.39 6.39 0 1 1-12.77 0V72.72a6.38 6.38 0 0 1 6.37-6.39zm2.2 6.3A2.31 2.31 0 0 0 53 71a2.21 2.21 0 0 0-.69 1.63v14.62a2.19 2.19 0 0 0 .69 1.63 2.23 2.23 0 0 0 1.64.67 2.21 2.21 0 0 0 1.63-.67 2.25 2.25 0 0 0 .67-1.63z"/><path class="cls-1" d="M69.14 66.65l5.35 17.95V66.65h4v26.72h-4.3l-5.54-17.11v17.11h-4V66.65zM159.7 80.8a26.72 26.72 0 0 1-2.6 7.2 4.38 4.38 0 0 0 2.71 1.42v3.73A7.6 7.6 0 0 1 155 91a7 7 0 0 1-5.11 2.52 5.39 5.39 0 0 1-4.82-2.6 6.91 6.91 0 0 1-1-3.75 10.49 10.49 0 0 1 1-4.31c.12-.24.49-.89 1.13-2 .36-.57.71-1.11 1.07-1.64l-.83-1.89c-.4-.88-.67-1.51-.81-1.88a10.66 10.66 0 0 1-.6-2 9.35 9.35 0 0 1-.19-1.87 6.89 6.89 0 0 1 .79-3.29A5.29 5.29 0 0 1 147.9 66a5.51 5.51 0 0 1 2.68-.66 5.7 5.7 0 0 1 3 .82 5.46 5.46 0 0 1 2.09 2.27 5.69 5.69 0 0 1 .57 2.53 7.35 7.35 0 0 1-1.68 4.58l-.88 1.13c-.79 1-1.52 2-2.19 2.92a38.07 38.07 0 0 0 3 5.22 25.18 25.18 0 0 0 1.57-4.81zm-9.84 9a3.71 3.71 0 0 0 2.58-1.53 37.35 37.35 0 0 1-3.3-5.16c-.26.42-.52.87-.77 1.32a6.82 6.82 0 0 0-.64 2.73 3.07 3.07 0 0 0 .49 1.81 1.88 1.88 0 0 0 1.64.86zm-1.39-18.18a13.1 13.1 0 0 0 1.24 4.14l.51-.64.53-.7.86-1.13a3.93 3.93 0 0 0 .93-2.31 2.8 2.8 0 0 0-.21-1.21 1.79 1.79 0 0 0-3.39-.21 4.38 4.38 0 0 0-.47 2.09zm20.91 21.75h-4V66.65h11.46v4h-7.43V78h5.43v4h-5.43zM186 66.33a6.37 6.37 0 0 1 6.39 6.39v14.57a6.14 6.14 0 0 1-1.87 4.53 6.2 6.2 0 0 1-4.52 1.87 6.1 6.1 0 0 1-4.51-1.88 6.19 6.19 0 0 1-1.86-4.52V72.72a6.38 6.38 0 0 1 6.37-6.39zm2.2 6.3a2.31 2.31 0 0 0-3.99-1.63 2.21 2.21 0 0 0-.69 1.63v14.62a2.19 2.19 0 0 0 .69 1.63 2.23 2.23 0 0 0 1.64.67 2.21 2.21 0 0 0 1.63-.67 2.25 2.25 0 0 0 .67-1.63zm14.05-5.96c2.25 0 3.89.62 4.94 1.85a6.71 6.71 0 0 1 1.39 4.48v3.88a6.25 6.25 0 0 1-2.15 4.79l3 11.66h-4.35l-2.45-10.06h-2.68v10.1h-4v-26.7zm2.41 6.43a2 2 0 0 0-2.3-2.32h-2.43v8.54h2.43a2.18 2.18 0 0 0 1.63-.68 2.23 2.23 0 0 0 .67-1.64zm12.23 11.8v8.47h-4V66.65h4v9.52l4.92-9.52h4.29l-5.51 10.9 6.47 15.82h-4.74l-4.23-10.85zM111.45 0l2.4 5.91 6.36.46-4.88 4.1 1.54 6.19-5.42-3.37-5.41 3.37 1.53-6.19-4.88-4.1 6.36-.46 2.4-5.91zM91.71 0l2.4 5.91 6.36.46-4.87 4.1 1.53 6.19-5.42-3.37-5.41 3.37 1.53-6.19-4.88-4.1 6.36-.46L91.71 0zm39.48 0l2.4 5.91 6.36.46-4.88 4.1 1.54 6.19-5.42-3.37-5.41 3.37 1.53-6.19-4.88-4.1 6.36-.46 2.4-5.91zM94.33 136.63L92 137.85l-.34-1.34 2.87-1.51H96v13h-1.7zm6.28 8.06a3.71 3.71 0 0 1 2.58-3.48v-.06a3.22 3.22 0 0 1-2.06-2.92c0-2.06 1.74-3.46 4-3.46 2.52 0 3.78 1.58 3.78 3.2a3.3 3.3 0 0 1-2.14 3v.06a3.6 3.6 0 0 1 2.62 3.36c0 2.26-1.94 3.78-4.42 3.78-2.72.04-4.36-1.58-4.36-3.48zm7-.08c0-1.58-1.1-2.34-2.86-2.84a2.82 2.82 0 0 0-2.34 2.68 2.4 2.4 0 0 0 2.6 2.48 2.35 2.35 0 0 0 2.6-2.32zm-4.84-6.5c0 1.3 1 2 2.48 2.4a2.56 2.56 0 0 0 2-2.36A2 2 0 0 0 105 136a2.07 2.07 0 0 0-2.23 2.11zm9.28 8.64a7.34 7.34 0 0 0 1.42-.06 4.9 4.9 0 0 0 2.72-1.26 5.71 5.71 0 0 0 1.72-3.46h-.06a3.82 3.82 0 0 1-3.06 1.4 3.77 3.77 0 0 1-3.84-4 4.46 4.46 0 0 1 4.44-4.62c2.66 0 4.3 2.16 4.3 5.48a8.21 8.21 0 0 1-2.24 6.1 6.5 6.5 0 0 1-3.78 1.74 8.2 8.2 0 0 1-1.62.1zm.64-7.48a2.5 2.5 0 0 0 2.5 2.76 2.91 2.91 0 0 0 2.56-1.36 1.16 1.16 0 0 0 .16-.64c0-2.22-.82-3.92-2.66-3.92-1.5 0-2.56 1.32-2.56 3.16zm16.36-2.8h-5l-.5 3.34a7 7 0 0 1 1.06-.08 5.49 5.49 0 0 1 2.8.7 3.71 3.71 0 0 1 1.86 3.34 4.51 4.51 0 0 1-4.84 4.44 6.36 6.36 0 0 1-3.24-.8l.44-1.34a5.82 5.82 0 0 0 2.78.72 2.87 2.87 0 0 0 3.08-2.82c0-1.68-1.14-2.88-3.74-2.88a13.45 13.45 0 0 0-1.8.14l.84-6.24h6.22z"/></g></g></svg>