<svg xmlns="http://www.w3.org/2000/svg" viewBox="0 0 158.1 233.47"><defs><style>.cls-1,.cls-5{fill:#231f20;}.cls-2,.cls-4{fill:#fff;}.cls-3{fill:none;stroke:#fff;}.cls-4,.cls-5{fill-rule:evenodd;}</style></defs><title>Asset 1</title><g id="Layer_2" data-name="Layer 2"><g id="Layer_1-2" data-name="Layer 1"><path class="cls-1" d="M79.05,75.37a79.05,79.05,0,1,1-79,79A79,79,0,0,1,79.05,75.37Z"/><path class="cls-1" d="M64.89,76.67c3.55-1,9-2.41,9-5.06,0-22.17-4-33.27-4-44.12C69.92,7.1,75,0,79.08,0s9.17,7.31,9.17,27.49c0,10.85-4,21.74-4,44.12,0,2.65,5.47,4.09,9,5.06M79.09,9.22c-4.86,14,0,27.62,0,27.62S84.36,23.4,79.09,9.22Z"/><path class="cls-2" d="M67.88,102.67a51.51,51.51,0,0,0-2.42,7.75q-1.5,5.83-3.06,8a4.91,4.91,0,0,1-3.7,2.3,3.33,3.33,0,0,1-.64,0l-.61,0a9.56,9.56,0,0,1-1.18-.4L55.39,122a5.08,5.08,0,0,0,3.06.84,8.76,8.76,0,0,0,6.72-4,31,31,0,0,0,4.39-10.72q1.68-7,4.33-9.88A10.65,10.65,0,0,0,78.31,97c1.26-.69,1.86-1.4,1.82-2.14,0-.51-.25-.76-.65-.73a4.39,4.39,0,0,0-.72.21,9.8,9.8,0,0,1-3.34.78c-1.23.08-2.9.13-5,.15s-3.35,0-3.69.06q-6.25.39-9.75,3.16c-2.33,1.83-3.43,3.88-3.28,6.13a3.65,3.65,0,0,0,1.37,2.71,4.1,4.1,0,0,0,2.94.93,7.47,7.47,0,0,0,3.29-1,10.06,10.06,0,0,0,2.85-2.41l-.71-1.07a9.12,9.12,0,0,1-4.06,1.71A3.59,3.59,0,0,1,57,105a2.17,2.17,0,0,1-.91-1.68q-.26-4.11,9.11-4.71l6.13-.26a17.23,17.23,0,0,0-3.4,4.37"/><path class="cls-2" d="M88.53,119.1A1,1,0,0,1,87.29,118,16.29,16.29,0,0,1,88.57,113a15.73,15.73,0,0,0,1.26-5.15c-.09-1.51-1.2-2.2-3.31-2.07-1.17.08-2.5.86-4,2.36a34.37,34.37,0,0,0-5.19,7.9q.83-3.89,2.6-9.84a98.75,98.75,0,0,1,4.63-12.78l-2.14-.55c-5.48,12.89-7.52,20.36-8.53,27.9l2.59.73a32,32,0,0,1,4-8.18q2.5-3.57,4.09-3.68c1-.06,1.61.32,1.66,1.14a15.14,15.14,0,0,1-1,4.17,14.34,14.34,0,0,0-.93,4.59A2.17,2.17,0,0,0,87,121.86q2.86-.18,4.47-3.29l-1-.75a4.22,4.22,0,0,1-1.93,1.28"/><path class="cls-2" d="M96.26,109c1.45-1.77,2.84-2.7,4.19-2.79a1.38,1.38,0,0,1,1,.37,1.37,1.37,0,0,1,.49,1c.06,1-.7,2.15-2.27,3.45a23.09,23.09,0,0,1-5.76,3.38A9.33,9.33,0,0,1,96.26,109m1,8.55a2.9,2.9,0,0,1-1.71-.45,3.2,3.2,0,0,1-1.29-1.47,29.51,29.51,0,0,0,8.09-4.81q2.82-2.53,2.68-4.85c-.1-1.49-1.09-2.17-3-2-2.86.19-5.59,1.63-8.21,4.35s-3.85,5.39-3.68,8a4.5,4.5,0,0,0,1.54,3.3,4.86,4.86,0,0,0,3.59,1.06,9.61,9.61,0,0,0,4.42-1.51,10.37,10.37,0,0,0,3.44-3.29l-1-.71c-2,1.54-3.65,2.34-4.87,2.42"/><path class="cls-3" d="M144.62,123.57a72.47,72.47,0,0,0-131.14,0"/><rect class="cls-2" x="11.83" y="121.92" width="3.3" height="3.3" transform="translate(-104.06 83.12) rotate(-64.78)"/><rect class="cls-2" x="142.97" y="121.92" width="3.3" height="3.3" transform="translate(-38.87 73.39) rotate(-25.22)"/><path class="cls-2" d="M16.13,176.93l1.24,2.89a2.56,2.56,0,0,1,.15,1.93,1.56,1.56,0,0,1-.89.89h0a1.65,1.65,0,0,1-1.83-.31,1.73,1.73,0,0,1-1,1.95h0c-1.15.49-2.17-.19-2.79-1.63l-1.27-3Zm-2.43,4.48-.77-1.79-1.76.76.8,1.87c.33.77.84,1.11,1.42.87h0C14,182.88,14.08,182.31,13.7,181.41Zm2.27.18c.5-.22.64-.76.33-1.48l-.7-1.63-1.71.73.66,1.55c.31.72.81,1.09,1.4.84Z"/><path class="cls-2" d="M19,183.42l1.53,2.72a2.83,2.83,0,0,1,.38,2.1,2.13,2.13,0,0,1-1,1.25h0a2.1,2.1,0,0,1-2.66-.41L15.81,192l-.72-1.27,1.29-2.69-.76-1.34-2.12,1.19-.61-1.07Zm-1.54,4.34c.43.77,1.11,1,1.73.68h0c.66-.37.75-1,.31-1.83L18.62,185l-2.05,1.15Z"/><path class="cls-2" d="M22.57,189.58l3,4.24-.89.63-2.29-3.23-1.48,1.05,2,2.86-.9.64-2-2.87L18.46,194l2.32,3.27-.9.64-3-4.28Z"/><path class="cls-2" d="M28.1,196.74l.76.86-3.25,7-.86-1,.8-1.65-2.19-2.48-1.75.58-.83-1Zm-2,4.15,1.29-2.76-2.89,1Z"/><path class="cls-2" d="M31.65,200.67l.91.82L30.2,204.1l4.83-.37,1.13,1L32,205l-.41,5-1.12-1,.35-3.94-1.56.1-1.37,1.5-.91-.82Z"/><path class="cls-2" d="M37,205.39l4.2,3.09-.67.9L37.36,207l-1.13,1.53,2.84,2.09-.66.91-2.85-2.09-1.69,2.29-1-.73Z"/><path class="cls-2" d="M43.76,210l1,.58-1,7.64-1.12-.67.26-1.81L40.06,214l-1.48,1.08-1.08-.64Zm-.68,4.57.39-3L41,213.29Z"/><path class="cls-2" d="M45.3,217.78l1-.49A3.2,3.2,0,0,0,48,219c.69.32,1.28.2,1.5-.27v0c.21-.46.07-.82-1-1.64s-1.78-1.7-1.24-2.87v0a2.14,2.14,0,0,1,3-.84,3.91,3.91,0,0,1,1.94,1.86l-1,.57a3.17,3.17,0,0,0-1.42-1.45c-.66-.3-1.19-.14-1.39.28h0c-.23.49,0,.85,1.05,1.7s1.66,1.75,1.17,2.8v0c-.55,1.19-1.82,1.47-3.15.85A4.34,4.34,0,0,1,45.3,217.78Z"/><path class="cls-2" d="M55.1,216.72,53,216l.37-1.08,5.36,1.89-.38,1.08-2.09-.74-2,5.52-1.17-.41Z"/><path class="cls-2" d="M63.33,222.3v0a1.42,1.42,0,0,1,2.77.58v0a1.42,1.42,0,0,1-2.77-.58Z"/><path class="cls-2" d="M119.37,206.39l1-.77,3.67,4.59,2.87-2.3.7.88-3.84,3.06Z"/><path class="cls-2" d="M126.67,205.64l-2.81-2.89.88-.85,2.78,2.85a1.71,1.71,0,0,0,2.65.19,1.68,1.68,0,0,0-.09-2.62l-2.81-2.88.88-.86,2.77,2.84a2.79,2.79,0,0,1,0,4.35A2.75,2.75,0,0,1,126.67,205.64Z"/><path class="cls-2" d="M129.21,197.44l.72-.88,6.12.16-3.75-3.06.77-.94,5.41,4.43-.65.8-6.29-.17,3.85,3.15-.77.94Z"/><path class="cls-2" d="M136.83,193.52h0a3.53,3.53,0,0,1-1.09-5,3.61,3.61,0,0,1,2.4-1.71l.33,1.15a2.81,2.81,0,0,0-1.79,1.18,2.36,2.36,0,0,0,.83,3.28h0a2.36,2.36,0,0,0,3.33-.6,2.71,2.71,0,0,0,.33-2.18l1.1-.23a3.66,3.66,0,0,1-.49,3.06A3.53,3.53,0,0,1,136.83,193.52Z"/><path class="cls-2" d="M137.88,185.23l.55-1.1,2.61,1.29,1.48-3-2.61-1.29.55-1.11,6.27,3.11-.55,1.1-2.64-1.31-1.48,3,2.64,1.31-.55,1.1Z"/><path class="cls-2" d="M116.86,214.76v0a1.41,1.41,0,0,1,2.48-1.36v0a1.41,1.41,0,0,1-2.48,1.36Z"/><path class="cls-2" d="M70,219.18l3.13.34a2.5,2.5,0,0,1,1.75.81,1.54,1.54,0,0,1,.35,1.2v0A1.67,1.67,0,0,1,74.09,223a1.73,1.73,0,0,1,1.2,1.84v0c-.13,1.25-1.23,1.8-2.78,1.64l-3.22-.34Zm4,2.42c.06-.55-.34-.93-1.13-1l-1.76-.18-.19,1.85,1.67.17c.78.09,1.34-.17,1.41-.8Zm-1.25,1.89-1.94-.21-.2,1.91,2,.22c.84.08,1.38-.19,1.45-.82v0C74.14,224,73.71,223.59,72.75,223.49Z"/><path class="cls-2" d="M77.09,219.85h3.12a2.82,2.82,0,0,1,2,.7,2.12,2.12,0,0,1,.58,1.51v0a2.08,2.08,0,0,1-1.65,2.12l1.89,2.65H81.59l-1.72-2.44H78.33v2.44H77.1Zm3,3.46c.88,0,1.43-.46,1.43-1.17v0c0-.75-.54-1.16-1.45-1.16H78.32v2.35Z"/><path class="cls-2" d="M84.53,223.77l-.44-4,1.22-.13.44,4c.14,1.3.89,1.91,2,1.79a1.67,1.67,0,0,0,1.53-2.13l-.44-4L90,219.1l.44,4a3,3,0,1,1-6,.72Z"/><path class="cls-2" d="M91.56,218.85l1.11-.26,4.74,3.89-1.08-4.72,1.18-.27,1.56,6.83-1,.23-4.88-4,1.11,4.86-1.18.27Z"/><path class="cls-2" d="M100,220.44v0a3.54,3.54,0,0,1,2.2-4.61,3.63,3.63,0,0,1,2.94.12l-.44,1.12a2.81,2.81,0,0,0-2.13-.17,2.35,2.35,0,0,0-1.36,3.1h0a2.36,2.36,0,0,0,3,1.58,2.75,2.75,0,0,0,1.6-1.52l1,.49a3.6,3.6,0,0,1-2.27,2.11A3.51,3.51,0,0,1,100,220.44Z"/><path class="cls-2" d="M105.92,214.53,107,214l1.26,2.62,3-1.46L110,212.54l1.1-.53,3,6.3-1.11.54-1.28-2.66-3,1.45,1.28,2.66-1.11.53Z"/><path class="cls-4" d="M110.39,180.16a1.57,1.57,0,0,1,.15,1.29c-.83,1.79-10.91,5.18-13.94,6.44-11.46,4.78-23.54,8.23-34.14,14.24-1.5.84-7.81,4.49-9,4.32a3.28,3.28,0,0,1-2.15-2.59,2.4,2.4,0,0,1,.56-2.37l13.82-5.08C77.11,193,83.42,185.92,95,182.51,100.63,180.85,106.66,177.9,110.39,180.16Z"/><path class="cls-5" d="M50.29,185l.35-.42c1.5.66,10.2,4.36,11.13,4.11a.76.76,0,0,0,.11-.9l-10.75-4.62c0-.14.07-.27.11-.4l.22-.13,11,4.18.16-.1c0-.17.07-.34.11-.51l-10.81-5a.14.14,0,0,1,0-.07l.23-.29c1.23-.29,9.12,3.81,11.17,4.18.07-.23.15-.46.23-.68l-10.8-4.92.19-.43c1-.2,3.6,1.3,5,1.66l7.86,2.61a9.48,9.48,0,0,1,3.55,1.39c1.87,1.57,2.08,3.89,4.19,5.42l22.22,8.48L99,199.8c1.6.46,7.65,2.49,8.62,3.44a2.78,2.78,0,0,1,1,2.57c-.9,3.47-10.49-1.94-13.36-3.49l-13.86-6.55c-2-1.14-6.85-3.74-9-4.11s-3.8,1.08-5.85,1c-2.4-.1-9.86-4.15-12.48-5.69C53,186.3,51,185.87,50.29,185Z"/><path class="cls-4" d="M50.46,183.48l.34-.41c1.5.65,10.2,4.35,11.13,4.11a.77.77,0,0,0,.11-.91l-10.75-4.62c0-.13.07-.27.11-.4l.22-.13,11.05,4.19.16-.1c0-.18.07-.35.11-.52l-10.81-5a.19.19,0,0,0,0-.07c.08-.1.15-.2.23-.29,1.23-.29,9.12,3.8,11.17,4.18.07-.23.15-.46.23-.69L53,177.88c0-.15.12-.29.18-.43,1-.21,3.6,1.3,4.95,1.65l7.86,2.61a9.65,9.65,0,0,1,3.55,1.39c1.87,1.58,2.08,3.9,4.19,5.43L95.9,197l3.25,1.33c1.6.46,7.65,2.48,8.62,3.43a2.79,2.79,0,0,1,1,2.57c-.9,3.48-10.49-1.93-13.36-3.49L81.6,194.29c-2-1.14-6.85-3.74-9-4.1s-3.81,1.07-5.86,1c-2.4-.1-9.86-4.15-12.47-5.7C53.13,184.82,51.12,184.39,50.46,183.48Z"/><path class="cls-2" d="M13.76,170.37H7.31V133.62h6.2c3.46,0,5.2,1.8,5.2,5.4v7.75q0,2.65-1.8,3.6c1.36.57,2.05,1.79,2.05,3.65v10.85C19,168.54,17.22,170.37,13.76,170.37Zm-2.55-33.1v11.35h1.95a1.48,1.48,0,0,0,1.65-1.7v-7.85q0-1.8-1.65-1.8Zm0,29.4h2.2a1.48,1.48,0,0,0,1.65-1.7V154c0-1.16-.55-1.75-1.65-1.75h-2.2Z"/><path class="cls-2" d="M28,152.22H26v18.15h-3.9V133.62h6.3c3.46,0,5.2,1.8,5.2,5.4l-.05,7.6a4,4,0,0,1-1.65,3.8c1.13.67,1.7,1.92,1.7,3.75v16.2h-3.9V153.92A1.48,1.48,0,0,0,28,152.22ZM26,137.27v11.35H28a1.48,1.48,0,0,0,1.65-1.7v-7.85q0-1.8-1.65-1.8Z"/><path class="cls-2" d="M44.85,166.62v3.75H36.66V133.62h8.05v3.75H40.56v11.1h3.79v3.7H40.56v14.45Z"/><path class="cls-2" d="M55,170.37V152.22H51.4v18.15H47.45v-19.3a49.34,49.34,0,0,1,.7-9.9,21.91,21.91,0,0,1,3.1-6.7l.5-.85h2.8l.55.85a22.33,22.33,0,0,1,3.1,6.73,48.11,48.11,0,0,1,.7,9.87v19.3Zm-3.6-22.45v.65H55v-.65a25.31,25.31,0,0,0-1.35-9.2l-.35-.8H53l-.3.8C51.84,140.72,51.4,143.79,51.4,147.92Z"/><path class="cls-2" d="M62.15,170.37V133.62h6.2q5.2,0,5.2,5.4v25.85q0,5.5-5.2,5.5Zm3.9-3.7h2a1.48,1.48,0,0,0,1.65-1.7v-25.9q0-1.8-1.65-1.8h-2Z"/><path class="cls-2" d="M92.6,164.72q0,5.85-5.2,5.85H86.35c-3.46,0-5.2-1.95-5.2-5.85V154.17q0-2.7,1.65-3.75a4.22,4.22,0,0,1-1.65-3.8v-7.5c0-3.8,1.74-5.7,5.2-5.7H87.4q5.2,0,5.2,5.7v2H88.7v-2.35c0-1.43-.56-2.15-1.7-2.15h-.3c-1.1,0-1.65.72-1.65,2.15V147a1.48,1.48,0,0,0,1.65,1.7h2v-4.5h3.9v4.5h2v3.5h-2ZM87,167.27c1.14,0,1.7-.68,1.7-2.05V152.17h-2a1.48,1.48,0,0,0-1.65,1.7v11.35c0,1.37.54,2.05,1.6,2.05Z"/><path class="cls-2" d="M108.65,170.37h-3.9v-11.9l-.6-1a19.94,19.94,0,0,1-2.65-6.15,52.19,52.19,0,0,1-.55-9.2v-8.5h4v11q0,6.3,1.25,9l.35.85h.3l.4-.85q1.3-2.85,1.3-9v-11h3.9v8.5a55.59,55.59,0,0,1-.52,9.25,18.79,18.79,0,0,1-2.63,6.1l-.6.95Z"/><path class="cls-2" d="M120.3,170.57q-5.14,0-5.15-5.85v-25.6q0-5.7,5.15-5.7h1q5.2,0,5.2,5.7v25.6q0,5.85-5.2,5.85Zm.4-3.45h.3c1.1,0,1.65-.68,1.65-2.05V139c0-1.43-.55-2.15-1.65-2.15h-.3c-1.1,0-1.65.72-1.65,2.15v26.1C119.05,166.44,119.6,167.12,120.7,167.12Z"/><path class="cls-2" d="M137,170.37h-7.2V133.62h3.9v33H137Z"/><path class="cls-2" d="M143.7,152.17h-.45v18.2h-3.9V133.62h3.9v14.95h.4q3,0,2.95-3.75v-11.2h3.9v11q0,4.35-2.8,5.7,3,1.2,3.05,5.7v14.3H146.8V155.82Q146.8,152.17,143.7,152.17Z"/></g></g></svg>