<svg xmlns="http://www.w3.org/2000/svg" viewBox="0 0 396.82 84.63"><defs><style>.cls-1{fill:#353535;}.cls-2{fill:#50d069;}</style></defs><title>HASA-LOGO</title><g id="Layer_1" data-name="Layer 1"><path class="cls-1" d="M132.31,120.05h-19.6V88.28H76.89v31.77H57.28V38.93H76.89V72.87h35.82V38.93h19.6Z" transform="translate(-57.28 -37.18)"/><path class="cls-1" d="M192.35,38.93h3.24l42.59,81.12H216l-4.46-9.6H176.26l-4.33,9.6h-22Zm2,34.34h-1.08l-10,21.23-1.22,2.16h23.52l-1.21-2.16Z" transform="translate(-57.28 -37.18)"/><path class="cls-1" d="M259.81,96s11.76,7.84,23.66,7.84c7.44,0,10.14-3.11,10.14-6.76,0-4.19-2.84-6.36-15.14-9.74-17.85-5-28-11.62-28-25,0-14.73,10.55-25.14,32.58-25.14,22.72,0,31.64,8.65,31.64,8.65l-10.54,16A37.67,37.67,0,0,0,283.06,55c-7.7,0-10,2.57-10,5.95,0,4.06,3.79,5.68,14.06,8.38,19.06,5,29.47,12,29.47,25.56,0,14.73-10.27,26.9-32.58,26.9-23.12,0-34.88-10.82-34.88-10.82Z" transform="translate(-57.28 -37.18)"/><path class="cls-1" d="M369.86,38.93h3.25l42.58,81.12H393.52l-4.46-9.6H353.78l-4.33,9.6h-22Zm2,34.34h-1.08l-10,21.23-1.22,2.16h23.52L381.9,94.5Z" transform="translate(-57.28 -37.18)"/></g><g id="Dot"><path class="cls-2" d="M443.16,98.73a10.91,10.91,0,0,1,10.95,11,10.79,10.79,0,0,1-10.95,10.81,10.67,10.67,0,0,1-10.82-10.81A10.79,10.79,0,0,1,443.16,98.73Z" transform="translate(-57.28 -37.18)"/></g></svg>