<svg viewBox="-94 0 512 512.00041" xmlns="http://www.w3.org/2000/svg"><path d="m187.734375 102.398438h17.066406v17.066406h-17.066406zm0 0"/><path d="m187.734375 136.53125h17.066406v17.070312h-17.066406zm0 0"/><path d="m187.734375 170.667969h17.066406v17.066406h-17.066406zm0 0"/><path d="m187.734375 204.800781h17.066406v17.066407h-17.066406zm0 0"/><path d="m196.265625 341.332031c-4.710937 0-8.53125 3.820313-8.53125 8.535157v8.53125c0 4.714843 3.820313 8.535156 8.53125 8.535156 4.714844 0 8.535156-3.820313 8.535156-8.535156v-8.53125c0-4.714844-3.820312-8.535157-8.535156-8.535157zm0 0"/><path d="m230.402344 349.867188c-4.714844 0-8.535156 3.820312-8.535156 8.53125v8.535156c0 4.710937 3.820312 8.53125 8.535156 8.53125 4.710937 0 8.53125-3.820313 8.53125-8.53125v-8.535156c0-4.710938-3.820313-8.53125-8.53125-8.53125zm0 0"/><path d="m162.132812 349.867188c-4.710937 0-8.53125 3.820312-8.53125 8.53125v8.535156c0 4.710937 3.820313 8.53125 8.53125 8.53125 4.714844 0 8.535157-3.820313 8.535157-8.53125v-8.535156c0-4.710938-3.820313-8.53125-8.535157-8.53125zm0 0"/><path d="m59.734375 307.199219c-32.972656.042969-59.6914062 26.761719-59.734375 59.734375v22.835937c-.0234375 25.714844 16.4375 48.546875 40.839844 56.652344.320312.113281.644531.203125.972656.273437l60.585938 12.527344v18.644532c0 18.851562 15.285156 34.132812 34.136718 34.132812h128c18.847656 0 34.132813-15.28125 34.132813-34.132812v-187.734376h8.53125c9.425781 0 17.066406-7.640624 17.066406-17.066406v-17.066406c0-9.425781-7.640625-17.066406-17.066406-17.066406h-34.132813v-153.601563h17.066406c4.714844 0 8.535157-3.820312 8.535157-8.53125 0-4.714843-3.820313-8.535156-8.535157-8.535156h-42.664062v-17.066406h8.53125c4.714844 0 8.535156-3.820313 8.535156-8.53125v-34.132813c0-4.714844-3.820312-8.535156-8.535156-8.535156h-119.464844c-4.714844 0-8.535156 3.820312-8.535156 8.535156v34.132813c0 4.710937 3.820312 8.53125 8.535156 8.53125h8.53125v17.066406h-42.664062c-4.714844 0-8.535156 3.820313-8.535156 8.535156 0 4.710938 3.820312 8.53125 8.535156 8.53125h17.066406v153.601563h-34.132812c-9.425782 0-17.070313 7.640625-17.070313 17.066406v17.066406c0 9.425782 7.644531 17.066406 17.070313 17.066406h17.066406v17.066407zm42.667969 100.011719-35.894532-8.976563c-10.832031-2.695313-17.433593-13.660156-14.738281-24.496094 2.242188-9.023437 10.351563-15.351562 19.644531-15.339843h30.984376v48.8125zm0-65.878907h-30.984375c-20.59375.015625-37.273438 16.71875-37.257813 37.308594.007813 17.089844 11.640625 31.984375 28.21875 36.140625l40.023438 10.007812v17l-56.621094-11.710937c-17.195312-5.925781-28.730469-22.121094-28.714844-40.308594v-22.835937c.027344-23.554688 19.113282-42.640625 42.667969-42.667969h42.664063v17.066406zm179.199218 136.535157c0 9.425781-7.640624 17.066406-17.066406 17.066406h-128c-9.425781 0-17.066406-7.640625-17.066406-17.066406v-68.265626h162.132812zm0-85.332032h-162.132812v-102.402344h11.792969l14.703125 29.414063c1.445312 2.894531 4.402344 4.722656 7.636718 4.71875h93.867188c3.25.019531 6.226562-1.8125 7.679688-4.71875l14.660156-29.414063h11.792968zm-131.261718-102.402344h100.386718l-8.53125 17.066407h-83.320312zm-5.273438-273.066406h102.402344v17.066406h-102.402344zm85.335938 34.132813v17.066406h-68.269532v-17.066406zm-93.867188 34.132812h119.464844v153.601563h-119.464844zm-51.199218 187.734375v-17.066406h221.863281v17.066406zm0 0"/></svg>