<?xml version="1.0" encoding="iso-8859-1"?>
<!-- Generator: Adobe Illustrator 19.0.0, SVG Export Plug-In . SVG Version: 6.00 Build 0)  -->
<svg version="1.1" id="Capa_1" xmlns="http://www.w3.org/2000/svg" xmlns:xlink="http://www.w3.org/1999/xlink" x="0px" y="0px"
	 viewBox="0 0 496.016 496.016" style="enable-background:new 0 0 496.016 496.016;" xml:space="preserve">
<g>
	<g>
		<path d="M309.656,80c-1.776-6.48-4.496-12.68-8.28-18.36l-34.28-51.424C262.84,3.824,255.696,0,248.008,0
			s-14.832,3.824-19.096,10.216l-34.28,51.424c-3.784,5.68-6.496,11.88-8.28,18.36H88.008v27.864l3.024,2.4
			c17.96,14.256,30.016,34.544,33.96,57.128l3.016,17.296v66.472c-24.312,31.232-35.424,69.728-31.08,109.72
			c7.592,69.968,63.832,126.392,133.712,134.16c5.912,0.656,11.784,0.976,17.616,0.976c37.472,0,72.848-13.448,101.096-38.728
			c32.192-28.816,50.656-70.112,50.656-113.288c0-33.776-11.352-66.344-32-92.936v-66.368l3.024-17.304
			c3.936-22.576,16-42.864,33.952-57.128l3.024-2.4V80H309.656z M207.944,70.512l34.28-51.424C243.52,17.16,245.68,16,248.008,16
			s4.488,1.16,5.784,3.096l34.28,51.424c5.192,7.784,7.936,16.848,7.936,26.216c0,26.064-21.2,47.264-47.264,47.264h-1.472
			c-26.064,0-47.264-21.2-47.264-47.264C200.008,87.368,202.752,78.304,207.944,70.512z M338.672,445.368
			c-29.2,26.152-66.944,38.184-106.272,33.768c-44.856-4.984-83.312-32.448-104.024-70.648c8.704,1.04,14.08,3.688,20.048,6.672
			c8.288,4.144,17.688,8.84,35.576,8.84c17.88,0,27.28-4.704,35.568-8.84c7.672-3.848,14.304-7.16,28.408-7.16
			c14.12,0,20.752,3.312,28.432,7.16c8.288,4.144,17.688,8.84,35.584,8.84c17.888,0,27.296-4.696,35.584-8.84
			c5.952-2.976,11.312-5.616,19.968-6.664C360.152,422.208,350.52,434.768,338.672,445.368z M384.008,344
			c0,16.592-3.216,32.808-8.976,48.032c-17.224,0.176-26.472,4.744-34.608,8.808c-7.68,3.848-14.312,7.16-28.432,7.16
			s-20.752-3.312-28.432-7.16c-8.296-4.144-17.696-8.84-35.584-8.84c-17.88,0-27.272,4.696-35.56,8.84
			c-7.68,3.848-14.312,7.16-28.416,7.16c-14.112,0-20.736-3.312-28.416-7.16c-8.168-4.088-17.456-8.688-34.832-8.816
			c-3.952-10.424-6.672-21.432-7.912-32.864c-4.12-37.944,7.248-74.4,31.816-103.168h105.576l-9.288,16.248
			c-9.984,17.472-15.68,37.104-16.712,57.16c-9.408,3.256-16.224,12.104-16.224,22.6c0,13.232,10.768,24,24,24s24-10.768,24-24
			c0-10.336-6.608-19.088-15.792-22.464c1-17.32,5.984-34.256,14.608-49.352L268.648,256h22.72l13.824,24.184
			c8.624,15.096,13.608,32.032,14.608,49.352c-9.184,3.376-15.792,12.128-15.792,22.464c0,13.232,10.768,24,24,24s24-10.768,24-24
			c0-10.496-6.816-19.344-16.216-22.592c-1.032-20.056-6.728-39.688-16.712-57.16L309.792,256H351.4
			C372.392,280.624,384.008,311.696,384.008,344z M144.008,208v-16h104.208c-3.536,4.672-6.184,10.056-7.392,16h-16.816v16h16.808
			c1.216,5.944,3.856,11.328,7.392,16h-104.2v-16h64v-16H144.008z M240.008,352c0,4.416-3.592,8-8,8s-8-3.584-8-8
			c0-4.416,3.592-8,8-8S240.008,347.584,240.008,352z M256.008,216c0-13.232,10.768-24,24-24s24,10.768,24,24s-10.768,24-24,24
			S256.008,229.232,256.008,216z M320.008,352c0-4.416,3.592-8,8-8c4.408,0,8,3.584,8,8c0,4.416-3.592,8-8,8
			C323.6,360,320.008,356.416,320.008,352z M319.2,224h32.84l-0.032,16H311.8C315.344,235.328,317.984,229.944,319.2,224z
			 M311.8,192h40.304l-0.032,16H319.2C317.984,202.056,315.344,196.672,311.8,192z M392.008,100.224
			c-19.36,16.528-32.352,39.256-36.736,64.416L353.288,176H142.664l-1.912-11.36c-4.392-25.16-17.384-47.88-36.744-64.416V96h80.056
			c0,0.248-0.056,0.488-0.056,0.736c0,34.88,28.384,63.264,63.264,63.264h1.472c34.88,0,63.264-28.384,63.264-63.264
			c0-0.248-0.048-0.488-0.056-0.736h80.056V100.224z"/>
	</g>
</g>
<g>
</g>
<g>
</g>
<g>
</g>
<g>
</g>
<g>
</g>
<g>
</g>
<g>
</g>
<g>
</g>
<g>
</g>
<g>
</g>
<g>
</g>
<g>
</g>
<g>
</g>
<g>
</g>
<g>
</g>
</svg>
