<svg height="495pt" viewBox="-55 0 495 495.992" width="495pt" xmlns="http://www.w3.org/2000/svg"><path d="m360.496094 160h-70.367188l3-16h11.367188c26.472656 0 48-21.527344 48-48 0-24.238281-18.082032-44.289062-41.457032-47.503906l3.097657-16.496094h-49.640625v16h30.359375l-20.992188 112h-146.734375l-20.992187-112h30.359375v-16h-49.640625l24.007812 128h-62.367187v16h312c4.414062 0 8 3.59375 8 8v288c0 4.414062-3.585938 8-8 8h-310.632813c3.304688-9.3125 12.199219-16 22.632813-16h280v-16h-98.785156c21.03125-15.246094 34.785156-39.953125 34.785156-67.855469 0-14.558593-3.824219-28.953125-11.046875-41.601562l-10.042969-17.550781c-7.132812-12.503907-10.910156-26.726563-10.910156-41.121094 0-18.742188 6.449218-37.128906 18.160156-51.757813l13.839844-17.304687v-18.808594h-168c-13.230469 0-24 10.769531-24 24v17.535156l2.582031 6.464844h-40.710937c-18.734376 0-35.175782 13.296875-39.109376 31.617188l-18.273437 85.277343c-.320313 1.496094-.488281 3.027344-.488281 5.34375 0 12 9.761718 21.761719 21.761718 21.761719 9.679688 0 18.0625-6.222656 20.847657-15.503906l19.34375-64.496094h45.078125c-.039063.078125-.0625.160156-.101563.238281l-18.082031 36.167969c-5.785156 11.585938-8.847656 24.546875-8.847656 37.496094v2.242187c0 27.902344 13.75 52.597657 34.785156 67.847657h-42.785156c-22.054688 0-40 17.945312-40 40v8h328c13.230468 0 24-10.769532 24-24v-287.992188c0-13.230469-10.769532-24-24-24zm-24-64c0 17.648438-14.351563 32-32 32h-8.359375l11.933593-63.640625c15.945313 1.808594 28.425782 15.214844 28.425782 31.640625zm-216 112h149.761718l-8.105468 10.121094c-1.519532 1.902344-2.9375 3.878906-4.304688 5.878906h-145.351562v-8c0-4.40625 3.582031-8 8-8zm-58.046875 80c-7.007813 0-13.3125 4.6875-15.328125 11.40625l-19.34375 64.488281c-.738282 2.457031-2.953125 4.105469-5.519532 4.105469-3.179687 0-5.761718-2.585938-5.761718-6.535156 0-.410156.039062-.816406.128906-1.199219l18.269531-85.28125c2.363281-11.007813 12.226563-18.984375 23.464844-18.984375h47.113281l3.582032 8.96875c2.28125 5.6875 3.441406 11.679688 3.441406 17.816406 0 1.742188-.113282 3.488282-.304688 5.214844zm59.285156 23.398438c4.425781-8.839844 6.761719-18.726563 6.761719-28.613282 0-8.175781-1.535156-16.175781-4.574219-23.761718l-7.609375-19.023438h132.632812c-5.503906 12.503906-8.449218 26.105469-8.449218 39.871094 0 17.167968 4.496094 34.128906 13.023437 49.050781l10.039063 17.550781c1.035156 1.808594 1.867187 3.703125 2.730468 5.589844-.585937.328125-1.191406.65625-1.777343.992188-6.527344 3.730468-12.167969 6.945312-24.046875 6.945312s-17.519532-3.214844-24.050782-6.945312c-7.421874-4.238282-15.847656-9.054688-31.980468-9.054688-16.128906 0-24.546875 4.816406-31.96875 9.054688-6.519532 3.730468-12.152344 6.945312-24.023438 6.945312-11.855468 0-17.488281-3.214844-24-6.945312-.816406-.46875-1.6875-.933594-2.53125-1.40625.578125-1.367188 1.089844-2.761719 1.753906-4.082032zm-25.238281 68.753906v-2.242188c0-3.496094.375-6.980468.917968-10.4375 7.210938 4.09375 15.570313 8.527344 31.027344 8.527344 16.117188 0 24.535156-4.816406 31.957032-9.054688 6.53125-3.730468 12.160156-6.945312 24.035156-6.945312 11.878906 0 17.519531 3.214844 24.046875 6.945312 7.429687 4.238282 15.847656 9.054688 31.984375 9.054688 15.238281 0 23.582031-4.296875 30.726562-8.351562.777344 4.121093 1.304688 8.289062 1.304688 12.503906 0 37.40625-30.441406 67.847656-67.847656 67.847656h-40.296876c-37.414062 0-67.855468-30.441406-67.855468-67.847656zm0 0"/><path d="m200.496094 144c30.871094 0 56-32.304688 56-72s-25.128906-72-56-72-56 32.304688-56 72 25.128906 72 56 72zm40-72c0 23.367188-10.289063 43.414062-24.847656 51.800781-1.535157-10.425781-4.914063-17.207031-8-23.375-3.839844-7.683593-7.152344-14.3125-7.152344-28.425781s3.3125-20.742188 7.160156-28.425781c3.078125-6.167969 6.464844-12.949219 8-23.375 14.550781 8.386719 24.839844 28.433593 24.839844 51.800781zm-40.449219-55.96875c-1.007813 8.898438-3.679687 14.34375-6.703125 20.394531-4.152344 8.285157-8.847656 17.6875-8.847656 35.574219s4.695312 27.289062 8.839844 35.574219c3.023437 6.042969 5.695312 11.488281 6.703124 20.394531-21.839843-.34375-39.542968-25.304688-39.542968-55.96875s17.703125-55.625 39.550781-55.96875zm0 0"/></svg>