<?xml version="1.0" encoding="iso-8859-1"?>
<!-- Generator: Adobe Illustrator 19.0.0, SVG Export Plug-In . SVG Version: 6.00 Build 0)  -->
<svg xmlns="http://www.w3.org/2000/svg" xmlns:xlink="http://www.w3.org/1999/xlink" version="1.1" id="Layer_1" x="0px" y="0px" viewBox="0 0 512 512" style="enable-background:new 0 0 512 512;" xml:space="preserve" width="512" height="512">
<g id="XMLID_874_">
	<g id="XMLID_875_">
		<path id="XMLID_876_" d="M470,335.763c-4.142,0-7.5,3.358-7.5,7.5V471.5h-37.957V292.558c0-9.649-7.851-17.5-17.5-17.5h-88.553    c-9.649,0-17.5,7.851-17.5,17.5V471.5H139.261c-4.142,0-7.5,3.358-7.5,7.5s3.358,7.5,7.5,7.5H470c4.142,0,7.5-3.358,7.5-7.5    V343.263C477.5,339.121,474.142,335.763,470,335.763z M315.991,292.558c0-1.378,1.122-2.5,2.5-2.5h88.553    c1.378,0,2.5,1.122,2.5,2.5V471.5h-93.553V292.558z"/>
		<path id="XMLID_879_" d="M493.127,132.725H477.5v-10.856c0-9.725-7.912-17.636-17.637-17.636H319.566v-59.86    c0-10.407-8.466-18.873-18.873-18.873h-89.387c-10.407,0-18.873,8.466-18.873,18.873v59.86h-37.172c-4.142,0-7.5,3.358-7.5,7.5    s3.358,7.5,7.5,7.5h37.172v13.492H49.5v-10.856c0-1.454,1.183-2.636,2.637-2.636h68.602c4.142,0,7.5-3.358,7.5-7.5    s-3.358-7.5-7.5-7.5H52.137c-9.725,0-17.637,7.912-17.637,17.636v10.856H18.873C8.466,132.725,0,141.192,0,151.598v7.584    c0,10.407,8.466,18.873,18.873,18.873h4.166v37.962c0,10.853,4.38,20.699,11.461,27.874V479c0,4.142,3.358,7.5,7.5,7.5h62.739    c4.142,0,7.5-3.358,7.5-7.5s-3.358-7.5-7.5-7.5H49.5V253.446c4.146,1.472,8.603,2.281,13.248,2.281    c13.247,0,24.991-6.527,32.209-16.526c7.218,10,18.962,16.526,32.209,16.526s24.991-6.527,32.209-16.526    c7.218,10,18.962,16.526,32.209,16.526s24.991-6.527,32.209-16.526c7.218,10,18.962,16.526,32.209,16.526    s24.991-6.527,32.209-16.526c7.218,10,18.962,16.526,32.209,16.526s24.991-6.527,32.209-16.526    c7.218,10,18.962,16.526,32.209,16.526s24.991-6.527,32.209-16.526c7.218,10,18.962,16.526,32.209,16.526    c4.644,0,9.102-0.809,13.248-2.281v55.294c0,4.142,3.358,7.5,7.5,7.5s7.5-3.358,7.5-7.5v-64.849    c7.081-7.175,11.461-17.021,11.461-27.874v-37.962h4.166c10.407,0,18.873-8.466,18.873-18.873v-7.584    C512,141.192,503.534,132.725,493.127,132.725z M459.863,119.233c1.454,0,2.637,1.183,2.637,2.636v10.856H319.566v-13.492H459.863    z M207.434,44.373c0-2.136,1.737-3.873,3.873-3.873h89.387c2.136,0,3.873,1.737,3.873,3.873v88.352h-97.133V44.373z     M62.748,240.727c-13.625,0-24.708-11.084-24.708-24.709v-37.962h49.417v37.962C87.457,229.642,76.372,240.727,62.748,240.727z     M127.165,240.727c-13.625,0-24.708-11.084-24.708-24.709v-37.962h49.417v37.962C151.874,229.642,140.79,240.727,127.165,240.727z     M191.583,240.727c-13.625,0-24.708-11.084-24.708-24.709v-37.962h49.417v37.962C216.292,229.642,205.207,240.727,191.583,240.727    z M256,240.727c-13.625,0-24.708-11.084-24.708-24.709v-37.962h49.417v37.962C280.708,229.642,269.625,240.727,256,240.727z     M320.417,240.727c-13.625,0-24.709-11.084-24.709-24.709v-37.962h49.417v37.962C345.126,229.642,334.042,240.727,320.417,240.727    z M384.835,240.727c-13.625,0-24.709-11.084-24.709-24.709v-37.962h49.417v37.962    C409.543,229.642,398.459,240.727,384.835,240.727z M473.961,216.018c0,13.625-11.084,24.709-24.708,24.709    s-24.709-11.084-24.709-24.709v-37.962h49.417V216.018z M497,159.182c0,2.136-1.737,3.873-3.873,3.873H18.873    c-2.136,0-3.873-1.737-3.873-3.873v-7.584c0-2.136,1.737-3.873,3.873-3.873h474.254c2.136,0,3.873,1.737,3.873,3.873V159.182z"/>
		<path id="XMLID_891_" d="M258.789,56.622c-8.152,1.312-16.238,5.631-22.769,12.161c-6.531,6.53-10.85,14.617-12.162,22.769    c-1.435,8.917,0.946,17.234,6.532,22.82c4.719,4.719,11.002,7.012,17.769,7.012c9.298,0,19.508-4.33,27.819-12.641    c6.531-6.53,10.85-14.617,12.162-22.769c1.435-8.917-0.946-17.234-6.532-22.82S267.708,55.188,258.789,56.622z M246.627,79.389    c4.255-4.255,9.556-7.155,14.545-7.958c0.501-0.08,1.096-0.151,1.743-0.19l-24.437,24.438c0.039-0.648,0.11-1.242,0.191-1.744    C239.471,88.946,242.372,83.644,246.627,79.389z M265.373,98.136c-4.896,4.896-11.063,7.767-16.258,8.118l24.407-24.407    c-0.039,0.648-0.11,1.242-0.191,1.743C272.529,88.579,269.628,93.881,265.373,98.136z"/>
		<path id="XMLID_895_" d="M252.813,275.058H101.41c-9.649,0-17.5,7.851-17.5,17.5V410.82h-0.348c-6.893,0-12.5,5.607-12.5,12.5    v14.149c0,6.893,5.607,12.5,12.5,12.5H270.42c6.893,0,12.5-5.607,12.5-12.5V423.32c0-6.893-5.607-12.5-12.5-12.5h-0.108V292.558    C270.313,282.908,262.462,275.058,252.813,275.058z M98.91,292.558c0-1.378,1.122-2.5,2.5-2.5h151.403c1.378,0,2.5,1.122,2.5,2.5    V410.82H98.91V292.558z M267.92,434.969H86.062v-9.149H267.92V434.969z"/>
		<path id="XMLID_899_" d="M169.295,368.588c1.644,0,3.325-0.135,5.027-0.409c8.152-1.312,16.238-5.631,22.769-12.162    c6.53-6.53,10.85-14.616,12.161-22.769c1.435-8.917-0.946-17.234-6.532-22.82c-5.585-5.585-13.901-7.968-22.82-6.532    c-8.152,1.312-16.238,5.631-22.769,12.161c-14.36,14.36-16.833,34.386-5.629,45.589    C156.021,366.167,162.329,368.588,169.295,368.588z M186.484,345.411c-4.255,4.255-9.556,7.156-14.545,7.958    c-0.502,0.081-1.096,0.152-1.744,0.191l24.438-24.438c-0.039,0.648-0.11,1.242-0.191,1.744    C193.64,335.855,190.739,341.156,186.484,345.411z M182.283,318.707c0.501-0.081,1.096-0.151,1.743-0.19l-24.407,24.407    c0.351-5.195,3.223-11.363,8.119-16.26C171.993,322.41,177.294,319.51,182.283,318.707z"/>
		<path id="XMLID_903_" d="M206.667,382.131h-59.715c-4.142,0-7.5,3.358-7.5,7.5s3.358,7.5,7.5,7.5h59.715    c4.142,0,7.5-3.358,7.5-7.5S210.809,382.131,206.667,382.131z"/>
		<path id="XMLID_904_" d="M387.5,349.091h-0.926l-16.549-34.816c-1.243-2.614-3.879-4.28-6.774-4.28s-5.531,1.666-6.773,4.28    l-16.549,34.816h-0.927c-4.142,0-7.5,3.358-7.5,7.5v31.739c0,4.142,3.358,7.5,7.5,7.5H387.5c4.142,0,7.5-3.358,7.5-7.5v-31.739    C395,352.448,391.642,349.091,387.5,349.091z M363.251,334.965l6.714,14.126h-13.429L363.251,334.965z M380,380.829h-33.499    v-16.739H380V380.829z"/>
	</g>
</g>















</svg>
