<?xml version="1.0" encoding="iso-8859-1"?>
<!-- Generator: Adobe Illustrator 19.0.0, SVG Export Plug-In . SVG Version: 6.00 Build 0)  -->
<svg xmlns="http://www.w3.org/2000/svg" xmlns:xlink="http://www.w3.org/1999/xlink" version="1.1" id="Layer_1" x="0px" y="0px" viewBox="0 0 512 512" style="enable-background:new 0 0 512 512;" xml:space="preserve" width="512" height="512">
<g id="XMLID_650_">
	<g id="XMLID_651_">
		<path id="XMLID_652_" d="M237.738,454.822h-46.183c-1.369,0-2.482-1.114-2.482-2.52c0-5.689,2.105-11.129,5.931-15.317    c14.239-15.596,42.538-48.495,72.969-94.448h72.565c8.346,0,15.135-6.79,15.135-15.135v-17.249    c0-8.345-6.789-15.134-15.135-15.134H319.96c-5.948-3.092-11.784-6.277-17.505-9.546c13.46-24.554,25.307-49.39,35.271-73.965    h10.384c14.937,38.037,32.813,74.499,53.169,108.407c1.407,2.343,3.891,3.641,6.438,3.641c1.314,0,2.646-0.345,3.854-1.071    c3.552-2.132,4.702-6.739,2.57-10.291c-19.616-32.673-36.882-67.781-51.375-104.41c2.087-2.172,3.378-5.114,3.378-8.357v-20.751    c0-10.116-6.538-18.729-15.607-21.851V17.161c0-4.142-3.357-7.5-7.5-7.5s-7.5,3.358-7.5,7.5v139.667    c-9.069,3.122-15.606,11.734-15.606,21.851v20.751c0,3.145,1.218,6.005,3.195,8.156c-9.541,23.334-20.813,46.91-33.583,70.243    c-35.876-21.998-66.586-47.385-90.126-74.62c0.97-1.738,1.528-3.736,1.528-5.864v-20.751c0-10.116-6.538-18.729-15.607-21.851    V17.161c0-4.142-3.357-7.5-7.5-7.5s-7.5,3.358-7.5,7.5v137.583c-9.069,3.122-15.606,11.734-15.606,21.851v20.751    c0,2.025,0.507,3.932,1.391,5.611c-37.966,42.397-91.85,75.633-121.411,92.064H15.135C6.789,295.02,0,301.809,0,310.154v17.249    c0,8.345,6.789,15.135,15.135,15.135h123.398c3.531,18.594,19.901,32.518,39.303,32.518c19.33,0,35.76-13.949,39.301-32.518    h32.773c-27.716,40.776-52.907,70.011-65.983,84.333c-6.354,6.958-9.854,15.99-9.854,25.469c0,9.64,7.843,17.483,17.482,17.483    h46.183c4.143,0,7.5-3.358,7.5-7.5S241.881,454.822,237.738,454.822z M334.93,178.678c0-4.47,3.637-8.107,8.106-8.107    c4.471,0,8.107,3.637,8.107,8.107v17.832H334.93V178.678z M169.729,176.594c0-4.47,3.637-8.107,8.106-8.107    c4.471,0,8.107,3.637,8.107,8.107v17.832h-16.214V176.594z M15,327.402v-17.249c0-0.074,0.061-0.134,0.135-0.134h97.604    c4.143,0,7.5-3.358,7.5-7.5s-3.357-7.5-7.5-7.5H64.476c31.9-19.481,74.57-49.363,105.93-85.594h14.604    c26.478,31.61,62.084,60.87,104.006,85.594H147.262c-4.143,0-7.5,3.358-7.5,7.5s3.357,7.5,7.5,7.5h193.276    c0.074,0,0.135,0.06,0.135,0.134v17.249c0,0.074-0.061,0.135-0.135,0.135H15.135C15.061,327.537,15,327.477,15,327.402z     M177.836,360.055c-11.134,0-20.675-7.329-23.874-17.518h47.741C198.494,352.713,188.927,360.055,177.836,360.055z"/>
		<path id="XMLID_658_" d="M501.372,426.082c-10.478-10.822-38.309-39.571-68.929-85.089c-2.313-3.438-6.973-4.349-10.409-2.037    s-4.349,6.973-2.036,10.409c31.363,46.623,59.866,76.066,70.597,87.15c4.131,4.266,6.405,9.886,6.405,15.823    c0,1.369-1.113,2.483-2.482,2.483H272.262c-4.143,0-7.5,3.358-7.5,7.5s3.357,7.5,7.5,7.5h31.466    c3.519,18.616,19.839,32.518,39.309,32.518c19.322,0,35.759-13.952,39.301-32.518h112.18c9.64,0,17.482-7.843,17.482-17.483    C512,442.486,508.226,433.161,501.372,426.082z M343.036,487.339c-11.172,0-20.686-7.319-23.875-17.518h47.742    C363.693,479.997,354.123,487.339,343.036,487.339z"/>
	</g>
</g>















</svg>
