<?xml version="1.0" encoding="iso-8859-1"?>
<!-- Generator: Adobe Illustrator 19.0.0, SVG Export Plug-In . SVG Version: 6.00 Build 0)  -->
<svg xmlns="http://www.w3.org/2000/svg" xmlns:xlink="http://www.w3.org/1999/xlink" version="1.1" id="Layer_1" x="0px" y="0px" viewBox="0 0 512 512" style="enable-background:new 0 0 512 512;" xml:space="preserve" width="512" height="512">
<g id="XMLID_634_">
	<g id="XMLID_635_">
		<path id="XMLID_636_" d="M390.309,135.373h-10.408v-18.679c0-9.073-7.381-16.454-16.454-16.454H148.553    c-9.073,0-16.454,7.381-16.454,16.454v18.679h-10.408c-9.073,0-16.454,7.381-16.454,16.454v33.26    c0,8.833,7.002,16.043,15.745,16.418l10.059,79.681c-3.2,0.908-6.117,2.696-8.36,5.24c-3.321,3.767-4.865,8.784-4.236,13.766    l17.167,136c1.083,8.581,8.321,15.073,16.925,15.288l2.418,19.154c1.037,8.22,7.721,14.531,15.844,15.238v8.629    c0,9.649,7.851,17.5,17.5,17.5h135.401c9.649,0,17.5-7.851,17.5-17.5v-8.629c8.123-0.706,14.807-7.017,15.844-15.237l2.418-19.154    c8.604-0.215,15.842-6.707,16.925-15.288l4.922-38.991c0.519-4.11-2.392-7.862-6.501-8.38c-4.115-0.522-7.862,2.392-8.38,6.501    l-4.922,38.992c-0.157,1.247-1.224,2.187-2.48,2.187H152.974c-1.256,0-2.323-0.94-2.48-2.187l-17.167-136    c-0.123-0.974,0.326-1.65,0.605-1.966c0.279-0.316,0.894-0.847,1.875-0.847h58.988c-2.38,6.744-3.689,13.988-3.689,21.536    c0,35.782,29.111,64.894,64.894,64.894s64.894-29.111,64.894-64.894c0-7.548-1.309-14.793-3.689-21.536h58.988    c0.982,0,1.597,0.53,1.875,0.847c0.279,0.316,0.728,0.992,0.605,1.966l-7.887,62.486c-0.519,4.11,2.392,7.862,6.501,8.38    c0.319,0.041,0.635,0.06,0.949,0.06c3.724,0,6.953-2.771,7.432-6.562l7.887-62.486c0.629-4.982-0.915-9.999-4.236-13.766    c-2.243-2.543-5.159-4.332-8.359-5.24l10.059-79.681c8.743-0.375,15.745-7.585,15.745-16.418v-33.26    C406.763,142.754,399.382,135.373,390.309,135.373z M339.683,470.942H231.261c-4.142,0-7.5,3.358-7.5,7.5s3.358,7.5,7.5,7.5    h94.939v8.558c0,1.378-1.122,2.5-2.5,2.5H188.299c-1.378,0-2.5-1.122-2.5-2.5v-8.558h10.939c4.142,0,7.5-3.358,7.5-7.5    s-3.358-7.5-7.5-7.5h-24.421c-1.257,0-2.323-0.94-2.48-2.187l-2.178-17.255h176.683l-2.178,17.255    C342.006,470.002,340.939,470.942,339.683,470.942z M147.099,116.694c0-0.802,0.652-1.454,1.454-1.454h214.895    c0.802,0,1.454,0.652,1.454,1.454v18.679H147.099V116.694z M256,366.929c-27.511,0-49.894-22.382-49.894-49.894    s22.382-49.893,49.894-49.893s49.894,22.382,49.894,49.893S283.511,366.929,256,366.929z M391.763,185.087    c0,0.802-0.652,1.454-1.454,1.454h-59.048c-4.142,0-7.5,3.358-7.5,7.5s3.358,7.5,7.5,7.5h44.634l-9.967,78.958h-56.33    c-11.698-17.105-31.356-28.357-53.597-28.357s-41.9,11.251-53.597,28.357h-56.33l-9.967-78.958h160.634c4.142,0,7.5-3.358,7.5-7.5    s-3.358-7.5-7.5-7.5H121.691c-0.802,0-1.454-0.652-1.454-1.454v-33.26c0-0.802,0.652-1.454,1.454-1.454h268.618    c0.802,0,1.454,0.652,1.454,1.454V185.087z"/>
		<path id="XMLID_642_" d="M192.655,88.758c1.919,0,3.839-0.732,5.303-2.197c2.929-2.929,2.929-7.678,0-10.606    c-1.101-1.101-1.707-2.564-1.707-4.121s0.606-3.02,1.707-4.121l36.063-36.063c8.121-8.121,8.121-21.333,0-29.454    c-2.929-2.929-7.678-2.929-10.606,0c-2.929,2.929-2.929,7.678,0,10.606c1.101,1.101,1.707,2.564,1.707,4.121    s-0.606,3.02-1.707,4.121l-36.063,36.063c-8.121,8.121-8.121,21.333,0,29.454C188.816,88.026,190.736,88.758,192.655,88.758z"/>
		<path id="XMLID_643_" d="M270.435,16.924c0,1.557-0.606,3.02-1.707,4.121l-36.063,36.063c-8.121,8.121-8.121,21.333,0,29.454    c1.464,1.464,3.384,2.197,5.303,2.197s3.839-0.732,5.303-2.197c2.929-2.929,2.929-7.678,0-10.606    c-1.101-1.101-1.707-2.564-1.707-4.121s0.606-3.02,1.707-4.121l36.063-36.063c8.121-8.121,8.121-21.333,0-29.454    c-2.929-2.929-7.678-2.929-10.606,0c-2.929,2.929-2.929,7.678,0,10.606C269.829,13.904,270.435,15.367,270.435,16.924z"/>
		<path id="XMLID_644_" d="M315.748,16.924c0,1.557-0.606,3.02-1.707,4.121l-36.063,36.063c-8.121,8.121-8.121,21.333,0,29.454    c1.464,1.464,3.384,2.197,5.303,2.197s3.839-0.732,5.303-2.197c2.929-2.929,2.929-7.678,0-10.606    c-1.101-1.101-1.707-2.564-1.707-4.121s0.606-3.02,1.707-4.121l36.063-36.063c8.121-8.121,8.121-21.333,0-29.454    c-2.929-2.929-7.678-2.929-10.606,0c-2.929,2.929-2.929,7.678,0,10.606C315.142,13.904,315.748,15.367,315.748,16.924z"/>
		<path id="XMLID_645_" d="M236.127,298.368c-6.491,6.491-10.784,14.528-12.088,22.633c-1.427,8.869,0.942,17.143,6.5,22.701    c4.696,4.696,10.946,6.977,17.678,6.977c9.244-0.001,19.395-4.304,27.655-12.565c6.491-6.491,10.784-14.528,12.088-22.633    c1.427-8.869-0.942-17.144-6.5-22.701C270.317,281.636,250.405,284.09,236.127,298.368z M246.734,308.974    c4.809-4.809,10.856-7.655,15.97-8.044l-24.036,24.036c0.04-0.586,0.107-1.123,0.181-1.583    C239.644,318.442,242.518,313.19,246.734,308.974z M265.266,327.507c-4.806,4.805-10.846,7.64-15.958,8.032l24.024-24.024    c-0.04,0.586-0.107,1.123-0.181,1.583C272.356,318.039,269.482,323.291,265.266,327.507z"/>
		<path id="XMLID_649_" d="M246.374,399.382c-4.142,0-7.5,3.358-7.5,7.5s3.358,7.5,7.5,7.5h19.251c4.142,0,7.5-3.358,7.5-7.5    s-3.358-7.5-7.5-7.5H246.374z"/>
	</g>
</g>















</svg>
