<?xml version="1.0" encoding="iso-8859-1"?>
<!-- Generator: Adobe Illustrator 19.0.0, SVG Export Plug-In . SVG Version: 6.00 Build 0)  -->
<svg xmlns="http://www.w3.org/2000/svg" xmlns:xlink="http://www.w3.org/1999/xlink" version="1.1" id="Layer_1" x="0px" y="0px" viewBox="0 0 512 512" style="enable-background:new 0 0 512 512;" xml:space="preserve" width="512" height="512">
<g id="XMLID_614_">
	<g id="XMLID_615_">
		<path id="XMLID_616_" d="M352.41,418.82c-4.119-0.52-7.861,2.392-8.38,6.501l-5.661,44.844c-0.132,1.044-1.025,1.832-2.078,1.832    H175.709c-1.053,0-1.946-0.788-2.078-1.832l-21.819-172.844c-0.519-4.109-4.271-7.017-8.38-6.501    c-4.109,0.519-7.021,4.271-6.501,8.38l21.819,172.844c1.002,7.935,7.391,14.047,15.2,14.856v8.005    c0,9.426,7.668,17.095,17.095,17.095h129.912c9.426,0,17.095-7.668,17.095-17.095V486.9c7.809-0.808,14.198-6.921,15.2-14.856    l5.661-44.844C359.43,423.091,356.519,419.339,352.41,418.82z M320.956,497H191.044c-1.155,0-2.095-0.94-2.095-2.095v-7.907    h134.102v7.907C323.051,496.06,322.111,497,320.956,497z"/>
		<path id="XMLID_619_" d="M384.864,150.033h-14.669v-43.035c0-5.143-2.282-9.962-6.26-13.222c-3.979-3.26-9.153-4.551-14.195-3.539    l-130.145,26.086h-60.697c-9.426,0-17.095,7.668-17.095,17.095v16.614h-14.669c-8.873,0-16.091,7.218-16.091,16.091v31.912    c0,8.552,6.711,15.547,15.141,16.043l6.387,50.598c0.479,3.791,3.708,6.562,7.432,6.562c0.313,0,0.63-0.02,0.949-0.06    c4.109-0.519,7.02-4.271,6.501-8.38l-6.144-48.671h162.428c4.142,0,7.5-3.358,7.5-7.5s-3.358-7.5-7.5-7.5H127.136    c-0.602,0-1.091-0.49-1.091-1.091v-31.912c0-0.602,0.489-1.091,1.091-1.091h257.729c0.602,0,1.091,0.489,1.091,1.091v31.912    c0,0.602-0.489,1.091-1.091,1.091h-46.603c-4.142,0-7.5,3.358-7.5,7.5s3.358,7.5,7.5,7.5h32.428l-22.302,176.671    c-0.519,4.11,2.392,7.862,6.501,8.38c0.319,0.041,0.636,0.06,0.949,0.06c3.724,0,6.953-2.771,7.432-6.562l22.545-178.598    c8.43-0.496,15.141-7.491,15.141-16.043v-31.912C400.955,157.252,393.737,150.033,384.864,150.033z M156.805,133.419    c0-1.155,0.939-2.095,2.095-2.095h61.441c0.495,0,0.989-0.049,1.474-0.146l72.174-14.467v9.992c0,4.142,3.358,7.5,7.5,7.5    s7.5-3.358,7.5-7.5v-12.998l14.117-2.83v7.762c0,4.142,3.358,7.5,7.5,7.5s7.5-3.358,7.5-7.5v-10.769l14.584-2.923    c0.849-0.169,1.453,0.199,1.739,0.434c0.287,0.235,0.767,0.757,0.767,1.62v43.035H156.805V133.419z"/>
		<path id="XMLID_622_" d="M193.433,339.028c0,34.5,28.067,62.567,62.566,62.567s62.566-28.067,62.566-62.567    c0-34.499-28.067-62.566-62.566-62.566S193.433,304.529,193.433,339.028z M256,291.461c26.228,0,47.566,21.338,47.566,47.566    c0,26.229-21.338,47.567-47.566,47.567s-47.566-21.338-47.566-47.567C208.433,312.8,229.772,291.461,256,291.461z"/>
		<path id="XMLID_625_" d="M248.532,371.609c8.949,0,18.765-4.158,26.75-12.144c6.272-6.272,10.422-14.044,11.683-21.882    c1.385-8.607-0.919-16.642-6.321-22.044c-10.813-10.812-30.107-8.457-43.926,5.362c-13.819,13.819-16.174,33.113-5.362,43.926    C235.92,369.392,241.995,371.609,248.532,371.609z M250.382,356.408l21.842-21.842c-0.596,4.643-3.242,9.986-7.548,14.293    C260.369,353.167,255.026,355.812,250.382,356.408z M261.631,323.946l-21.855,21.855c0.596-4.643,3.242-9.986,7.548-14.293    C251.634,327.198,256.985,324.54,261.631,323.946z"/>
		<path id="XMLID_629_" d="M246.765,417.731c-4.142,0-7.5,3.358-7.5,7.5s3.358,7.5,7.5,7.5h18.47c4.142,0,7.5-3.358,7.5-7.5    s-3.358-7.5-7.5-7.5H246.765z"/>
		<path id="XMLID_630_" d="M265.235,260.031c4.142,0,7.5-3.358,7.5-7.5s-3.358-7.5-7.5-7.5h-18.47c-4.142,0-7.5,3.358-7.5,7.5    s3.358,7.5,7.5,7.5H265.235z"/>
		<path id="XMLID_631_" d="M195.223,85.768c1.919,0,3.839-0.732,5.303-2.196c2.929-2.929,2.929-7.678,0-10.607    c-2.062-2.062-2.062-5.416,0-7.477l34.602-34.601c7.91-7.91,7.91-20.78,0-28.69c-2.929-2.929-7.678-2.929-10.606,0    c-2.929,2.929-2.929,7.678,0,10.606c2.062,2.062,2.062,5.416,0,7.477l-34.602,34.601c-7.909,7.91-7.909,20.78,0,28.69    C191.384,85.035,193.304,85.768,195.223,85.768z"/>
		<path id="XMLID_632_" d="M267.997,20.28l-34.602,34.601c-7.91,7.91-7.91,20.78,0,28.69c1.464,1.464,3.384,2.197,5.303,2.197    s3.839-0.732,5.303-2.197c2.929-2.929,2.929-7.678,0-10.606c-2.062-2.062-2.062-5.416,0-7.477l34.602-34.601    c3.832-3.832,5.942-8.926,5.942-14.345c0-5.419-2.11-10.514-5.942-14.345c-2.929-2.929-7.678-2.929-10.606,0    c-2.929,2.929-2.929,7.678,0,10.606C270.059,14.865,270.059,18.219,267.997,20.28z"/>
		<path id="XMLID_633_" d="M311.474,20.28l-34.602,34.601c-7.91,7.91-7.91,20.78,0,28.69c1.464,1.464,3.384,2.197,5.303,2.197    s3.839-0.732,5.303-2.197c2.929-2.929,2.929-7.678,0-10.606c-2.062-2.062-2.062-5.416,0-7.477l34.602-34.601    c7.909-7.91,7.909-20.78,0-28.69c-2.93-2.928-7.678-2.929-10.607,0c-2.929,2.929-2.929,7.678,0,10.607    C313.535,14.865,313.535,18.219,311.474,20.28z"/>
	</g>
</g>















</svg>
