<?xml version="1.0" encoding="iso-8859-1"?>
<!-- Generator: Adobe Illustrator 19.0.0, SVG Export Plug-In . SVG Version: 6.00 Build 0)  -->
<svg xmlns="http://www.w3.org/2000/svg" xmlns:xlink="http://www.w3.org/1999/xlink" version="1.1" id="Layer_1" x="0px" y="0px" viewBox="0 0 512 512" style="enable-background:new 0 0 512 512;" xml:space="preserve" width="512" height="512">
<g id="XMLID_600_">
	<g id="XMLID_601_">
		<path id="XMLID_602_" d="M234.425,297.724c-15.598,15.598-18.339,37.293-6.241,49.391c4.855,4.855,11.644,7.456,19.152,7.456    c1.779,0,3.599-0.146,5.442-0.443c8.87-1.427,17.677-6.134,24.797-13.254c15.597-15.598,18.339-37.292,6.241-49.391    C271.716,279.385,250.023,282.125,234.425,297.724z M245.032,308.331c4.835-4.835,10.876-8.135,16.573-9.051    c0.858-0.138,1.941-0.256,3.131-0.256c0.295,0,0.6,0.011,0.906,0.027l-29.921,29.922    C235.359,322.639,238.699,314.663,245.032,308.331z M266.968,330.268c-6.333,6.334-14.309,9.674-20.642,9.312l29.953-29.953    C276.64,315.959,273.301,323.935,266.968,330.268z"/>
		<path id="XMLID_606_" d="M400.566,156.504c-1.649-39.903-19.927-77.652-50.319-103.763c-3.144-2.699-7.878-2.341-10.576,0.802    c-2.699,3.142-2.341,7.877,0.801,10.576c26.448,22.722,42.663,55.269,44.942,89.868H223.988V36.77    c10.236-2.569,20.959-3.934,32.012-3.934c19.855,0,38.913,4.371,56.642,12.992c3.726,1.812,8.214,0.26,10.025-3.465    s0.26-8.213-3.465-10.024c-19.79-9.624-41.055-14.503-63.202-14.503c-10.892,0-21.614,1.211-32.012,3.553V13.5    c0-7.444-6.056-13.5-13.5-13.5h-22.693c-7.444,0-13.5,6.056-13.5,13.5v29.578c-6.646,4.561-12.953,9.705-18.854,15.408    c-26.877,25.979-42.485,60.766-44.013,98.021c-5.082,3.066-8.499,8.624-8.499,14.98v23.098c0,9.649,7.851,17.5,17.5,17.5h4.923    L138.924,318.9c0.481,3.789,3.709,6.556,7.431,6.556c0.315,0,0.634-0.02,0.955-0.061c4.109-0.522,7.017-4.276,6.495-8.385    l-5.039-39.655h48.304c-7.98,11.546-12.669,25.533-12.669,40.599c0,39.479,32.119,71.599,71.599,71.599    s71.599-32.119,71.599-71.599c0-15.067-4.689-29.053-12.669-40.599h48.304l-19.771,155.6H168.537l-10.274-80.856    c-0.521-4.109-4.277-7.021-8.385-6.495c-4.109,0.522-7.017,4.276-6.495,8.385l18.176,143.051    c1.083,8.528,8.384,14.96,16.981,14.96h154.92c8.598,0,15.897-6.432,16.981-14.96l36.207-284.955h4.923    c9.649,0,17.5-7.851,17.5-17.5v-23.098C409.071,165.129,405.652,159.569,400.566,156.504z M208.988,153.987h-19.693V51.111    c6.241-3.724,12.823-6.939,19.693-9.587V153.987z M189.295,15h19.693v10.635c-6.763,2.318-13.345,5.132-19.693,8.436V15z     M174.295,61.569v92.418h-47.716C129,116.461,147.066,83.574,174.295,61.569z M256,374.552c-31.208,0-56.599-25.39-56.599-56.599    s25.39-56.598,56.599-56.598c31.209,0,56.599,25.39,56.599,56.598S287.209,374.552,256,374.552z M333.46,497H178.54    c-1.063,0-1.966-0.795-2.1-1.851l-5.997-47.195h171.114l-5.997,47.195C335.427,496.205,334.523,497,333.46,497z M394.071,194.585    c0,1.378-1.121,2.5-2.5,2.5h-52.31c-4.143,0-7.5,3.358-7.5,7.5s3.357,7.5,7.5,7.5h32.266l-6.387,50.269H302    c-0.299,0-0.593,0.022-0.883,0.056c-12.323-10.029-28.027-16.055-45.117-16.055s-32.794,6.027-45.117,16.055    c-0.29-0.034-0.584-0.056-0.883-0.056h-63.141l-6.387-50.269h164.266c4.143,0,7.5-3.358,7.5-7.5s-3.357-7.5-7.5-7.5h-184.31    c-1.378,0-2.5-1.122-2.5-2.5v-23.098c0-1.378,1.122-2.5,2.5-2.5h271.143c1.379,0,2.5,1.122,2.5,2.5V194.585z"/>
	</g>
</g>















</svg>
