<?xml version="1.0" encoding="iso-8859-1"?>
<!-- Generator: Adobe Illustrator 19.0.0, SVG Export Plug-In . SVG Version: 6.00 Build 0)  -->
<svg xmlns="http://www.w3.org/2000/svg" xmlns:xlink="http://www.w3.org/1999/xlink" version="1.1" id="Layer_1" x="0px" y="0px" viewBox="0 0 512 512" style="enable-background:new 0 0 512 512;" xml:space="preserve" width="512" height="512">
<g id="XMLID_583_">
	<g id="XMLID_584_">
		<g id="XMLID_585_">
			<path id="XMLID_586_" d="M367.18,207.156c-7.666-6.94-12.063-16.851-12.063-27.192c0-5.396-2.814-10.139-7.045-12.865v-15.413     c3.456-0.67,6.065-3.708,6.065-7.359s-2.61-6.69-6.065-7.359v-11.773c3.456-0.67,6.065-3.708,6.065-7.359s-2.61-6.69-6.065-7.359     v-7.741c0-9.816-7.986-17.803-17.803-17.803h-90.854V67.261c0-4.142-3.357-7.5-7.5-7.5s-7.5,3.358-7.5,7.5v17.671h-21.974V15     h21.974v17.739c0,4.142,3.357,7.5,7.5,7.5s7.5-3.358,7.5-7.5V13.682C239.416,6.138,233.278,0,225.734,0h-24.61     c-7.544,0-13.682,6.138-13.682,13.682v71.25h-5.713c-9.816,0-17.803,7.986-17.803,17.803v7.741     c-3.456,0.67-6.065,3.708-6.065,7.359s2.61,6.69,6.065,7.359v11.773c-3.456,0.67-6.065,3.708-6.065,7.359s2.61,6.69,6.065,7.359     v15.413c-4.231,2.726-7.045,7.469-7.045,12.865c0,10.341-4.396,20.252-12.063,27.192c-10.802,9.778-16.997,23.742-16.997,38.312     v121.271c0,4.142,3.357,7.5,7.5,7.5s7.5-3.358,7.5-7.5V262.53h226.357v231.667c0,1.545-1.257,2.803-2.803,2.803H314.26     c-4.143,0-7.5,3.358-7.5,7.5s3.357,7.5,7.5,7.5h52.115c9.816,0,17.803-7.986,17.803-17.803V245.469     C384.178,230.898,377.983,216.934,367.18,207.156z M333.072,151.827v12.832H178.927v-12.832H333.072z M178.927,136.827v-11.492     h154.146v11.492H178.927z M181.729,99.932h148.54c1.546,0,2.803,1.257,2.803,2.803v7.6H178.927v-7.6     C178.927,101.189,180.183,99.932,181.729,99.932z M142.821,247.53v-2.062c0-10.34,4.397-20.251,12.063-27.191     c10.802-9.778,16.997-23.742,16.997-38.313c0-0.168,0.137-0.306,0.306-0.306h167.624c0.169,0,0.306,0.137,0.306,0.306     c0,14.57,6.195,28.535,16.997,38.313c7.667,6.939,12.064,16.851,12.064,27.191v2.061H142.821z"/>
			<path id="XMLID_592_" d="M279.737,497H145.624c-1.546,0-2.803-1.257-2.803-2.803v-92.936c0-4.142-3.357-7.5-7.5-7.5     s-7.5,3.358-7.5,7.5v92.936c0,9.816,7.986,17.803,17.803,17.803h134.113c4.143,0,7.5-3.358,7.5-7.5S283.88,497,279.737,497z"/>
			<path id="XMLID_593_" d="M256,302.434c-39.479,0-71.599,32.119-71.599,71.599S216.52,445.631,256,445.631     s71.598-32.119,71.598-71.599S295.479,302.434,256,302.434z M256,430.631c-31.209,0-56.599-25.39-56.599-56.599     s25.39-56.599,56.599-56.599c31.208,0,56.598,25.39,56.598,56.599S287.208,430.631,256,430.631z"/>
			<path id="XMLID_596_" d="M234.424,353.803c-15.597,15.598-18.338,37.293-6.24,49.392c5.074,5.074,11.834,7.537,19.127,7.537     c10.095,0,21.209-4.723,30.265-13.778c15.597-15.598,18.339-37.292,6.24-49.392C271.716,335.463,250.02,338.206,234.424,353.803z      M245.031,364.409c6.333-6.333,14.308-9.672,20.641-9.311L235.72,385.05C235.359,378.718,238.699,370.742,245.031,364.409z      M266.969,386.346c-6.333,6.332-14.309,9.672-20.642,9.311l29.953-29.953C276.64,372.038,273.301,380.013,266.969,386.346z"/>
		</g>
	</g>
</g>















</svg>
