<?xml version="1.0" encoding="iso-8859-1"?>
<!-- Generator: Adobe Illustrator 19.0.0, SVG Export Plug-In . SVG Version: 6.00 Build 0)  -->
<svg xmlns="http://www.w3.org/2000/svg" xmlns:xlink="http://www.w3.org/1999/xlink" version="1.1" id="Layer_1" x="0px" y="0px" viewBox="0 0 512 512" style="enable-background:new 0 0 512 512;" xml:space="preserve" width="512" height="512">
<g id="XMLID_567_">
	<g id="XMLID_568_">
		<g id="XMLID_569_">
			<path id="XMLID_570_" d="M391.981,152.949h-9.488v-28.594c0-7.909-3.402-15.444-9.336-20.674     c-3.834-3.38-8.492-5.582-13.424-6.455v-4.987c0-7.909-3.402-15.444-9.336-20.674c-3.204-2.824-6.984-4.823-11.018-5.917v-5.301     c0-7.909-3.402-15.445-9.336-20.675c-4.977-4.388-11.342-6.795-17.896-6.874C299.709,11.621,283.161,0,265.29,0     c-21.248,0-40.521,16.425-53.158,45.172l-15.407,1.948c-4.01,0.507-7.728,1.872-10.989,3.888L166.28,7.953     c-3.069-6.792-11.091-9.819-17.886-6.751l-20.74,9.372c-3.291,1.487-5.806,4.167-7.081,7.545s-1.158,7.051,0.328,10.341     l33.139,73.338c-1.146,3.03-1.773,6.303-1.773,9.703v10.734c-13.067,2.309-22.76,13.743-22.76,27.138v3.576h-9.488     c-9.666,0-17.53,7.864-17.53,17.53v23.168c0,9.666,7.864,17.53,17.53,17.53h4.958l36.32,285.837     c1.086,8.543,8.398,14.985,17.01,14.985h155.389c8.611,0,15.924-6.442,17.01-14.985l19.009-149.598     c0.521-4.109-2.386-7.863-6.495-8.386c-4.11-0.519-7.863,2.386-8.386,6.495l-11.084,87.234H168.253l-19.837-156.116h48.521     c-8.016,11.585-12.728,25.622-12.728,40.745c0,39.586,32.206,71.792,71.792,71.792s71.792-32.206,71.792-71.792     c0-15.123-4.712-29.16-12.728-40.745h48.521l-4.082,32.125c-0.521,4.109,2.386,7.863,6.495,8.385     c0.321,0.041,0.64,0.061,0.955,0.061c3.721,0,6.949-2.768,7.431-6.556l12.64-99.482h4.958c9.666,0,17.53-7.864,17.53-17.53     v-23.168C409.512,160.813,401.647,152.949,391.981,152.949z M265.29,15c10.793,0,21.32,6.899,30.234,19.628l-65.591,8.293     C239.624,25.246,252.395,15,265.29,15z M198.605,62.002l111.638-14.116c3.631-0.458,7.139,0.621,9.882,3.039     c2.744,2.418,4.255,5.765,4.255,9.422v5.097L187.62,82.736v-8.273C187.62,68.151,192.343,62.793,198.605,62.002z M153.222,15.481     l21.689,48c-1.476,3.38-2.291,7.098-2.291,10.982V84.9c-2.925,0.793-5.646,2.054-8.087,3.69l-29.352-64.956L153.222,15.481z      M341.842,447.76l-6.018,47.364c-0.136,1.069-1.051,1.876-2.129,1.876H178.306c-1.078,0-1.993-0.807-2.129-1.876l-6.018-47.364     H341.842z M256,374.182c-31.315,0-56.792-25.477-56.792-56.792s25.477-56.792,56.792-56.792s56.792,25.477,56.792,56.792     S287.315,374.182,256,374.182z M365.49,261.644H302c-0.262,0-0.521,0.014-0.776,0.04c-12.354-10.049-28.095-16.087-45.224-16.087     c-17.166,0-32.939,6.063-45.305,16.151c-0.39-0.063-0.787-0.104-1.195-0.104h-62.99l-6.412-50.466h231.806L365.49,261.644z      M394.512,193.647c0,1.395-1.135,2.53-2.53,2.53H120.019c-1.396,0-2.53-1.135-2.53-2.53v-23.168c0-1.395,1.135-2.53,2.53-2.53     h41.72c4.143,0,7.5-3.358,7.5-7.5s-3.357-7.5-7.5-7.5h-17.231v-3.576c0-6.313,4.723-11.669,10.984-12.461l113.188-14.312     c4.109-0.52,7.02-4.272,6.5-8.382c-0.519-4.109-4.276-7.018-8.381-6.5l-99.531,12.585v-8.803c0-6.312,4.723-11.669,10.985-12.461     l152.345-19.262c3.632-0.458,7.139,0.621,9.882,3.039c2.744,2.418,4.255,5.765,4.255,9.422v5.626l-43.412,5.489     c-4.109,0.52-7.02,4.272-6.5,8.382c0.519,4.109,4.271,7.014,8.381,6.5l50.154-6.342c3.631-0.458,7.139,0.621,9.882,3.039     c2.744,2.418,4.255,5.765,4.255,9.422v28.594H196.262c-4.143,0-7.5,3.358-7.5,7.5s3.357,7.5,7.5,7.5h195.72     c1.396,0,2.53,1.135,2.53,2.53V193.647z"/>
			<path id="XMLID_579_" d="M259.235,283.826c-8.893,1.431-17.722,6.15-24.859,13.289c-0.001,0-0.001,0-0.001,0     c-15.636,15.636-18.385,37.383-6.26,49.508c4.866,4.866,11.669,7.472,19.194,7.472c1.783,0,3.607-0.146,5.455-0.443     c8.893-1.431,17.722-6.15,24.86-13.289c15.636-15.636,18.385-37.383,6.26-49.508     C277.865,284.835,268.883,282.273,259.235,283.826z M244.981,307.721c4.854-4.854,10.918-8.165,16.637-9.085     c1.087-0.175,2.536-0.316,4.106-0.229l-30.087,30.087C235.255,322.127,238.609,314.094,244.981,307.721L244.981,307.721z      M267.019,329.756c-4.854,4.854-10.918,8.165-16.637,9.085c-1.087,0.175-2.536,0.317-4.107,0.229l30.087-30.088     C276.745,315.35,273.391,323.383,267.019,329.756z"/>
		</g>
	</g>
</g>















</svg>
