<?xml version="1.0" encoding="iso-8859-1"?>
<!-- Generator: Adobe Illustrator 19.0.0, SVG Export Plug-In . SVG Version: 6.00 Build 0)  -->
<svg xmlns="http://www.w3.org/2000/svg" xmlns:xlink="http://www.w3.org/1999/xlink" version="1.1" id="Layer_1" x="0px" y="0px" viewBox="0 0 512 512" style="enable-background:new 0 0 512 512;" xml:space="preserve" width="512" height="512">
<g id="XMLID_551_">
	<g id="XMLID_552_">
		<path id="XMLID_553_" d="M246.624,278.126c-16.784,16.784-16.784,44.093,0,60.877c8.13,8.131,18.94,12.608,30.438,12.608    c11.499,0,22.309-4.478,30.439-12.608c16.784-16.784,16.784-44.093,0-60.877c-8.13-8.131-18.94-12.608-30.439-12.608    C265.564,265.518,254.754,269.996,246.624,278.126z M296.895,328.397c-5.297,5.297-12.341,8.215-19.833,8.215    c-7.491,0-14.535-2.917-19.832-8.215c-10.935-10.936-10.935-28.729,0-39.664c5.297-5.297,12.341-8.215,19.832-8.215    c7.492,0,14.535,2.917,19.833,8.215C307.83,299.668,307.83,317.461,296.895,328.397z"/>
		<path id="XMLID_556_" d="M92.347,132.595c7.507,0,14.564-2.923,19.872-8.231c43.953-43.953,102.496-68.158,164.844-68.158    s120.891,24.206,164.843,68.158c10.956,10.957,28.785,10.957,39.744,0c10.957-10.957,10.957-28.786,0-39.744    C427.082,30.052,354.424,0,277.063,0C199.7,0,127.042,30.052,72.474,84.621c-10.956,10.958-10.956,28.786,0.001,39.744    C77.783,129.672,84.841,132.595,92.347,132.595z M83.081,95.227C134.816,43.492,203.707,15,277.063,15    c73.355,0,142.246,28.492,193.98,80.227c5.109,5.109,5.109,13.422,0.001,18.53c-5.109,5.108-13.423,5.109-18.531,0.001    c-46.785-46.786-109.094-72.552-175.45-72.552s-128.665,25.766-175.451,72.552c-2.474,2.475-5.765,3.837-9.265,3.837    c-3.5,0-6.791-1.363-9.266-3.838C77.973,108.648,77.973,100.335,83.081,95.227z"/>
		<path id="XMLID_559_" d="M130.748,149.347c-10.956,10.957-10.956,28.786,0,39.744c5.309,5.308,12.366,8.23,19.872,8.23    c7.505,0,14.563-2.923,19.872-8.231c28.411-28.412,66.258-44.059,106.57-44.06c40.312,0,78.159,15.647,106.57,44.06    c10.958,10.957,28.788,10.956,39.744,0c10.956-10.957,10.956-28.786,0-39.744c-39.028-39.027-90.99-60.521-146.314-60.521    C221.738,88.825,169.776,110.319,130.748,149.347z M412.77,178.483c-5.108,5.108-13.421,5.108-18.531,0    c-31.245-31.245-72.859-48.453-117.177-48.453c-44.319,0.001-85.933,17.209-117.176,48.453c-2.476,2.475-5.766,3.838-9.266,3.838    c-3.5,0-6.791-1.363-9.265-3.837c-5.109-5.109-5.109-13.422,0-18.531c36.195-36.194,84.39-56.128,135.708-56.128    c51.317,0,99.513,19.933,135.707,56.127C417.878,165.061,417.878,173.374,412.77,178.483z"/>
		<path id="XMLID_562_" d="M488.268,410.412h-48.18c4.871-9.103,7.494-19.354,7.494-29.766v-46.385c0-4.142-3.358-7.5-7.5-7.5    s-7.5,3.358-7.5,7.5v46.385c0,10.937-3.58,21.222-10.349,29.766H215.261c-4.142,0-7.5,3.358-7.5,7.5s3.358,7.5,7.5,7.5h273.006    c0.15,0,0.271,0.122,0.271,0.271v20.894c0,10.148-8.256,18.404-18.404,18.404H41.865c-10.148,0-18.404-8.256-18.404-18.404    v-20.894c0-0.15,0.122-0.271,0.271-0.271h157.006c4.142,0,7.5-3.358,7.5-7.5s-3.358-7.5-7.5-7.5h-50.145    c-0.132-0.214-0.276-0.424-0.432-0.627c-6.447-8.424-9.854-18.5-9.854-29.138V232.629c0-1.651,1.344-2.995,2.995-2.995h57.819    c-0.216,1.414-0.33,2.853-0.329,4.311c0,7.507,2.923,14.564,8.231,19.872c10.956,10.955,28.785,10.957,39.743,0    c12.9-12.901,30.052-20.005,48.296-20.005s35.396,7.104,48.296,20.005c5.308,5.308,12.365,8.231,19.872,8.231    s14.564-2.923,19.873-8.231c6.576-6.576,9.2-15.627,7.882-24.182h56.601c1.651,0,2.995,1.344,2.995,2.995v67.109    c0,4.142,3.358,7.5,7.5,7.5s7.5-3.358,7.5-7.5v-67.109c0-9.922-8.073-17.995-17.995-17.995H367c-0.429,0-0.847,0.044-1.256,0.113    c-0.212-0.226-0.421-0.454-0.641-0.675c-23.516-23.516-54.783-36.467-88.04-36.467s-64.524,12.951-88.04,36.468    c-0.183,0.183-0.357,0.374-0.534,0.561h-65.186c-9.922,0-17.995,8.073-17.995,17.995v12.913H79.342    c-31.552,0-57.222,25.67-57.222,57.223v23.242c0,31.553,25.67,57.223,57.222,57.223h26.017c0.383,9.616,2.907,18.834,7.404,27.181    H23.732c-8.421,0-15.271,6.851-15.271,15.271v20.894c0,18.419,14.985,33.404,33.404,33.404h19.705    C71.837,499.492,92.42,512,114.541,512h182.198c4.142,0,7.5-3.358,7.5-7.5s-3.358-7.5-7.5-7.5H114.541    c-14.009,0-26.8-6.343-35.182-17.02h353.286c-8.387,10.676-21.191,17.02-35.185,17.02h-66.198c-4.142,0-7.5,3.358-7.5,7.5    s3.358,7.5,7.5,7.5h66.198c22.445,0,42.588-12.228,52.968-32.02h19.707c18.419,0,33.404-14.985,33.404-33.404v-20.894    C503.539,417.262,496.688,410.412,488.268,410.412z M277.063,192.605c29.25,0,56.75,11.391,77.434,32.074    c5.108,5.109,5.108,13.422,0,18.531c-2.475,2.475-5.765,3.837-9.266,3.837c-3.5,0-6.791-1.363-9.265-3.837    c-15.733-15.734-36.652-24.399-58.903-24.399s-43.169,8.665-58.903,24.399c-5.108,5.108-13.422,5.108-18.53,0    c-2.475-2.475-3.838-5.766-3.838-9.265c0-3.5,1.363-6.79,3.837-9.265C220.312,203.996,247.812,192.605,277.063,192.605z     M105.307,341.993H79.342c-8.814,0-15.985-7.171-15.985-15.985v-23.242c0-8.814,7.171-15.985,15.985-15.985h25.965V341.993z     M37.12,326.007v-23.242c0-23.282,18.941-42.223,42.222-42.223h25.965v11.238H79.342c-17.085,0-30.985,13.9-30.985,30.985v23.242    c0,17.085,13.9,30.985,30.985,30.985h25.965v11.238H79.342C56.061,368.23,37.12,349.289,37.12,326.007z"/>
	</g>
</g>















</svg>
