<?xml version="1.0" encoding="iso-8859-1"?>
<!-- Generator: Adobe Illustrator 19.0.0, SVG Export Plug-In . SVG Version: 6.00 Build 0)  -->
<svg xmlns="http://www.w3.org/2000/svg" xmlns:xlink="http://www.w3.org/1999/xlink" version="1.1" id="Layer_1" x="0px" y="0px" viewBox="0 0 512 512" style="enable-background:new 0 0 512 512;" xml:space="preserve" width="512" height="512">
<g id="XMLID_538_">
	<g id="XMLID_539_">
		<path id="XMLID_540_" d="M400.683,441.827c-27.229-5.594-63.852-9.454-104.041-11.007c19.469-25.076,44.439-58.717,67.61-94.357    c2.257-3.473,1.273-8.118-2.2-10.376c-3.471-2.257-8.118-1.273-10.376,2.2c-36.78,56.572-78.198,108.12-94.297,127.656    c-0.443,0.538-0.995,0.651-1.379,0.651s-0.936-0.113-1.379-0.651c-26.8-32.52-160.49-198.811-160.49-279.074    C94.131,87.614,166.745,15,256,15s161.869,72.614,161.869,161.869c0,27.694-16.011,68.607-47.588,121.604    c-2.12,3.558-0.955,8.162,2.604,10.282c3.558,2.121,8.162,0.954,10.282-2.604c32.98-55.351,49.703-98.848,49.703-129.282    C432.869,79.343,353.526,0,256,0S79.131,79.343,79.131,176.869c0,68.379,84.645,187.664,136.192,253.952    c-40.015,1.548-76.482,5.38-103.682,10.94c-35.555,7.267-52.115,16.565-52.115,29.263c0,8.652,6.379,21.285,61.541,31.057    C157.178,508.477,205.098,512,256,512s98.822-3.523,134.934-9.92c55.162-9.772,61.541-22.405,61.541-31.057    C452.475,458.363,436.018,449.086,400.683,441.827z M383.711,488.098C349.004,493.839,303.649,497,256,497    s-93.004-3.161-127.711-8.902c-39.158-6.476-51.627-14.161-53.606-17.072c1.771-2.565,12.204-9.303,44.222-15.41    c28.421-5.421,66.725-9.029,107.924-10.169c6.322,7.943,11.838,14.723,16.217,20.036c3.201,3.884,7.922,6.111,12.954,6.111    s9.753-2.227,12.955-6.111c4.003-4.857,9.561-11.681,16.212-20.051c0.098,0.007,0.193,0.02,0.292,0.023    c41.243,1.152,79.583,4.782,107.958,10.223c31.774,6.092,42.136,12.796,43.901,15.349    C435.338,473.938,422.869,481.622,383.711,488.098z"/>
		<path id="XMLID_543_" d="M364.278,166.289c0-59.705-48.573-108.278-108.278-108.278c-21.28,0-41.885,6.178-59.586,17.865    c-3.457,2.282-4.409,6.935-2.126,10.391c2.282,3.458,6.934,4.408,10.391,2.126C219.92,78.33,237.667,73.011,256,73.011    c51.434,0,93.278,41.845,93.278,93.278S307.434,259.567,256,259.567c-19.005,0-37.293-5.684-52.886-16.438    c-3.41-2.354-8.081-1.495-10.432,1.916c-2.352,3.41-1.494,8.08,1.917,10.432c18.108,12.489,39.341,19.09,61.402,19.09    C315.705,274.567,364.278,225.994,364.278,166.289z"/>
		<path id="XMLID_544_" d="M179.896,99.805c-3.311-2.488-8.013-1.822-10.501,1.49c-14.178,18.864-21.672,41.339-21.672,64.994    c0,22.866,7.048,44.733,20.382,63.236c1.466,2.034,3.761,3.116,6.091,3.116c1.519,0,3.052-0.46,4.378-1.416    c3.36-2.421,4.122-7.109,1.7-10.469c-11.482-15.934-17.551-34.768-17.551-54.467c0-20.378,6.454-39.737,18.664-55.982    C183.874,106.996,183.207,102.294,179.896,99.805z"/>
		<path id="XMLID_545_" d="M250.675,216.175c12.361-1.989,24.668-8.584,34.654-18.57s16.581-22.293,18.57-34.655    c2.133-13.257-1.189-25.055-9.354-33.22c-8.166-8.166-19.964-11.489-33.22-9.354c-12.361,1.989-24.669,8.584-34.654,18.57    c-9.986,9.986-16.581,22.293-18.57,34.654c-2.133,13.257,1.189,25.055,9.354,33.22c6.551,6.551,15.439,9.985,25.545,9.985    C245.49,216.806,248.054,216.597,250.675,216.175z M274.723,186.999c-7.773,7.772-17.16,12.875-26.431,14.367    c-5.132,0.827-9.814,0.454-13.747-1.029l53.5-53.5C292.199,158.007,287.131,174.59,274.723,186.999z M237.277,149.553    c9.548-9.548,21.571-14.754,31.695-14.754c3.033,0,5.892,0.474,8.467,1.432l-53.484,53.484    C219.801,178.544,224.869,161.961,237.277,149.553z"/>
		<path id="XMLID_549_" d="M246.375,340.097c-4.142,0-7.5,3.358-7.5,7.5s3.358,7.5,7.5,7.5h19.251c4.142,0,7.5-3.358,7.5-7.5    s-3.358-7.5-7.5-7.5H246.375z"/>
		<path id="XMLID_550_" d="M298.232,320.257c0-4.142-3.358-7.5-7.5-7.5h-69.464c-4.142,0-7.5,3.358-7.5,7.5s3.358,7.5,7.5,7.5    h69.464C294.874,327.757,298.232,324.399,298.232,320.257z"/>
	</g>
</g>















</svg>
