<?xml version="1.0" encoding="iso-8859-1"?>
<!-- Generator: Adobe Illustrator 19.0.0, SVG Export Plug-In . SVG Version: 6.00 Build 0)  -->
<svg xmlns="http://www.w3.org/2000/svg" xmlns:xlink="http://www.w3.org/1999/xlink" version="1.1" id="Layer_1" x="0px" y="0px" viewBox="0 0 512 512" style="enable-background:new 0 0 512 512;" xml:space="preserve" width="512" height="512">
<g id="XMLID_523_">
	<g id="XMLID_524_">
		<path id="XMLID_525_" d="M448.855,76.991H135.13c-9.649,0-17.5,7.851-17.5,17.5v47.454H81.799V7.5c0-4.142-3.358-7.5-7.5-7.5    s-7.5,3.358-7.5,7.5v134.445H49.896V7.5c0-4.142-3.358-7.5-7.5-7.5s-7.5,3.358-7.5,7.5v135.141    c-5.367,1.786-9.252,6.846-9.252,12.805v14.5c0,5.959,3.885,11.019,9.252,12.805v146.499c-5.367,1.786-9.252,6.846-9.252,12.805    v14.5c0,5.959,3.885,11.019,9.252,12.805V504.5c0,4.142,3.358,7.5,7.5,7.5s7.5-3.358,7.5-7.5V370.054h16.902V504.5    c0,4.142,3.358,7.5,7.5,7.5s7.5-3.358,7.5-7.5V370.054h35.832v47.455c0,9.649,7.851,17.5,17.5,17.5H363.55    c4.143,0,7.5-3.358,7.5-7.5s-3.357-7.5-7.5-7.5H135.13c-1.378,0-2.5-1.122-2.5-2.5v-47.455h15v27.466c0,4.142,3.358,7.5,7.5,7.5    h293.717c4.143,0,7.5-3.358,7.5-7.5V114.479c0-4.142-3.357-7.5-7.5-7.5H266.073c-4.143,0-7.5,3.358-7.5,7.5s3.357,7.5,7.5,7.5    h175.273v268.041H162.63v-19.966h12.598c11.441,0,20.75-9.309,20.75-20.75s-9.309-20.75-20.75-20.75H162.63V183.445h12.598    c11.441,0,20.75-9.309,20.75-20.75s-9.309-20.75-20.75-20.75H162.63v-19.966h68.92c4.142,0,7.5-3.358,7.5-7.5s-3.358-7.5-7.5-7.5    h-76.42c-4.142,0-7.5,3.358-7.5,7.5v27.466h-15V94.491c0-1.378,1.122-2.5,2.5-2.5h313.725c12.406,0,22.5,10.093,22.5,22.5v283.018    c0,12.407-10.094,22.5-22.5,22.5h-50.782c-4.143,0-7.5,3.358-7.5,7.5s3.357,7.5,7.5,7.5h50.782c20.678,0,37.5-16.822,37.5-37.5    V114.491C486.355,93.813,469.533,76.991,448.855,76.991z M49.896,328.554V183.445h16.902v145.109H49.896z M180.978,349.304    c0,3.17-2.58,5.75-5.75,5.75H40.645v-11.5h134.583C178.398,343.554,180.978,346.134,180.978,349.304z M147.63,328.554h-15V183.445    h15V328.554z M180.978,162.696c0,3.17-2.58,5.75-5.75,5.75h-58.155c-4.142,0-7.5,3.358-7.5,7.5s3.358,7.5,7.5,7.5h0.558v145.109    H81.799V183.445h0.751c4.142,0,7.5-3.358,7.5-7.5s-3.358-7.5-7.5-7.5H40.645v-11.5h134.583    C178.398,156.945,180.978,159.525,180.978,162.696z"/>
		<path id="XMLID_531_" d="M303.065,156.24c-13.82,2.224-27.591,9.608-38.774,20.791c-11.183,11.184-18.566,24.954-20.791,38.774    c-2.368,14.716,1.302,27.793,10.333,36.825c7.24,7.24,17.081,11.034,28.282,11.034c2.771,0,5.625-0.232,8.543-0.702    c13.82-2.224,27.591-9.608,38.774-20.791c11.183-11.183,18.566-24.953,20.79-38.774c2.368-14.716-1.301-27.794-10.332-36.825    S317.781,153.87,303.065,156.24z M274.898,187.638c8.97-8.97,19.819-14.861,30.55-16.588c6.634-1.067,12.638-0.417,17.546,1.812    l-62.855,62.856C254.304,222.667,260.012,202.524,274.898,187.638z M335.414,201.015c-1.728,10.73-7.618,21.58-16.589,30.55    c-8.97,8.97-19.819,14.861-30.55,16.588c-6.634,1.067-12.639,0.417-17.546-1.812l62.873-62.873    C335.832,188.376,336.481,194.382,335.414,201.015z"/>
		<path id="XMLID_535_" d="M316.607,309.449c4.143,0,7.5-3.358,7.5-7.5s-3.357-7.5-7.5-7.5h-31.593c-4.143,0-7.5,3.358-7.5,7.5    s3.357,7.5,7.5,7.5H316.607z"/>
		<path id="XMLID_536_" d="M365.312,329.29c0-4.142-3.357-7.5-7.5-7.5h-114c-4.142,0-7.5,3.358-7.5,7.5s3.358,7.5,7.5,7.5h114    C361.954,336.79,365.312,333.432,365.312,329.29z"/>
		<path id="XMLID_537_" d="M285.015,356.632c-4.143,0-7.5,3.358-7.5,7.5s3.357,7.5,7.5,7.5h31.593c4.143,0,7.5-3.358,7.5-7.5    s-3.357-7.5-7.5-7.5H285.015z"/>
	</g>
</g>















</svg>
