<?xml version="1.0" encoding="iso-8859-1"?>
<!-- Generator: Adobe Illustrator 19.0.0, SVG Export Plug-In . SVG Version: 6.00 Build 0)  -->
<svg xmlns="http://www.w3.org/2000/svg" xmlns:xlink="http://www.w3.org/1999/xlink" version="1.1" id="Layer_1" x="0px" y="0px" viewBox="0 0 512 512" style="enable-background:new 0 0 512 512;" xml:space="preserve" width="512" height="512">
<g id="XMLID_503_">
	<g id="XMLID_504_">
		<path id="XMLID_505_" d="M484.5,218.001h-29.753c-0.219-0.34-0.461-0.671-0.741-0.981L284.661,29.832    c-0.104-0.115-0.215-0.217-0.324-0.324C282.816,15.215,270.689,4.043,256,4.043s-26.816,11.172-28.337,25.465    c-0.109,0.107-0.221,0.209-0.324,0.324L57.994,217.02c-0.281,0.31-0.522,0.641-0.741,0.981H27.5c-15.164,0-27.5,12.336-27.5,27.5    v234.956c0,15.164,12.336,27.5,27.5,27.5h457c15.164,0,27.5-12.336,27.5-27.5V245.501C512,230.338,499.664,218.001,484.5,218.001z     M256,19.043c7.444,0,13.5,6.056,13.5,13.5s-6.056,13.5-13.5,13.5s-13.5-6.056-13.5-13.5S248.556,19.043,256,19.043z     M231.683,47.389c5.014,8.182,14.038,13.654,24.317,13.654s19.303-5.471,24.317-13.654l154.349,170.612h-97.029    c-2.025-13.71-7.403-26.624-15.874-37.873c-2.492-3.308-7.192-3.971-10.503-1.479c-3.309,2.492-3.972,7.194-1.479,10.503    c9.014,11.969,13.777,26.233,13.777,41.25c0,37.853-30.796,68.648-68.648,68.648s-68.648-30.795-68.648-68.648    c0-37.853,30.796-68.648,68.648-68.648c10.844,0,21.237,2.473,30.891,7.349c3.7,1.869,8.21,0.384,10.076-3.313    c1.867-3.697,0.385-8.208-3.313-10.076c-11.771-5.945-24.439-8.96-37.654-8.96c-41.911,0-76.714,30.984-82.724,71.248H77.333    L231.683,47.389z M497,480.457c0,6.893-5.607,12.5-12.5,12.5h-457c-6.893,0-12.5-5.607-12.5-12.5V245.501    c0-6.893,5.607-12.5,12.5-12.5h143.828c0.158,5.128,0.768,10.142,1.813,15H37.5c-4.143,0-7.5,3.358-7.5,7.5v42.238    c0,4.142,3.357,7.5,7.5,7.5s7.5-3.358,7.5-7.5v-34.738h132.878c12.733,29.974,42.467,51.048,77.032,51.048    s64.299-21.074,77.032-51.048H467v199.956h-55.738c-4.143,0-7.5,3.358-7.5,7.5s3.357,7.5,7.5,7.5H474.5c4.143,0,7.5-3.358,7.5-7.5    V255.502c0-4.142-3.357-7.5-7.5-7.5H336.679c1.045-4.858,1.656-9.872,1.813-15H484.5c6.893,0,12.5,5.607,12.5,12.5V480.457z"/>
		<path id="XMLID_510_" d="M376.738,462.958H45V332.262c0-4.142-3.357-7.5-7.5-7.5s-7.5,3.358-7.5,7.5v138.195    c0,4.142,3.357,7.5,7.5,7.5h339.238c4.143,0,7.5-3.358,7.5-7.5S380.881,462.958,376.738,462.958z"/>
		<path id="XMLID_511_" d="M129.771,428.823h27.002c8.813,0,15.982-7.17,15.982-15.982v-62.379c0-8.813-7.17-15.982-15.982-15.982    h-27.002c-8.813,0-15.982,7.17-15.982,15.982v62.379C113.789,421.654,120.959,428.823,129.771,428.823z M128.789,350.462    c0-0.542,0.44-0.982,0.982-0.982h27.002c0.542,0,0.982,0.441,0.982,0.982v62.379c0,0.542-0.44,0.982-0.982,0.982h-27.002    c-0.542,0-0.982-0.441-0.982-0.982V350.462z"/>
		<path id="XMLID_514_" d="M196.441,428.823c4.143,0,7.5-3.358,7.5-7.5v-37.066h27.983c8.813,0,15.982-7.17,15.982-15.982v-17.813    c0-8.813-7.17-15.982-15.982-15.982h-35.483c-4.143,0-7.5,3.358-7.5,7.5v79.344C188.941,425.466,192.299,428.823,196.441,428.823z     M203.941,349.48h27.983c0.542,0,0.982,0.441,0.982,0.982v17.813c0,0.542-0.44,0.982-0.982,0.982h-27.983V349.48z"/>
		<path id="XMLID_517_" d="M280.075,428.823h35.483c4.143,0,7.5-3.358,7.5-7.5s-3.357-7.5-7.5-7.5h-35.483    c-0.542,0-0.982-0.441-0.982-0.982v-23.689h25.995c4.143,0,7.5-3.358,7.5-7.5s-3.357-7.5-7.5-7.5h-25.995v-23.689    c0-0.542,0.44-0.982,0.982-0.982h35.483c4.143,0,7.5-3.358,7.5-7.5s-3.357-7.5-7.5-7.5h-35.483    c-8.813,0-15.982,7.17-15.982,15.982v62.379C264.093,421.654,271.263,428.823,280.075,428.823z"/>
		<path id="XMLID_518_" d="M390.711,334.48c-4.143,0-7.5,3.358-7.5,7.5v50.335l-29.906-53.97c-1.657-2.991-5.131-4.48-8.438-3.626    c-3.311,0.856-5.623,3.842-5.623,7.261v79.344c0,4.142,3.357,7.5,7.5,7.5s7.5-3.358,7.5-7.5v-50.335l29.906,53.97    c1.345,2.426,3.882,3.865,6.56,3.865c0.623,0,1.254-0.078,1.878-0.239c3.311-0.856,5.623-3.842,5.623-7.261V341.98    C398.211,337.838,394.854,334.48,390.711,334.48z"/>
		<path id="XMLID_519_" d="M230.275,207.366c-17.97,17.971-21.227,42.869-7.414,56.682c5.634,5.633,13.302,8.357,21.611,8.357    c11.727,0,24.729-5.429,35.07-15.772c8.251-8.25,13.703-18.438,15.353-28.685c1.793-11.143-1.025-21.086-7.938-27.998    C273.146,186.14,248.247,189.396,230.275,207.366z M240.883,217.972L240.883,217.972c8.771-8.771,20.174-12.852,28.508-11.061    l-39.569,39.569C228.03,238.145,232.112,226.744,240.883,217.972z M280.086,225.565c-1.152,7.158-5.111,14.424-11.149,20.462    c-8.771,8.772-20.174,12.853-28.509,11.061l39.552-39.551C280.498,219.949,280.555,222.65,280.086,225.565z"/>
	</g>
</g>















</svg>
