<?xml version="1.0" encoding="iso-8859-1"?>
<!-- Generator: Adobe Illustrator 19.0.0, SVG Export Plug-In . SVG Version: 6.00 Build 0)  -->
<svg xmlns="http://www.w3.org/2000/svg" xmlns:xlink="http://www.w3.org/1999/xlink" version="1.1" id="Layer_1" x="0px" y="0px" viewBox="0 0 512 512" style="enable-background:new 0 0 512 512;" xml:space="preserve" width="512" height="512">
<g id="XMLID_843_">
	<g id="XMLID_844_">
		<g id="XMLID_845_">
			<path id="XMLID_846_" d="M475.536,112.449h-80.357c-9.503,0-17.235,7.732-17.235,17.235v9.045h-12.897v-26.888     c0-0.404-0.041-0.797-0.102-1.184c5.355-7.417,8.523-16.513,8.523-26.339V50.416h2.177c11.458,0,20.78-9.322,20.78-20.78V20.78     c0-11.458-9.322-20.78-20.78-20.78H55.415c-11.458,0-20.78,9.322-20.78,20.78v8.856c0,11.458,9.322,20.78,20.78,20.78h2.177     v33.903c0,9.827,3.168,18.922,8.523,26.339c-0.061,0.386-0.102,0.78-0.102,1.184v84.897c0,4.142,3.358,7.5,7.5,7.5     s7.5-3.358,7.5-7.5v-72.881c6.44,3.547,13.832,5.57,21.689,5.57c15.688,0,29.525-8.054,37.609-20.24     c8.085,12.186,21.922,20.24,37.609,20.24s29.525-8.054,37.609-20.24c8.085,12.186,21.922,20.24,37.609,20.24     s29.525-8.054,37.609-20.24c8.085,12.186,21.922,20.24,37.609,20.24c7.857,0,15.249-2.023,21.689-5.57V449.29h-27.785     c-4.142,0-7.5,3.358-7.5,7.5s3.358,7.5,7.5,7.5h53.382c3.187,0,5.78,2.593,5.78,5.78v8.855c0,3.188-2.593,5.78-5.78,5.78H149.985     V464.29h137.754c4.142,0,7.5-3.358,7.5-7.5s-3.358-7.5-7.5-7.5H149.985V330.724c0-9.649-7.851-17.5-17.5-17.5H81.012v-81.963     c0-4.142-3.358-7.5-7.5-7.5s-7.5,3.358-7.5,7.5v81.963H23.984c-9.649,0-17.5,7.851-17.5,17.5V494.5c0,9.649,7.851,17.5,17.5,17.5     h108.5c7.837,0,14.487-5.179,16.709-12.294h226.45c11.458,0,20.78-9.322,20.78-20.78v-8.855c0-11.458-9.322-20.78-20.78-20.78     h-10.597V210.334h12.897v9.045c0,9.503,7.732,17.235,17.235,17.235h19.56c4.142,0,7.5-3.358,7.5-7.5s-3.358-7.5-7.5-7.5h-19.56     c-1.232,0-2.235-1.003-2.235-2.235v-9.045h3.744c4.142,0,7.5-3.358,7.5-7.5s-3.358-7.5-7.5-7.5h-3.744v-41.604h3.744     c4.142,0,7.5-3.358,7.5-7.5s-3.358-7.5-7.5-7.5h-3.744v-9.045c0-1.232,1.003-2.235,2.235-2.235h80.357     c8.26,0,14.979,6.72,14.979,14.979v64.206c0,8.26-6.72,14.98-14.979,14.98h-26.275c-4.142,0-7.5,3.358-7.5,7.5s3.358,7.5,7.5,7.5     h26.275c16.531,0,29.979-13.449,29.979-29.98v-64.206C505.516,125.898,492.067,112.449,475.536,112.449z M134.985,494.5     c0,1.378-1.122,2.5-2.5,2.5h-108.5c-1.378,0-2.5-1.122-2.5-2.5V330.724c0-1.378,1.122-2.5,2.5-2.5h108.5     c1.378,0,2.5,1.122,2.5,2.5V494.5z M49.635,29.636V20.78c0-3.187,2.593-5.78,5.78-5.78h320.229c3.187,0,5.78,2.593,5.78,5.78     v8.856c0,3.187-2.593,5.78-5.78,5.78H55.415C52.228,35.416,49.635,32.823,49.635,29.636z M102.701,114.428     c-16.603,0-30.109-13.507-30.109-30.109V50.416h60.219v33.903C132.811,100.921,119.304,114.428,102.701,114.428z M177.92,114.428     c-16.603,0-30.109-13.507-30.109-30.109V50.416h60.219v33.903C208.029,100.921,194.522,114.428,177.92,114.428z M253.139,114.428     c-16.603,0-30.109-13.507-30.109-30.109V50.416h60.219v33.903C283.248,100.921,269.741,114.428,253.139,114.428z      M328.357,114.428c-16.603,0-30.109-13.507-30.109-30.109V50.416h60.219v33.903C358.467,100.921,344.96,114.428,328.357,114.428z      M377.943,195.334h-12.897v-41.604h12.897V195.334z"/>
			<path id="XMLID_855_" d="M468.801,149.46c-10.984-10.986-30.604-8.579-44.663,5.48c-14.059,14.059-16.466,33.677-5.48,44.663     c4.632,4.633,10.8,6.884,17.439,6.884c9.104,0,19.094-4.234,27.224-12.364C477.379,180.064,479.787,160.446,468.801,149.46z      M449.922,157.732l-22.98,22.98c0.492-4.891,3.234-10.597,7.803-15.166C439.316,160.976,445.029,158.223,449.922,157.732z      M437.548,191.32l22.969-22.969c-0.492,4.891-3.234,10.597-7.803,15.166C448.145,188.085,442.439,190.827,437.548,191.32z"/>
			<path id="XMLID_859_" d="M215.529,139.973c-37.238,0-67.534,30.295-67.534,67.533v51.11h-5.071     c-11.472,0-20.805,9.333-20.805,20.805c0,11.472,9.333,20.805,20.805,20.805h145.209c11.472,0,20.805-9.333,20.805-20.805     c0-11.472-9.333-20.805-20.805-20.805h-5.071v-51.11C283.063,170.269,252.768,139.973,215.529,139.973z M162.996,207.506     c0-28.967,23.566-52.533,52.534-52.533s52.534,23.566,52.534,52.533v51.11H162.996V207.506z M293.939,279.421     c0,3.201-2.604,5.805-5.805,5.805H142.925c-3.201,0-5.805-2.604-5.805-5.805c0-3.201,2.604-5.805,5.805-5.805h145.209     C291.335,273.616,293.939,276.22,293.939,279.421z"/>
			<path id="XMLID_863_" d="M70.625,412.664c1.611,0,3.258-0.132,4.926-0.401c7.978-1.284,15.888-5.508,22.275-11.895     s10.611-14.297,11.895-22.275c1.407-8.744-0.931-16.905-6.415-22.388c-10.984-10.986-30.604-8.579-44.663,5.48     c-14.059,14.059-16.466,33.677-5.48,44.663C57.6,410.287,63.79,412.664,70.625,412.664z M87.219,389.762     c-4.113,4.113-9.235,6.917-14.052,7.692c-0.341,0.055-0.73,0.105-1.147,0.144l23.034-23.034     c-0.039,0.417-0.088,0.805-0.143,1.147C94.136,380.527,91.333,385.648,87.219,389.762z M84.427,363.978l-22.981,22.981     c0.492-4.891,3.234-10.597,7.803-15.166C73.821,367.221,79.534,364.468,84.427,363.978z"/>
			<path id="XMLID_867_" d="M68.022,434.568c-4.142,0-7.5,3.358-7.5,7.5s3.358,7.5,7.5,7.5h20.424c4.142,0,7.5-3.358,7.5-7.5     s-3.358-7.5-7.5-7.5H68.022z"/>
			<path id="XMLID_868_" d="M108.901,461.34H47.568c-4.142,0-7.5,3.358-7.5,7.5s3.358,7.5,7.5,7.5h61.333c4.142,0,7.5-3.358,7.5-7.5     S113.043,461.34,108.901,461.34z"/>
			<path id="XMLID_869_" d="M302.751,341.688l-21.336-21.335c-3.407-3.407-8.484-4.417-12.936-2.573     c-3.077,1.274-5.401,3.725-6.543,6.708h-19.103c-6.545,0-11.87,5.325-11.87,11.87v27.448c0,6.545,5.325,11.87,11.87,11.87h19.103     c1.142,2.983,3.466,5.434,6.543,6.708c1.478,0.612,3.023,0.909,4.555,0.909c3.083,0,6.105-1.206,8.381-3.482l21.336-21.335     C307.379,353.847,307.379,346.316,302.751,341.688z M275.304,364.708c-1.251-2.397-3.761-4.033-6.652-4.033h-22.688v-21.188     h22.688c2.891,0,5.4-1.636,6.652-4.033l14.627,14.627L275.304,364.708z"/>
			<path id="XMLID_872_" d="M241.31,407.446h11.424c4.142,0,7.5-3.358,7.5-7.5s-3.358-7.5-7.5-7.5H241.31     c-4.142,0-7.5,3.358-7.5,7.5S237.167,407.446,241.31,407.446z"/>
			<path id="XMLID_873_" d="M241.31,434.219h37.702c4.142,0,7.5-3.358,7.5-7.5s-3.358-7.5-7.5-7.5H241.31     c-4.142,0-7.5,3.358-7.5,7.5S237.167,434.219,241.31,434.219z"/>
		</g>
	</g>
</g>















</svg>
