<?xml version="1.0" encoding="iso-8859-1"?>
<!-- Generator: Adobe Illustrator 19.0.0, SVG Export Plug-In . SVG Version: 6.00 Build 0)  -->
<svg xmlns="http://www.w3.org/2000/svg" xmlns:xlink="http://www.w3.org/1999/xlink" version="1.1" id="Layer_1" x="0px" y="0px" viewBox="0 0 511.998 511.998" style="enable-background:new 0 0 511.998 511.998;" xml:space="preserve" width="512" height="512">
<g id="XMLID_450_">
	<g id="XMLID_451_">
		<g id="XMLID_452_">
			<path id="XMLID_453_" d="M430.636,418.629c-29.601,23.117-64.965,35.662-102.476,36.396c0.283-0.742,0.545-1.494,0.781-2.258     c3.924-12.708,0.729-26.585-8.996-39.076c-9.112-11.703-23.05-20.902-39.248-25.904c-16.197-5.001-32.896-5.262-47.02-0.735     c-12.623,4.047-21.995,11.488-27.019,21.259c-34.629-32.543-54.333-77.834-54.333-125.587c0-6.516,0.367-13.054,1.093-19.51     c1.426,0.203,2.869,0.316,4.327,0.316c14.908,0,31.07-10.478,41.141-28.206c0,0,0,0,0,0c13.496-23.759,10.204-50.246-7.496-60.3     c-0.294-0.167-0.594-0.313-0.892-0.468c11.558-14.33,25.236-26.645,40.754-36.675c3.479-2.248,4.477-6.891,2.228-10.37     c-2.248-3.479-6.891-4.476-10.37-2.228c-19.084,12.334-35.603,27.851-49.122,46.12c-14.067,1.256-28.813,11.482-38.231,28.063     c-6.191,10.899-9.036,22.945-8.011,33.918c0.932,9.971,4.918,18.127,11.355,23.492c-1.175,8.519-1.778,17.202-1.778,25.849     c0,3.36,0.093,6.708,0.271,10.042c-12.764,6.433-20.885,19.477-20.885,33.921c0,20.95,17.043,37.993,37.993,37.993     c0.489,0,0.979-0.023,1.47-0.042c6.106,12.555,13.613,24.438,22.432,35.408c-20.227-1.012-39.998-5.593-58.901-13.664     c-26.318-11.238-49.571-28.95-67.245-51.221c-2.575-3.244-7.292-3.788-10.537-1.213s-3.788,7.292-1.213,10.537     c19.219,24.219,44.499,43.477,73.104,55.691c23.468,10.021,48.168,15.096,73.451,15.096c0.7,0,1.4-0.004,2.1-0.012     c0.863-0.01,1.687-0.172,2.455-0.449c3.445,3.464,7.043,6.801,10.78,10.014c-0.07,9.578,3.53,19.407,10.612,28.502     c9.111,11.703,23.049,20.902,39.247,25.903c8.523,2.632,17.182,3.951,25.535,3.951c7.521,0,14.793-1.07,21.485-3.216     c7.199-2.308,13.331-5.727,18.217-10.043c2.318,0.084,4.652,0.137,6.966,0.137c42.187,0,82.024-13.697,115.206-39.609     c3.265-2.549,3.844-7.263,1.295-10.527C438.614,416.659,433.901,416.079,430.636,418.629z M148.803,206.874     c7.134-12.56,18.686-20.572,28.174-20.572c2.521,0,4.898,0.567,7.006,1.764c10.04,5.703,10.892,23.951,1.861,39.849v0     c-9.03,15.897-25.142,24.51-35.181,18.808c-6.067-3.446-7.604-10.711-7.979-14.735     C141.942,224.045,144.115,215.126,148.803,206.874z M131.712,326.688c0-6.627,2.833-12.759,7.563-17.041     c1.961,13.544,5.389,26.755,10.185,39.423C139.302,346.69,131.712,337.562,131.712,326.688z M294.901,465.684     c-11.225,3.597-24.726,3.32-38.015-0.784c-26.035-8.04-43.591-29.207-38.337-46.222c3.826-12.389,18.876-19.776,36.828-19.776     c6.705,0,13.816,1.031,20.896,3.217c26.035,8.04,43.591,29.207,38.337,46.222C312.173,456.231,305.174,462.39,294.901,465.684z"/>
			<path id="XMLID_458_" d="M498.333,212.386c2.122-6.933,2.508-14.778,1.021-23.16c-2.592-14.603-10.621-29.247-22.608-41.234     s-26.631-20.016-41.234-22.608c-3.658-0.649-7.212-0.931-10.637-0.882c-0.255-0.211-0.52-0.414-0.808-0.594     c-29.75-18.658-64.123-28.52-99.404-28.52c-1.577,0-3.151,0.022-4.723,0.06c-0.005-0.005-0.008-0.01-0.013-0.014     c-16.923-16.945-36.767-30.347-58.978-39.831c-21.767-9.294-44.697-14.347-68.153-15.019c-0.581-0.018-1.145,0.036-1.689,0.143     c-5.574-4.766-12.714-8.263-21.112-10.211c-14.447-3.351-31.068-1.717-46.799,4.599c0,0,0,0,0,0     c-15.731,6.317-28.866,16.632-36.984,29.044c-2.144,3.278-3.879,6.607-5.207,9.949c-0.749,0.229-1.476,0.574-2.15,1.053     c-28.111,19.937-50.159,47.311-63.76,79.163c-21.953,51.412-19.88,109.451,5.688,159.236c1.33,2.588,3.956,4.075,6.678,4.075     c1.153,0,2.324-0.267,3.42-0.83c3.685-1.892,5.138-6.413,3.245-10.098C10.603,260.904,8.695,207.51,28.89,160.214     c10.947-25.637,27.837-48.117,49.203-65.618c0.384,3.16,1.165,6.255,2.366,9.246c4.956,12.342,16.178,21.109,31.599,24.686     c4.907,1.138,10.063,1.701,15.353,1.701c10.282,0,21.059-2.129,31.447-6.3c15.732-6.317,28.866-16.631,36.984-29.043     c8.45-12.919,10.583-26.637,6.089-38.755c18.238,1.542,36.068,5.984,53.127,13.268c16.338,6.977,31.275,16.259,44.562,27.659     c-15.321,2.046-30.286,5.97-44.712,11.761c-3.844,1.543-5.709,5.91-4.166,9.754c1.542,3.844,5.913,5.708,9.754,4.166     c20.413-8.195,42.002-12.35,64.167-12.35c27.897,0,55.165,6.717,79.649,19.494c-2.748,1.592-5.281,3.522-7.555,5.796     c-9.404,9.404-13.06,23.167-10.293,38.754c2.592,14.603,10.621,29.247,22.608,41.234c11.987,11.987,26.631,20.016,41.234,22.608     c3.396,0.603,6.705,0.901,9.902,0.901c11.113,0,20.856-3.611,28.141-10.52c5.743,17.37,8.65,35.504,8.65,54.069     c0,41.636-15.052,81.833-42.383,113.186c-2.722,3.122-2.397,7.86,0.725,10.582c1.421,1.239,3.177,1.847,4.925,1.847     c2.092,0,4.174-0.871,5.656-2.572c29.713-34.085,46.076-77.782,46.076-123.042C511.998,258.393,507.395,234.736,498.333,212.386z      M183.289,86.675c-6.452,9.865-17.113,18.151-30.02,23.334c-25.288,10.155-52.254,4.77-58.89-11.755     c-6.636-16.526,9.121-39.065,34.406-49.218h0c12.907-5.182,26.338-6.569,37.822-3.907c10.509,2.438,17.991,8,21.068,15.663     C190.752,68.454,189.194,77.647,183.289,86.675z M452.927,223.504c-11.606-2.06-23.414-8.61-33.249-18.445     c-19.267-19.267-24.906-46.183-12.314-58.775c4.557-4.557,10.989-6.726,18.256-6.726c12.814,0,28.225,6.746,40.52,19.041     c9.834,9.835,16.385,21.643,18.445,33.249c1.885,10.622-0.292,19.688-6.131,25.526S463.551,225.392,452.927,223.504z"/>
			<path id="XMLID_462_" d="M411.186,337.161c0-18.208-14.813-33.021-33.021-33.021s-33.021,14.813-33.021,33.021     s14.813,33.021,33.021,33.021S411.186,355.369,411.186,337.161z M360.144,337.161c0-9.937,8.084-18.021,18.021-18.021     s18.021,8.084,18.021,18.021s-8.084,18.021-18.021,18.021S360.144,347.098,360.144,337.161z"/>
			<path id="XMLID_465_" d="M290.075,306.382c20.949,0,37.993-17.043,37.993-37.993c0-20.95-17.043-37.993-37.993-37.993     c-20.95,0-37.993,17.043-37.993,37.993C252.081,289.338,269.125,306.382,290.075,306.382z M290.075,245.396     c12.678,0,22.993,10.315,22.993,22.993c0,12.678-10.314,22.993-22.993,22.993s-22.993-10.314-22.993-22.993     C267.081,255.711,277.396,245.396,290.075,245.396z"/>
			<path id="XMLID_468_" d="M110.622,257.747c0-15.121-12.302-27.422-27.422-27.422s-27.422,12.302-27.422,27.422     c0,15.121,12.302,27.422,27.422,27.422S110.622,272.867,110.622,257.747z M70.777,257.747c0-6.85,5.573-12.422,12.422-12.422     s12.422,5.573,12.422,12.422c0,6.85-5.573,12.422-12.422,12.422S70.777,264.596,70.777,257.747z"/>
		</g>
	</g>
</g>















</svg>
