<?xml version="1.0" encoding="iso-8859-1"?>
<!-- Generator: Adobe Illustrator 19.0.0, SVG Export Plug-In . SVG Version: 6.00 Build 0)  -->
<svg xmlns="http://www.w3.org/2000/svg" xmlns:xlink="http://www.w3.org/1999/xlink" version="1.1" id="Layer_1" x="0px" y="0px" viewBox="0 0 512 512" style="enable-background:new 0 0 512 512;" xml:space="preserve" width="512" height="512">
<g id="XMLID_435_">
	<g id="XMLID_436_">
		<path id="XMLID_437_" d="M496.455,360.334h-20.333c22.516-22.916,30.432-58.067,21.157-94.211    c-1.572-6.123-6.351-10.904-12.473-12.478c-15.793-4.062-31.399-4.834-45.881-2.541l-29.043-116.312    c-3.063-12.269-14.034-20.838-26.681-20.838h-75.207c3.491-9.972,3.177-23.882-8.668-42.011    c-16.914-25.889-38.944-31.837-62.035-16.753c-18.021,11.775-36.342,36.508-37.457,58.764h-71.037    c-12.646,0-23.618,8.569-26.681,20.838L64.216,286.579c-1.004,4.019,1.44,8.09,5.459,9.093c0.61,0.152,1.222,0.226,1.823,0.226    c3.361,0,6.42-2.276,7.271-5.685l17.594-70.459c5.87,4.514,13.145,7.085,20.857,7.085h0.88c15.979,0,28.98,12.929,28.98,28.82    v39.82c0,16.592,13.498,30.09,30.09,30.09c8.033,0,15.588-3.131,21.272-8.816c5.687-5.685,8.817-13.24,8.817-21.274v-53.35    c0-18.77,15.266-34.04,34.03-34.04c7.151,0,13.998,2.198,19.81,6.363c5.812,4.152,10.104,9.923,12.411,16.686l3.41,10.012    c4.836,14.188,18.158,23.72,33.149,23.72c7.064,0,13.888-2.103,19.737-6.085c5.826-3.976,10.274-9.562,12.863-16.156l4.173-10.633    c5.088-12.986,17.393-21.376,31.346-21.376c11.953,0,23.245-4.296,32.135-12.142l14.01,56.107    c-13.033,4.212-24.735,11.17-34.269,20.703c-21.136,21.137-29.592,51.799-23.732,85.046h-46.073c-4.143,0-7.5,3.358-7.5,7.5    s3.357,7.5,7.5,7.5h176.193c0.301,0,0.545,0.245,0.545,0.545v21.63c0,10.652-8.666,19.317-19.317,19.317H34.317    c-10.651,0-19.317-8.666-19.317-19.317v-21.63c0-0.3,0.244-0.545,0.545-0.545h270.193c4.143,0,7.5-3.358,7.5-7.5    s-3.357-7.5-7.5-7.5H61.26l8.888-35.598c1.004-4.019-1.44-8.09-5.46-9.094c-4.016-1-8.09,1.441-9.093,5.46L45.8,360.334H15.545    C6.974,360.334,0,367.308,0,375.879v21.63c0,18.923,15.395,34.317,34.317,34.317h20.558c10.68,20.452,31.603,33.148,54.678,33.148    h216.185c4.143,0,7.5-3.358,7.5-7.5s-3.357-7.5-7.5-7.5H109.554c-14.671,0-28.176-6.799-36.919-18.148h366.758    c-8.737,11.361-22.249,18.148-36.947,18.148h-42.184c-4.143,0-7.5,3.358-7.5,7.5s3.357,7.5,7.5,7.5h42.184    c23.106,0,43.993-12.687,54.673-33.148h20.564c18.923,0,34.317-15.395,34.317-34.317v-21.63    C512,367.308,505.026,360.334,496.455,360.334z M245.497,67.748c10.823-7.071,25.296-12.054,41.273,12.399    c13.338,20.416,7.029,30.291,4.52,33.807h-76.431C216.046,98.735,229.467,78.222,245.497,67.748z M401.986,185.757    c-6.36,6.36-14.812,9.863-23.797,9.863c-20.17,0-37.955,12.13-45.311,30.901l-4.171,10.628c-1.482,3.777-4.026,6.974-7.349,9.241    c-3.344,2.277-7.248,3.48-11.289,3.48c-8.571,0-16.188-5.449-18.951-13.558l-3.411-10.014c-3.327-9.75-9.513-18.066-17.879-24.044    c-8.366-5.995-18.235-9.164-28.539-9.164c-27.035,0-49.03,21.999-49.03,49.04v53.35c0,4.026-1.571,7.814-4.424,10.667    c-2.852,2.852-6.64,4.423-10.666,4.423c-8.32,0-15.09-6.769-15.09-15.09v-39.82c0-24.163-19.729-43.82-43.98-43.82h-0.88    c-6.836,0-13.07-3.578-16.533-9.404l15.983-64.009c1.393-5.577,6.38-9.472,12.128-9.472h254.404    c5.748,0,10.735,3.895,12.128,9.472l10.622,42.538C404.782,182.672,403.457,184.285,401.986,185.757z M400.674,285.895    c19.409-19.409,48.714-25.867,80.398-17.722c0.811,0.208,1.47,0.868,1.678,1.679c8.132,31.689,1.67,60.99-17.73,80.39    c-3.725,3.726-7.888,7.025-12.371,9.806c-0.144,0.089-0.278,0.189-0.413,0.286h-51.047l15.542-15.542    c5.482,1.347,11.069,2.033,16.712,2.033c2.604,0,5.221-0.144,7.843-0.433c4.117-0.453,7.088-4.158,6.635-8.275    c-0.454-4.117-4.158-7.091-8.275-6.635c-3.292,0.363-6.572,0.433-9.823,0.219l8.039-8.039c5.483,1.347,11.07,2.034,16.713,2.034    c2.604,0,5.22-0.144,7.842-0.433c4.117-0.453,7.088-4.158,6.635-8.275c-0.454-4.117-4.146-7.087-8.275-6.635    c-3.293,0.362-6.572,0.431-9.822,0.217l10.236-10.236c2.929-2.929,2.929-7.678,0-10.606c-2.93-2.929-7.678-2.929-10.607,0    l-10.235,10.235c-0.214-3.25-0.145-6.529,0.217-9.823c0.452-4.118-2.519-7.822-6.636-8.274c-4.117-0.451-7.822,2.519-8.274,6.636    c-0.912,8.303-0.358,16.536,1.61,24.545l-8.046,8.046c-0.214-3.25-0.145-6.529,0.217-9.822c0.453-4.117-2.518-7.822-6.635-8.275    c-4.127-0.451-7.822,2.519-8.275,6.635c-0.913,8.301-0.359,16.535,1.609,24.546l-24.804,24.804    C375.912,330.136,382.828,303.74,400.674,285.895z"/>
	</g>
</g>















</svg>
