<?xml version="1.0" encoding="iso-8859-1"?>
<!-- Generator: Adobe Illustrator 19.0.0, SVG Export Plug-In . SVG Version: 6.00 Build 0)  -->
<svg xmlns="http://www.w3.org/2000/svg" xmlns:xlink="http://www.w3.org/1999/xlink" version="1.1" id="Layer_1" x="0px" y="0px" viewBox="0 0 511.999 511.999" style="enable-background:new 0 0 511.999 511.999;" xml:space="preserve" width="512" height="512">
<g id="XMLID_417_">
	<g id="XMLID_418_">
		<g id="XMLID_419_">
			<g id="XMLID_420_">
				<path id="XMLID_421_" d="M366.038,8.63L344.206,0.96c-8.816-3.1-18.516,1.554-21.616,10.375l-8.831,25.136      c-9.613-9.556-20.538-14.567-32.067-14.567c-18.073,0-34.616,12.352-46.557,34.318c-10.342-14.05-26.846-22.637-44.829-22.637      c-30.703,0-55.682,24.979-55.682,55.682c0,25.764,17.428,47.811,42.012,53.981c1.875,55.573,7.422,110.946,16.301,161.878      c0.636,3.645,3.803,6.213,7.38,6.213c0.428,0,0.861-0.037,1.297-0.113c4.08-0.711,6.812-4.596,6.101-8.677      c-10.494-60.195-16.292-126.706-16.769-192.344c-0.004-0.51,0.233-0.857,0.434-1.059c0.195-0.197,0.533-0.432,1.027-0.432      h160.896c0.494,0,0.832,0.235,1.027,0.432c0.2,0.201,0.438,0.548,0.434,1.059c-0.072,10.002-0.271,20.194-0.591,30.293      c-0.131,4.14,3.118,7.603,7.259,7.733c0.081,0.003,0.161,0.004,0.242,0.004c4.031,0,7.362-3.204,7.491-7.263      c0.324-10.22,0.525-20.536,0.599-30.659c0.032-4.425-1.669-8.593-4.788-11.736c-2.925-2.946-6.763-4.629-10.875-4.825      l22.313-63.51C379.512,21.426,374.858,11.729,366.038,8.63z M309.548,93.716l2.443-6.954l32-9.482l-5.774,16.436H309.548z       M208.184,93.716v-0.62c0-5.82,4.354-10.759,10.127-11.489l83.292-10.531l-7.954,22.64H208.184z M350.126,59.817l-32,9.482      l5.701-16.227l32.001-9.482L350.126,59.817z M339.234,15.112l21.832,7.669c1.017,0.357,1.554,1.475,1.196,2.492l-0.3,0.854      l-32.001,9.482l6.781-19.301C337.1,15.292,338.218,14.754,339.234,15.112z M281.693,36.905c11.484,0,20.528,8.228,26.388,15.732      l-0.919,2.616l-58.424,7.387C257.84,46.335,269.707,36.905,281.693,36.905z M149.625,89.268      c0-22.432,18.25-40.682,40.682-40.682c13.435,0,25.741,6.558,33.26,17.237l-7.136,0.902c-3.073,0.388-5.968,1.302-8.607,2.635      c-4.801-4.211-11.03-6.624-17.516-6.624c-14.63,0-26.532,11.902-26.532,26.532c0,9.089,4.68,17.487,12.188,22.323      c0.044,5.283,0.131,10.571,0.242,15.861C160.444,121.678,149.625,106.625,149.625,89.268z M182.096,97.36      c-2.087-2.124-3.322-5.016-3.322-8.092c0-6.359,5.173-11.532,11.532-11.532c2.375,0,4.614,0.71,6.499,2.001      c-2.304,3.946-3.622,8.518-3.622,13.359v0.62h-0.776C188.608,93.716,185.012,95.003,182.096,97.36z"/>
				<path id="XMLID_430_" d="M254.902,405.469c0.272,0,0.55-0.015,0.827-0.045c4.117-0.452,7.089-4.156,6.637-8.273      c-7.506-68.366-12.441-161.2-13.541-254.699c-0.048-4.142-3.494-7.46-7.587-7.411c-4.143,0.049-7.46,3.446-7.411,7.588      c1.104,93.964,6.071,187.331,13.629,256.159C247.877,402.627,251.126,405.469,254.902,405.469z"/>
				<path id="XMLID_431_" d="M290.812,405.469c3.774,0,7.024-2.843,7.445-6.682c7.557-68.833,12.524-162.199,13.628-256.159      c0.049-4.142-3.269-7.539-7.411-7.588c-4.144-0.077-7.539,3.27-7.587,7.411c-1.1,93.495-6.034,186.329-13.54,254.699      c-0.452,4.117,2.52,7.822,6.637,8.273C290.262,405.455,290.537,405.469,290.812,405.469z"/>
				<path id="XMLID_432_" d="M345.142,468.557c0.31-1.657,0.485-3.346,0.485-5.058c0-15.116-12.298-27.415-27.414-27.415h-0.409      c24.828-60.014,43.714-158.278,49.782-260.38c0.246-4.135-2.906-7.686-7.041-7.932c-4.181-0.235-7.687,2.907-7.932,7.042      c-7.351,123.67-30.947,215.288-51.116,261.27h-57.284c-11.062-25.168-21.391-59.511-29.946-99.626      c-0.864-4.051-4.851-6.635-8.899-5.771c-4.051,0.864-6.635,4.848-5.771,8.899c8.104,38.001,17.825,71.087,28.315,96.497h-0.415      c-15.116,0-27.414,12.298-27.414,27.415c0,1.71,0.175,3.4,0.485,5.058c-15.365,1.121-27.527,13.971-27.527,29.617      c0,7.623,6.202,13.825,13.825,13.825h104.871c4.143,0,7.5-3.358,7.5-7.5s-3.357-7.5-7.5-7.5H188.089      c0.601-7.561,6.945-13.53,14.659-13.53h140.216c7.713,0,14.058,5.969,14.658,13.53h-31.36c-4.143,0-7.5,3.358-7.5,7.5      s3.357,7.5,7.5,7.5h32.582c7.623,0,13.825-6.202,13.825-13.825C372.669,482.527,360.508,469.677,345.142,468.557z       M227.498,451.085h90.715c6.845,0,12.414,5.569,12.414,12.415c0,1.73-0.361,3.414-1.042,4.969h-113.46      c-0.681-1.556-1.041-3.241-1.041-4.969C215.084,456.654,220.654,451.085,227.498,451.085z"/>
			</g>
		</g>
	</g>
</g>















</svg>
