<?xml version="1.0" encoding="iso-8859-1"?>
<!-- Generator: Adobe Illustrator 19.0.0, SVG Export Plug-In . SVG Version: 6.00 Build 0)  -->
<svg xmlns="http://www.w3.org/2000/svg" xmlns:xlink="http://www.w3.org/1999/xlink" version="1.1" id="Layer_1" x="0px" y="0px" viewBox="0 0 512 512" style="enable-background:new 0 0 512 512;" xml:space="preserve" width="512" height="512">
<g id="XMLID_396_">
	<g id="XMLID_397_">
		<g id="XMLID_398_">
			<path id="XMLID_399_" d="M497.273,399.63h-97.026c11.537-8.332,22.08-17.978,31.492-28.851c2.711-3.132,2.37-7.868-0.762-10.579     c-3.132-2.714-7.869-2.371-10.579,0.761c-13.538,15.639-29.608,28.53-47.763,38.316c-0.202,0.109-0.394,0.228-0.582,0.353H190.36     c-0.321-0.251-0.661-0.485-1.031-0.687c-54.481-29.659-88.325-86.579-88.325-148.549v-57.029c0-2.506,2.039-4.544,4.544-4.544     h351.487c2.505,0,4.544,2.038,4.544,4.544v57.029c0,29.146-7.547,57.888-21.826,83.116c-2.04,3.605-0.771,8.182,2.833,10.222     c3.606,2.04,8.182,0.771,10.222-2.833c15.551-27.479,23.771-58.774,23.771-90.505v-57.029c0-10.776-8.768-19.544-19.544-19.544     h-5.469c-2.753-16.397-9.389-32.055-19.301-45.474c-2.462-3.333-7.157-4.037-10.489-1.577c-3.332,2.462-4.038,7.157-1.577,10.489     c8.01,10.845,13.525,23.39,16.117,36.562H225.171l-24.404-87.847c15.625-24.003,41.943-38.314,70.585-38.314     c32.475,0,62.4,19.008,76.238,48.424c1.147,2.439,3.517,4.075,6.205,4.285c15.409,1.2,30.367,6.349,43.255,14.892     c1.275,0.845,2.714,1.249,4.137,1.249c2.431,0,4.815-1.18,6.258-3.357c2.289-3.453,1.345-8.106-2.108-10.396     c-13.814-9.155-29.667-14.964-46.096-16.921c-17.038-32.442-51.071-53.176-87.889-53.176c-29.515,0-56.933,12.897-75.659,35.047     l-10.565-38.031c-1.251-4.505-4.181-8.252-8.251-10.552c-4.07-2.3-8.793-2.879-13.294-1.626l-23.585,6.552     c-9.297,2.583-14.759,12.248-12.177,21.546l22.758,81.922c-18.674,10.044-33.485,26.63-41.353,46.301h-3.677     c-10.776,0-19.544,8.768-19.544,19.544v9.7H64.561C28.962,203.066,0,232.028,0,267.627v26.672     c0,35.6,28.962,64.562,64.561,64.562h56.807c11.318,15.514,25.105,29.305,40.989,40.77h-40.095c-4.142,0-7.5,3.357-7.5,7.5     s3.358,7.5,7.5,7.5H497v19.154c0,9.146-7.441,16.588-16.588,16.588H82.17c-9.146,0-16.588-7.441-16.588-16.588V414.63h22.156     c4.142,0,7.5-3.357,7.5-7.5s-3.358-7.5-7.5-7.5h-22.43c-8.12,0-14.727,6.606-14.727,14.727v19.428     c0,17.418,14.17,31.588,31.588,31.588h18.011c9.79,18.388,28.691,29.774,49.568,29.774h263.083     c20.896,0,39.778-11.381,49.567-29.774h18.012c17.417,0,31.588-14.17,31.588-31.588v-19.428     C512,406.237,505.394,399.63,497.273,399.63z M199.816,138.594l-22.698,28.421l-5.156-18.559l22.698-28.421L199.816,138.594z      M163.356,117.477l22.698-28.421l3.652,13.145l-22.698,28.421L163.356,117.477z M181.1,71.222l-22.698,28.421l-5.156-18.559     l22.698-28.421L181.1,71.222z M190.879,173.822l13.891-17.394l4.832,17.394H190.879z M144.012,38.505l23.585-6.552     c0.868-0.242,1.563,0.042,1.899,0.231c0.336,0.19,0.938,0.64,1.178,1.508l0.316,1.136L148.292,63.25l-6.019-21.667     C141.903,40.255,142.684,38.874,144.012,38.505z M154.716,142.419l8.724,31.402h-37.794     C132.105,160.864,142.267,149.866,154.716,142.419z M97.266,313.751H64.561c-10.725,0-19.451-8.727-19.451-19.452v-26.672     c0-10.726,8.726-19.451,19.451-19.451h21.443v2.219C86.004,272.38,89.939,293.771,97.266,313.751z M64.561,343.861     C37.233,343.861,15,321.627,15,294.299v-26.672c0-27.328,22.233-49.562,49.561-49.562h21.443v15.11H64.561     c-18.996,0-34.451,15.455-34.451,34.451v26.672c0,18.997,15.455,34.452,34.451,34.452h38.953     c2.428,5.16,5.096,10.201,7.99,15.109H64.561z M412.833,480.147H149.75c-12.414,0-23.867-5.504-31.584-14.774h326.251     C436.702,474.645,425.258,480.147,412.833,480.147z"/>
			<path id="XMLID_410_" d="M362.522,128.359c-4.142,0-7.5,3.357-7.5,7.5s3.358,7.5,7.5,7.5h0.107c4.142,0,7.5-3.357,7.5-7.5     s-3.358-7.5-7.5-7.5H362.522z"/>
			<path id="XMLID_411_" d="M319.882,93.123c0-4.143-3.358-7.5-7.5-7.5h-0.107c-4.142,0-7.5,3.357-7.5,7.5s3.358,7.5,7.5,7.5h0.107     C316.524,100.623,319.882,97.266,319.882,93.123z"/>
			<path id="XMLID_412_" d="M309.948,118.977c-4.106-0.056-7.53,3.291-7.568,7.432c-0.038,4.143,3.29,7.53,7.431,7.568l0.107,0.001     c0.023,0,0.046,0,0.07,0c4.11,0,7.461-3.313,7.498-7.432c0.038-4.143-3.29-7.53-7.431-7.568L309.948,118.977z"/>
			<path id="XMLID_413_" d="M284.216,224.144c-11.554,1.859-23.052,8.018-32.375,17.342c-19.886,19.886-23.711,48.418-8.528,63.602     c6.265,6.265,14.8,9.292,24.065,9.292c13.189,0,27.855-6.14,39.536-17.821c9.323-9.323,15.481-20.82,17.341-32.375     c2.003-12.45-1.126-23.539-8.813-31.226S296.667,222.144,284.216,224.144z M309.446,261.8     c-1.362,8.464-6.028,17.042-13.138,24.151c-11.028,11.028-25.636,15.729-35.744,12.491l48.251-48.251     C309.907,253.565,310.137,257.506,309.446,261.8z M298.192,239.6l-48.235,48.235c-3.237-10.108,1.463-24.716,12.491-35.745     c7.11-7.109,15.687-11.775,24.151-13.138c1.633-0.263,3.215-0.393,4.734-0.393C293.807,238.561,296.103,238.924,298.192,239.6z"/>
		</g>
	</g>
</g>















</svg>
