<?xml version="1.0" encoding="iso-8859-1"?>
<!-- Generator: Adobe Illustrator 19.0.0, SVG Export Plug-In . SVG Version: 6.00 Build 0)  -->
<svg xmlns="http://www.w3.org/2000/svg" xmlns:xlink="http://www.w3.org/1999/xlink" version="1.1" id="Layer_1" x="0px" y="0px" viewBox="0 0 512 512" style="enable-background:new 0 0 512 512;" xml:space="preserve" width="512" height="512">
<g id="XMLID_384_">
	<g id="XMLID_385_">
		<path id="XMLID_386_" d="M501.945,391.722c3.87-9.547,5.888-20.204,5.888-31.329c0-17.204-4.907-33.469-13.817-45.796    c-4.663-6.451-10.144-11.465-16.155-14.893V192.507c0-10.536-8.572-19.107-19.108-19.107h-59.493c-4.142,0-7.5,3.357-7.5,7.5    s3.358,7.5,7.5,7.5h59.493c2.265,0,4.108,1.843,4.108,4.107V294.65c-1.6-0.2-3.216-0.308-4.848-0.308    c-19.026,0-35.806,13.832-44.215,35.433c-11.069-10.467-24.399-17.382-37.78-19.535c-14.962-2.414-28.256,1.319-37.434,10.496    c-9.177,9.178-12.906,22.472-10.498,37.435c1.843,11.45,7.167,22.866,15.224,32.858H128.654    c-8.231-9.711-12.766-22.056-12.766-34.813v-63.955c0-4.143-3.358-7.5-7.5-7.5s-7.5,3.357-7.5,7.5v15.999H62.494    c-10.187,0-18.475-8.288-18.475-18.476v-25.706c0-10.187,8.288-18.475,18.475-18.475h38.395v12.134c0,4.143,3.358,7.5,7.5,7.5    s7.5-3.357,7.5-7.5v-65.231c0-2.265,1.843-4.107,4.108-4.107h244.742c4.142,0,7.5-3.357,7.5-7.5s-3.358-7.5-7.5-7.5H119.997    c-10.536,0-19.108,8.571-19.108,19.107v9.078H62.494C28.035,201.585,0,229.62,0,264.079v25.706    c0,34.46,28.035,62.495,62.494,62.495h38.395v3.937c0,12.31,3.302,24.321,9.446,34.813H81.215    c-7.976,0-14.465,6.489-14.465,14.465v18.725c0,16.937,13.779,30.716,30.716,30.716h149.272c4.142,0,7.5-3.357,7.5-7.5    s-3.358-7.5-7.5-7.5H97.466c-8.666,0-15.716-7.05-15.716-15.716v-18.189H497v18.189c0,8.666-7.05,15.716-15.716,15.716H281.261    c-4.142,0-7.5,3.357-7.5,7.5s3.358,7.5,7.5,7.5h200.023c16.937,0,30.716-13.779,30.716-30.716v-18.725    C512,399.056,507.77,393.592,501.945,391.722z M62.494,337.28C36.306,337.28,15,315.974,15,289.785v-25.706    c0-26.188,21.306-47.494,47.494-47.494h38.395v14.02H62.494c-18.458,0-33.475,15.017-33.475,33.475v25.706    c0,18.458,15.017,33.476,33.475,33.476h38.395v14.02H62.494z M492.833,360.393c0,11.036-2.503,21.807-7.075,30.636h-20.245    v-80.482C481.119,315.592,492.833,336.019,492.833,360.393z M450.514,310.597v80.432h-14.619    c3.773-14.653-0.205-32.37-10.644-47.802C429.336,326.727,439.099,314.421,450.514,310.597z M404.882,342.013    c14.945,14.944,21.163,35.485,15.198,49.017h-0.595l-64.01-64.01C368.839,320.898,389.579,326.709,404.882,342.013z     M359.86,387.033c-9.172-9.172-15.197-20.269-16.963-31.246c-1.108-6.885-0.414-13.115,1.946-18.185l53.427,53.427h-34.047    C362.726,389.771,361.258,388.431,359.86,387.033z"/>
		<path id="XMLID_393_" d="M231.862,154.44c1.919,0,3.839-0.732,5.303-2.196c2.929-2.93,2.929-7.678,0-10.607    c-1.395-1.395-2.163-3.248-2.163-5.221s0.768-3.826,2.163-5.221l40.277-40.277c8.728-8.728,8.728-22.929,0-31.656    c-2.929-2.928-7.678-2.928-10.606,0c-2.929,2.93-2.929,7.678,0,10.607c2.879,2.879,2.879,7.563,0,10.441l-40.277,40.277    c-8.728,8.728-8.728,22.929,0,31.656C228.023,153.708,229.943,154.44,231.862,154.44z"/>
		<path id="XMLID_394_" d="M319.605,75.09c0,1.972-0.768,3.826-2.163,5.221l-40.276,40.277c-8.728,8.728-8.728,22.929,0,31.656    c1.464,1.464,3.384,2.196,5.303,2.196s3.839-0.732,5.303-2.196c2.929-2.93,2.929-7.678,0-10.607    c-2.879-2.879-2.879-7.563,0-10.441l40.276-40.277c4.228-4.228,6.557-9.849,6.557-15.828s-2.329-11.601-6.557-15.828    c-2.93-2.928-7.678-2.929-10.607,0.001c-2.929,2.929-2.928,7.678,0,10.606C318.837,71.264,319.605,73.118,319.605,75.09z"/>
		<path id="XMLID_395_" d="M368.049,80.31l-40.276,40.277c-8.728,8.728-8.728,22.929,0,31.656c1.464,1.464,3.384,2.196,5.303,2.196    s3.839-0.732,5.303-2.196c2.929-2.93,2.929-7.678,0-10.607c-2.879-2.879-2.879-7.563,0-10.441l40.276-40.277    c8.728-8.728,8.728-22.929,0-31.656c-2.929-2.928-7.678-2.928-10.606,0c-2.929,2.93-2.929,7.678,0,10.607    C370.928,72.748,370.928,77.432,368.049,80.31z"/>
	</g>
</g>















</svg>
