<?xml version="1.0" encoding="iso-8859-1"?>
<!-- Generator: Adobe Illustrator 19.0.0, SVG Export Plug-In . SVG Version: 6.00 Build 0)  -->
<svg xmlns="http://www.w3.org/2000/svg" xmlns:xlink="http://www.w3.org/1999/xlink" version="1.1" id="Layer_1" x="0px" y="0px" viewBox="0 0 512 512" style="enable-background:new 0 0 512 512;" xml:space="preserve" width="512" height="512">
<g id="XMLID_361_">
	<g id="XMLID_362_">
		<path id="XMLID_363_" d="M199.262,188.399h259.492c2.265,0,4.107,1.843,4.107,4.107v26.231c0,4.143,3.357,7.5,7.5,7.5    s7.5-3.357,7.5-7.5v-26.231c0-10.536-8.571-19.107-19.107-19.107H199.262c-4.143,0-7.5,3.357-7.5,7.5    S195.119,188.399,199.262,188.399z"/>
		<path id="XMLID_364_" d="M497.535,391.029H476.08c21.022-22.931,28.214-57.081,19.211-92.164    c-1.571-6.122-6.35-10.903-12.473-12.479c-1.655-0.426-3.307-0.802-4.957-1.156v-31.969c0-4.143-3.357-7.5-7.5-7.5    s-7.5,3.357-7.5,7.5v29.716c-29.081-2.461-56.092,6.362-74.783,25.052c-4.921,4.921-9.152,10.379-12.68,16.274    c-23.383-17.933-52.538-19.821-68.793-3.567c-9.177,9.178-12.905,22.472-10.497,37.435c1.843,11.45,7.168,22.867,15.224,32.858    H128.655c-8.232-9.712-12.766-22.056-12.766-34.813v-163.71c0-2.265,1.843-4.107,4.107-4.107h44.742c4.143,0,7.5-3.357,7.5-7.5    s-3.357-7.5-7.5-7.5h-44.742c-10.536,0-19.107,8.571-19.107,19.107v9.078H62.494C28.035,201.585,0,229.62,0,264.079v25.706    c0,34.46,28.035,62.495,62.494,62.495h38.395v3.937c0,12.309,3.302,24.321,9.446,34.813h-29.12    c-7.976,0-14.464,6.489-14.464,14.465v18.725c0,16.937,13.778,30.716,30.715,30.716h277.272c4.143,0,7.5-3.357,7.5-7.5    s-3.357-7.5-7.5-7.5H97.466c-8.665,0-15.715-7.05-15.715-15.716v-18.189H497v18.189c0,8.666-7.05,15.716-15.716,15.716h-72.022    c-4.143,0-7.5,3.357-7.5,7.5s3.357,7.5,7.5,7.5h72.022c16.937,0,30.716-13.779,30.716-30.716v-18.725    C512,397.518,505.511,391.029,497.535,391.029z M100.889,308.26H62.494c-10.187,0-18.475-8.288-18.475-18.476v-25.706    c0-10.187,8.288-18.475,18.475-18.475h38.395V308.26z M62.494,337.28C36.306,337.28,15,315.973,15,289.785v-25.706    c0-26.188,21.306-47.494,47.494-47.494h38.395v14.02H62.494c-18.458,0-33.475,15.017-33.475,33.475v25.706    c0,18.458,15.017,33.476,33.475,33.476h38.395v14.02H62.494z M398.686,318.636c19.409-19.41,48.712-25.867,80.397-17.723    c0.812,0.209,1.471,0.868,1.679,1.68c8.132,31.688,1.67,60.989-17.729,80.389c-2.602,2.603-5.431,5.01-8.41,7.156    c-0.374,0.269-0.71,0.57-1.018,0.891h-52.358l13.496-13.496c5.483,1.347,11.069,2.033,16.712,2.033    c2.604,0,5.221-0.145,7.843-0.433c4.117-0.453,7.088-4.158,6.635-8.275s-4.15-7.083-8.275-6.635    c-3.293,0.362-6.573,0.431-9.822,0.218l8.038-8.038c5.484,1.348,11.072,2.034,16.715,2.034c2.604,0,5.219-0.145,7.84-0.433    c4.117-0.453,7.088-4.158,6.635-8.275c-0.453-4.116-4.154-7.081-8.275-6.635c-3.293,0.362-6.572,0.431-9.823,0.217l10.236-10.236    c2.929-2.93,2.929-7.678,0-10.607c-2.93-2.928-7.678-2.928-10.607,0l-10.235,10.235c-0.214-3.25-0.145-6.529,0.217-9.821    c0.453-4.117-2.518-7.822-6.635-8.275c-4.128-0.447-7.822,2.519-8.275,6.635c-0.913,8.301-0.359,16.536,1.609,24.547l-8.046,8.046    c-0.214-3.25-0.145-6.529,0.217-9.822c0.453-4.117-2.518-7.822-6.635-8.275c-4.134-0.442-7.822,2.52-8.275,6.635    c-0.913,8.301-0.359,16.536,1.609,24.547l-24.112,24.112h-0.81c-3.18-17.638-1.724-34.384,4.006-48.763    c0.094-0.085,0.191-0.164,0.281-0.254c1.459-1.46,2.19-3.37,2.196-5.283C389.043,330.033,393.38,323.942,398.686,318.636z     M368.71,338.166c-3.323,8.776-5.328,18.225-5.946,28.123l-39.274-39.275C335.636,321.454,353.935,325.697,368.71,338.166z     M331.649,390.531c-1.29-1.108-2.558-2.285-3.769-3.498c-15.303-15.302-21.114-36.043-14.994-49.406l50.724,50.725    c0.12,0.891,0.25,1.783,0.391,2.677h-31.83C332.008,390.857,331.834,390.69,331.649,390.531z"/>
		<path id="XMLID_371_" d="M231.862,154.44c1.919,0,3.839-0.732,5.304-2.196c2.929-2.93,2.929-7.678,0-10.607    c-2.879-2.879-2.879-7.563,0-10.441l40.276-40.277c8.727-8.728,8.727-22.929,0-31.656c-2.93-2.928-7.678-2.928-10.607,0    c-2.929,2.93-2.929,7.678,0,10.607c1.396,1.395,2.163,3.248,2.163,5.221s-0.768,3.826-2.163,5.221l-40.276,40.277    c-8.727,8.728-8.727,22.929,0,31.656C228.023,153.708,229.943,154.44,231.862,154.44z"/>
		<path id="XMLID_372_" d="M319.605,75.09c0,1.973-0.768,3.826-2.163,5.221l-40.275,40.277c-4.229,4.228-6.558,9.849-6.558,15.828    s2.329,11.601,6.558,15.828c1.465,1.465,3.384,2.196,5.303,2.196s3.84-0.732,5.304-2.197c2.929-2.929,2.929-7.678-0.001-10.606    c-1.395-1.395-2.163-3.249-2.163-5.221s0.769-3.826,2.164-5.221l40.276-40.277c8.727-8.728,8.727-22.929,0-31.656    c-2.93-2.928-7.678-2.928-10.607,0c-2.929,2.93-2.929,7.678,0,10.607C318.838,71.263,319.605,73.117,319.605,75.09z"/>
		<path id="XMLID_373_" d="M368.049,80.31l-40.276,40.277c-8.727,8.728-8.727,22.929,0,31.656c1.465,1.464,3.385,2.196,5.304,2.196    s3.839-0.732,5.304-2.196c2.929-2.93,2.929-7.678,0-10.607c-1.396-1.395-2.163-3.248-2.163-5.221s0.768-3.826,2.163-5.221    l40.276-40.277c8.727-8.728,8.727-22.929,0-31.656c-2.93-2.928-7.678-2.928-10.607,0c-2.929,2.93-2.929,7.678,0,10.607    C370.928,72.748,370.928,77.431,368.049,80.31z"/>
	</g>
</g>















</svg>
