<?xml version="1.0" encoding="iso-8859-1"?>
<!-- Generator: Adobe Illustrator 19.0.0, SVG Export Plug-In . SVG Version: 6.00 Build 0)  -->
<svg xmlns="http://www.w3.org/2000/svg" xmlns:xlink="http://www.w3.org/1999/xlink" version="1.1" id="Layer_1" x="0px" y="0px" viewBox="0 0 512 512" style="enable-background:new 0 0 512 512;" xml:space="preserve" width="512" height="512">
<g id="XMLID_805_">
	<g id="XMLID_806_">
		<g id="XMLID_807_">
			<path id="XMLID_808_" d="M384.223,107.761c-4.143,0-7.5,3.358-7.5,7.5v378.996c0,1.513-1.23,2.743-2.742,2.743H64.646     c-1.513,0-2.743-1.23-2.743-2.743V287.261c0-4.142-3.358-7.5-7.5-7.5s-7.5,3.358-7.5,7.5v206.996     c0,9.784,7.959,17.743,17.743,17.743H373.98c9.783,0,17.742-7.959,17.742-17.743V115.261     C391.723,111.119,388.365,107.761,384.223,107.761z"/>
			<path id="XMLID_809_" d="M373.98,15.363h-21.307C351.505,6.704,344.084,0,335.109,0H103.516c-8.974,0-16.395,6.704-17.564,15.363     H64.646c-9.784,0-17.743,7.959-17.743,17.743v219.632c0,4.142,3.358,7.5,7.5,7.5s7.5-3.358,7.5-7.5V33.106     c0-1.513,1.23-2.743,2.743-2.743h21.128v17.033c0,9.784,7.959,17.743,17.743,17.743h231.593c9.783,0,17.743-7.959,17.743-17.743     V30.363h21.128c1.512,0,2.742,1.23,2.742,2.743v47.632c0,4.142,3.357,7.5,7.5,7.5s7.5-3.358,7.5-7.5V33.106     C391.723,23.323,383.764,15.363,373.98,15.363z M337.853,47.396c0,1.513-1.23,2.743-2.743,2.743H103.516     c-1.512,0-2.743-1.23-2.743-2.743V17.743c0-1.512,1.23-2.743,2.743-2.743h231.593c1.513,0,2.743,1.23,2.743,2.743V47.396z"/>
			<path id="XMLID_812_" d="M100.833,244.799c4.71,4.71,10.981,6.998,17.734,6.998c9.277,0,19.464-4.319,27.756-12.611     c14.328-14.328,16.794-34.31,5.614-45.49c-11.181-11.181-31.162-8.714-45.49,5.613     C92.118,213.637,89.652,233.619,100.833,244.799z M119.574,236.664l24.228-24.228c-0.367,5.163-3.224,11.281-8.086,16.143     C130.855,233.44,124.737,236.297,119.574,236.664z M133.196,201.83l-24.229,24.229c0.367-5.163,3.224-11.281,8.086-16.143     C121.915,205.054,128.033,202.197,133.196,201.83z"/>
			<path id="XMLID_816_" d="M196.466,213.036h19.309c4.142,0,7.5-3.358,7.5-7.5s-3.358-7.5-7.5-7.5h-19.309     c-4.142,0-7.5,3.358-7.5,7.5S192.324,213.036,196.466,213.036z"/>
			<path id="XMLID_817_" d="M266.141,225.458h-69.674c-4.142,0-7.5,3.358-7.5,7.5s3.358,7.5,7.5,7.5h69.674     c4.143,0,7.5-3.358,7.5-7.5S270.283,225.458,266.141,225.458z"/>
			<path id="XMLID_818_" d="M337.227,198.036h-9.654c-4.143,0-7.5,3.358-7.5,7.5s3.357,7.5,7.5,7.5h9.654c4.143,0,7.5-3.358,7.5-7.5     S341.369,198.036,337.227,198.036z"/>
			<path id="XMLID_819_" d="M100.833,344.416c4.71,4.71,10.981,6.998,17.734,6.998c9.277,0,19.464-4.319,27.756-12.611     c14.328-14.328,16.794-34.31,5.614-45.49c-11.181-11.181-31.163-8.716-45.49,5.613     C92.118,313.253,89.652,333.235,100.833,344.416z M119.574,336.281l24.228-24.228c-0.367,5.163-3.224,11.281-8.086,16.143     C130.855,333.057,124.737,335.913,119.574,336.281z M133.208,301.434l-24.241,24.241c0.367-5.163,3.224-11.281,8.086-16.143     C121.917,304.668,128.043,301.799,133.208,301.434z"/>
			<path id="XMLID_823_" d="M196.466,312.652h19.309c4.142,0,7.5-3.358,7.5-7.5s-3.358-7.5-7.5-7.5h-19.309     c-4.142,0-7.5,3.358-7.5,7.5S192.324,312.652,196.466,312.652z"/>
			<path id="XMLID_824_" d="M266.141,325.075h-69.674c-4.142,0-7.5,3.358-7.5,7.5s3.358,7.5,7.5,7.5h69.674     c4.143,0,7.5-3.358,7.5-7.5S270.283,325.075,266.141,325.075z"/>
			<path id="XMLID_825_" d="M337.227,297.652h-9.654c-4.143,0-7.5,3.358-7.5,7.5s3.357,7.5,7.5,7.5h9.654c4.143,0,7.5-3.358,7.5-7.5     S341.369,297.652,337.227,297.652z"/>
			<path id="XMLID_826_" d="M100.833,444.032c4.71,4.71,10.981,6.998,17.734,6.998c9.277,0,19.464-4.319,27.756-12.611     c14.328-14.328,16.794-34.31,5.614-45.49c-11.181-11.181-31.163-8.715-45.49,5.613C92.118,412.87,89.652,432.852,100.833,444.032     z M119.574,435.897l24.228-24.228c-0.367,5.163-3.224,11.281-8.086,16.143C130.855,432.674,124.737,435.53,119.574,435.897z      M133.208,401.051l-24.241,24.241c0.367-5.163,3.224-11.281,8.086-16.143C121.917,404.284,128.043,401.416,133.208,401.051z"/>
			<path id="XMLID_830_" d="M196.466,412.269h19.309c4.142,0,7.5-3.358,7.5-7.5s-3.358-7.5-7.5-7.5h-19.309     c-4.142,0-7.5,3.358-7.5,7.5S192.324,412.269,196.466,412.269z"/>
			<path id="XMLID_831_" d="M196.466,439.692h69.674c4.143,0,7.5-3.358,7.5-7.5s-3.357-7.5-7.5-7.5h-69.674     c-4.142,0-7.5,3.358-7.5,7.5S192.324,439.692,196.466,439.692z"/>
			<path id="XMLID_832_" d="M337.227,397.269h-9.654c-4.143,0-7.5,3.358-7.5,7.5s3.357,7.5,7.5,7.5h9.654c4.143,0,7.5-3.358,7.5-7.5     S341.369,397.269,337.227,397.269z"/>
			<path id="XMLID_833_" d="M298.872,84.849H139.753c-6.844,0-12.411,5.567-12.411,12.411v2.982h-9.486     c-5.577,0-10.5,3.757-11.972,9.138l-8.841,32.34c-1.029,3.764-0.262,7.702,2.106,10.803c2.367,3.102,5.963,4.881,9.866,4.881     h37.722c6.844,0,12.411-5.567,12.411-12.411v-8.464h120.33v8.464c0,6.844,5.567,12.411,12.411,12.411h37.722     c3.902,0,7.499-1.779,9.866-4.881c2.367-3.102,3.135-7.039,2.105-10.803l-8.841-32.341c-1.472-5.38-6.395-9.137-11.972-9.137     h-9.486V97.26C311.283,90.416,305.716,84.849,298.872,84.849z M142.342,99.849h153.941v21.68H142.342V99.849z M144.148,142.404     h-31.741l7.425-27.162h7.51v8.875c0,6.844,5.567,12.411,12.411,12.411h4.395V142.404z M318.794,115.242l7.425,27.162h-31.741     v-5.875h4.395c6.844,0,12.411-5.567,12.411-12.411v-8.875H318.794z"/>
			<path id="XMLID_838_" d="M457.598,213.239c4.143,0,7.5-3.358,7.5-7.5v-81.638c0-16.159-13.146-29.305-29.306-29.305     s-29.306,13.146-29.306,29.305v267.421c0,6.853,1.768,13.636,5.111,19.617l11.938,21.358c2.479,4.436,7.175,7.191,12.256,7.191     c0.001,0,0,0,0.001,0c5.081,0,9.778-2.755,12.258-7.191l11.937-21.358c3.344-5.981,5.111-12.765,5.111-19.618v-151.26     c0-4.142-3.357-7.5-7.5-7.5s-7.5,3.358-7.5,7.5v66.719h-28.611v-182.88c0-7.888,6.418-14.305,14.306-14.305     s14.306,6.417,14.306,14.305v81.638C450.098,209.881,453.455,213.239,457.598,213.239z M450.098,371.928h-28.611v-21.461h28.611     V371.928z M446.894,403.82l-11.102,19.862l-11.101-19.863c-2.097-3.75-3.205-8.003-3.205-12.298v-4.593h28.611v4.593     C450.098,395.818,448.99,400.071,446.894,403.82z M450.098,321.98v13.486h-28.611V321.98H450.098z"/>
		</g>
	</g>
</g>















</svg>
