<?xml version="1.0" encoding="iso-8859-1"?>
<!-- Generator: Adobe Illustrator 19.0.0, SVG Export Plug-In . SVG Version: 6.00 Build 0)  -->
<svg xmlns="http://www.w3.org/2000/svg" xmlns:xlink="http://www.w3.org/1999/xlink" version="1.1" id="Layer_1" x="0px" y="0px" viewBox="0 0 512 512" style="enable-background:new 0 0 512 512;" xml:space="preserve" width="512" height="512">
<g id="XMLID_351_">
	<g id="XMLID_352_">
		<g id="XMLID_353_">
			<g id="XMLID_354_">
				<path id="XMLID_355_" d="M239.044,123.615c3.746,1.767,8.216,0.155,9.979-3.594c6.037-12.83,19.089-21.121,33.252-21.121      c19.196,0,35.284,14.987,36.626,34.119c0.243,3.471,2.841,6.318,6.274,6.878c6.539,1.066,12.53,4.077,17.325,8.707      c1.456,1.405,3.333,2.104,5.209,2.104c1.964,0,3.925-0.767,5.396-2.29c2.877-2.98,2.794-7.729-0.186-10.605      c-5.62-5.427-12.371-9.331-19.763-11.468c-4.409-24.212-25.756-42.445-50.883-42.445c-19.946,0-38.326,11.672-46.824,29.736      C233.687,117.385,235.296,121.853,239.044,123.615z"/>
				<path id="XMLID_356_" d="M497.535,400.887h-29.137c6.142-10.5,9.464-22.543,9.464-34.813v-35.813c0-4.143-3.357-7.5-7.5-7.5      s-7.5,3.357-7.5,7.5v35.813c0,12.36-4.289,24.434-12.077,33.996c-0.213,0.262-0.398,0.537-0.571,0.817H219.262      c-4.143,0-7.5,3.357-7.5,7.5s3.357,7.5,7.5,7.5H497v18.189c0,8.665-7.05,15.715-15.716,15.715H97.466      c-8.665,0-15.715-7.05-15.715-15.715v-18.189h102.987c4.143,0,7.5-3.357,7.5-7.5s-3.357-7.5-7.5-7.5h-56.082      c-8.232-9.71-12.767-22.055-12.767-34.813V257.837h346.973v37.9c0,4.143,3.357,7.5,7.5,7.5s7.5-3.357,7.5-7.5v-93.373      c0-10.536-8.571-19.108-19.107-19.108h-5.051c-7.584-44.579-44.142-79.366-89.027-84.778      c-16.488-31.284-49.342-51.269-84.88-51.269c-48.183,0-88.865,36.167-95.054,83.353c-27.709,6.44-50.746,26.128-61.406,52.694      h-3.34c-10.536,0-19.107,8.572-19.107,19.108v9.077H62.494C28.035,211.441,0,239.477,0,273.937v25.706      c0,34.459,28.035,62.494,62.494,62.494h38.395v3.937c0,12.31,3.302,24.322,9.446,34.813h-29.12      c-7.976,0-14.464,6.488-14.464,14.464v18.726c0,16.937,13.778,30.715,30.715,30.715h383.818      c16.937,0,30.716-13.778,30.716-30.715v-18.726C512,407.375,505.511,400.887,497.535,400.887z M100.889,318.117H62.494      c-10.187,0-18.475-8.288-18.475-18.475v-25.706c0-10.188,8.288-18.476,18.475-18.476h38.395V318.117z M119.996,198.256h80.742      c4.143,0,7.5-3.357,7.5-7.5s-3.357-7.5-7.5-7.5h-60.955c10.364-20.595,30.059-35.264,53.069-39.015      c3.434-0.56,6.031-3.407,6.274-6.878c2.955-42.143,38.389-75.154,80.669-75.154c31.194,0,59.939,18.258,73.231,46.514      c1.147,2.439,3.516,4.075,6.204,4.285c39.132,3.048,71.572,32.201,79.208,70.248H235.262c-4.143,0-7.5,3.357-7.5,7.5      s3.357,7.5,7.5,7.5h223.492c2.265,0,4.107,1.843,4.107,4.108v40.473H115.889v-40.473      C115.889,200.099,117.731,198.256,119.996,198.256z M62.494,347.137C36.306,347.137,15,325.831,15,299.643v-25.706      c0-26.188,21.306-47.495,47.494-47.495h38.395v14.02H62.494c-18.458,0-33.475,15.018-33.475,33.476v25.706      c0,18.458,15.017,33.475,33.475,33.475h38.395v14.02H62.494z"/>
			</g>
		</g>
	</g>
</g>















</svg>
