<?xml version="1.0" encoding="iso-8859-1"?>
<!-- Generator: Adobe Illustrator 19.0.0, SVG Export Plug-In . SVG Version: 6.00 Build 0)  -->
<svg xmlns="http://www.w3.org/2000/svg" xmlns:xlink="http://www.w3.org/1999/xlink" version="1.1" id="Layer_1" x="0px" y="0px" viewBox="0 0 512 512" style="enable-background:new 0 0 512 512;" xml:space="preserve" width="512" height="512">
<g id="XMLID_337_">
	<g id="XMLID_338_">
		<path id="XMLID_339_" d="M388.994,5.533C385.687,2.017,381.022,0,376.195,0H250.263c-4.142,0-7.5,3.357-7.5,7.5s3.358,7.5,7.5,7.5    h125.932c0.967,0,1.588,0.507,1.873,0.81c0.284,0.303,0.752,0.954,0.693,1.919l-5.572,90.783h-11.444    c-0.108-0.55-0.2-1.116-0.325-1.649c-4.708-20.119-20.929-35.074-41.043-38.326c-8.442-14.384-24.069-23.47-40.916-23.47    c-22.88,0-42.338,16.493-46.551,38.465c-11.112,3.37-20.616,11.145-26.07,21.557c-0.573,1.092-1.104,2.238-1.594,3.424h-9.628    l-5.572-90.783c-0.059-0.965,0.409-1.616,0.693-1.919c0.285-0.303,0.906-0.81,1.873-0.81h23.128c4.142,0,7.5-3.357,7.5-7.5    s-3.358-7.5-7.5-7.5h-23.128c-4.827,0-9.492,2.017-12.799,5.533c-3.307,3.516-5.035,8.296-4.739,13.114l6.835,111.357    c-35.227,0.692-63.675,29.543-63.675,64.932v49.802c0,4.143,3.358,7.5,7.5,7.5s7.5-3.357,7.5-7.5v-49.802    c0-27.427,22.214-49.755,49.594-49.955l0.94,15.314h-0.57c-19.102,0-34.642,15.54-34.642,34.642v101.529    c0,19.102,15.54,34.642,34.642,34.642h11.054l0.94,15.323h-11.994c-27.55,0-49.964-22.414-49.964-49.965v-17.204    c0-4.143-3.358-7.5-7.5-7.5s-7.5,3.357-7.5,7.5v17.204c0,35.821,29.143,64.965,64.964,64.965h12.915l0.26,4.241    c1.726,28.116,25.143,50.141,53.311,50.141h14.236v22.971c-11.95,2.919-20.848,13.711-20.848,26.548    c0,1.626,0.16,3.234,0.442,4.814c-13.574,2.276-23.953,14.101-23.953,28.312c0,7.467,6.075,13.542,13.542,13.542h102.599    c7.467,0,13.542-6.075,13.542-13.542c0-14.211-10.379-26.037-23.953-28.312c0.282-1.582,0.442-3.189,0.442-4.814    c0-12.837-8.897-23.629-20.848-26.548v-22.971h14.236c28.168,0,51.585-22.024,53.312-50.141l7.792-126.951    c0.254-4.134-2.892-7.691-7.026-7.945c-4.134-0.246-7.691,2.892-7.945,7.027l-7.792,126.95    c-1.241,20.221-18.082,36.06-38.34,36.06h-69.438c-20.258,0-37.098-15.839-38.339-36.059l-12.135-197.717h170.387l-2.224,36.242    c-0.254,4.134,2.892,7.691,7.026,7.945c0.156,0.009,0.312,0.014,0.467,0.014c3.932,0,7.234-3.063,7.479-7.041l11.388-185.551    C394.029,13.829,392.301,9.049,388.994,5.533z M334.169,497h-99.529c0.73-6.879,6.567-12.256,13.637-12.256h72.256    C327.601,484.744,333.439,490.121,334.169,497z M310.734,465.332c0,1.521-0.283,3.013-0.818,4.412h-51.028    c-0.535-1.398-0.815-2.89-0.815-4.412c0-6.8,5.532-12.332,12.332-12.332h27.998C305.202,453,310.734,458.532,310.734,465.332z     M289.887,438h-10.965v-22.188h10.965V438z M240.872,97.048c3.434-0.561,6.031-3.408,6.274-6.879    c1.181-16.88,15.375-30.103,32.315-30.103c12.496,0,24.011,7.314,29.336,18.636c1.147,2.439,3.516,4.075,6.203,4.285    c14.879,1.161,27.256,11.327,31.347,25.524H222.34C226.75,102.455,233.426,98.263,240.872,97.048z M183.199,316.107    c-10.831,0-19.642-8.812-19.642-19.642V194.937c0-10.83,8.811-19.642,19.642-19.642h1.491l8.642,140.813H183.199z M198.29,152.037    l-1.751-28.525h175.729l-1.751,28.525H198.29z"/>
		<path id="XMLID_347_" d="M288.463,75.908h-0.104c-4.142,0-7.5,3.357-7.5,7.5s3.358,7.5,7.5,7.5h0.104c4.142,0,7.5-3.357,7.5-7.5    S292.605,75.908,288.463,75.908z"/>
		<path id="XMLID_348_" d="M249.272,309c0-4.143-3.358-7.5-7.5-7.5h-0.104c-4.142,0-7.5,3.357-7.5,7.5s3.358,7.5,7.5,7.5h0.104    C245.914,316.5,249.272,313.143,249.272,309z"/>
		<path id="XMLID_349_" d="M250.336,342.5h0.104c4.142,0,7.5-3.357,7.5-7.5s-3.358-7.5-7.5-7.5h-0.104c-4.142,0-7.5,3.357-7.5,7.5    S246.194,342.5,250.336,342.5z"/>
		<path id="XMLID_350_" d="M331.002,273.5c-4.142,0-7.5,3.357-7.5,7.5s3.358,7.5,7.5,7.5h0.104c4.142,0,7.5-3.357,7.5-7.5    s-3.358-7.5-7.5-7.5H331.002z"/>
	</g>
</g>















</svg>
