<?xml version="1.0" encoding="iso-8859-1"?>
<!-- Generator: Adobe Illustrator 19.0.0, SVG Export Plug-In . SVG Version: 6.00 Build 0)  -->
<svg xmlns="http://www.w3.org/2000/svg" xmlns:xlink="http://www.w3.org/1999/xlink" version="1.1" id="Layer_1" x="0px" y="0px" viewBox="0 0 511.996 511.996" style="enable-background:new 0 0 511.996 511.996;" xml:space="preserve" width="512" height="512">
<g id="XMLID_325_">
	<g id="XMLID_326_">
		<path id="XMLID_327_" d="M351.387,308.773c-4.137-0.266-7.7,2.871-7.964,7.005c-2.98,46.53-41.902,82.473-88.571,81.82    c-22.254-0.311-43.581-9.513-60.053-25.913c-2.937-2.925-7.685-2.913-10.607,0.022c-2.922,2.936-2.912,7.685,0.023,10.606    c14.605,14.542,32.53,24.235,51.76,28.227v28.155c-12.129,2.79-21.205,13.667-21.205,26.631c0,1.93,0.215,3.847,0.615,5.72    c-12.846,2.596-22.549,13.972-22.549,27.572c0,7.376,6,13.376,13.376,13.376h15.627c4.142,0,7.5-3.357,7.5-7.5s-3.358-7.5-7.5-7.5    h-13.903c0.802-6.477,6.34-11.506,13.03-11.506h70.268c6.69,0,12.228,5.029,13.03,11.506h-47.903c-4.142,0-7.5,3.357-7.5,7.5    s3.358,7.5,7.5,7.5h49.627c7.375,0,13.376-6,13.376-13.376c0-13.599-9.7-24.973-22.544-27.571    c0.398-1.867,0.611-3.781,0.611-5.721c0-12.965-9.076-23.841-21.205-26.631V410.63c44.647-8.879,79.147-46.744,82.167-93.893    C358.657,312.604,355.52,309.038,351.387,308.773z M282.431,465.328c0,1.802-0.391,3.555-1.133,5.162h-50.375    c-0.743-1.61-1.154-3.368-1.154-5.162c0-6.8,5.532-12.332,12.332-12.332h27.998C276.899,452.996,282.431,458.528,282.431,465.328z     M261.226,437.996h-10.251V412.47c1.22,0.063,2.442,0.11,3.668,0.127c0.487,0.007,0.973,0.011,1.459,0.011    c1.718,0,3.426-0.043,5.124-0.127V437.996z"/>
		<path id="XMLID_331_" d="M168.596,311.247c-0.104-8.119,0.899-16.168,2.983-23.923c3.683-13.704,6.332-27.667,7.956-41.741    h153.218c1.468,12.76,3.768,25.455,6.902,37.973c1.006,4.019,5.078,6.46,9.097,5.454c4.018-1.006,6.46-5.079,5.454-9.097    c-10.501-41.947-11.162-85.979-1.909-127.333c2.967-13.26,4.911-27.146,5.779-41.272c0.291-4.719-1.402-9.402-4.644-12.85    c-1.955-2.078-4.397-3.611-7.062-4.511c-0.148-0.777-0.297-1.555-0.477-2.321c-5.369-22.948-23.972-39.957-46.982-43.454    c-9.473-16.529-27.29-26.997-46.512-26.997c-14.111,0-27.062,5.559-36.698,14.637l-12.634-27.96    c-3.033-6.71-10.959-9.698-17.667-6.67l-20.171,9.115c-3.25,1.469-5.734,4.115-6.994,7.452s-1.145,6.965,0.324,10.214    l21.743,48.119c-4.32,3.879-7.976,8.528-10.721,13.77c-0.602,1.149-1.156,2.329-1.666,3.524c-3.473,0.706-6.693,2.47-9.149,5.081    c-3.242,3.447-4.934,8.131-4.644,12.849c0.868,14.126,2.812,28.009,5.777,41.263c9.616,42.988,8.645,88.239-2.809,130.862    c-2.441,9.087-3.618,18.511-3.496,28.009c0.177,13.731,3.213,27.159,9.027,39.908c1.259,2.761,3.981,4.391,6.829,4.391    c1.041,0,2.099-0.218,3.107-0.678c3.769-1.719,5.431-6.167,3.713-9.936C171.328,334.282,168.745,322.885,168.596,311.247z     M340.876,108.028c0.84,0,1.381,0.442,1.628,0.705c0.246,0.262,0.65,0.824,0.6,1.653c-0.82,13.338-2.652,26.432-5.445,38.918    c-1.835,8.2-3.3,16.5-4.396,24.864H178.952c-1.106-8.349-2.572-16.651-4.412-24.874c-2.792-12.481-4.624-25.572-5.444-38.909    c-0.051-0.828,0.354-1.391,0.6-1.652c0.248-0.263,0.789-0.705,1.628-0.705H340.876z M180.874,230.583    c0.872-13.793,0.761-27.643-0.335-41.414h151.164c-1.071,13.732-1.166,27.584-0.284,41.414H180.874z M252.399,36.175    c14.874,0,28.58,8.707,34.917,22.182c1.147,2.439,3.516,4.075,6.204,4.285c17.693,1.38,32.407,13.486,37.238,30.387H185.192    c5.263-7.478,13.388-12.66,22.468-14.142c3.434-0.561,6.031-3.408,6.274-6.879C215.339,51.914,232.235,36.175,252.399,36.175z     M172.909,23.289l17.168-7.759l15.243,33.733c-2.69,4.938-4.634,10.342-5.654,16.072c-2.281,0.656-4.5,1.483-6.648,2.455    L172.909,23.289z"/>
	</g>
</g>















</svg>
