<?xml version="1.0" encoding="iso-8859-1"?>
<!-- Generator: Adobe Illustrator 19.0.0, SVG Export Plug-In . SVG Version: 6.00 Build 0)  -->
<svg xmlns="http://www.w3.org/2000/svg" xmlns:xlink="http://www.w3.org/1999/xlink" version="1.1" id="Layer_1" x="0px" y="0px" viewBox="0 0 511.966 511.966" style="enable-background:new 0 0 511.966 511.966;" xml:space="preserve" width="512" height="512">
<g id="XMLID_317_">
	<path id="XMLID_318_" d="M367.321,133.04c10.451-3.936,17.907-14.034,17.907-25.845c0-15.224-12.385-27.608-27.608-27.608h-0.811   c-0.207-1.26-0.452-2.514-0.742-3.751c-5.334-22.795-23.809-39.693-46.661-43.177c-9.417-16.413-27.116-26.807-46.21-26.807   c-16.091,0-30.67,7.268-40.487,18.758c-1.045-1.199-2.117-2.374-3.24-3.496C200.461,2.119,171.137-4.593,141.023,3.16   c-5.474,1.41-9.747,5.687-11.15,11.163c-7.719,30.119-0.986,59.436,18.011,78.421c1.014,1.013,2.07,1.991,3.149,2.944   c-1.615,3.506-2.522,7.402-2.522,11.508c0,11.811,7.457,21.909,17.907,25.845c0.71,4.088,1.511,8.156,2.399,12.127   c4.941,22.086,7.184,44.751,6.666,67.365c-0.095,4.142,3.186,7.575,7.327,7.67c0.059,0.001,0.116,0.002,0.175,0.002   c4.062,0,7.401-3.246,7.495-7.328c0.545-23.83-1.818-47.712-7.023-70.983c-0.522-2.333-1.013-4.701-1.472-7.088h9.289   c6.294,0,11.415,5.121,11.415,11.415v15.369c0,13.97,11.365,25.335,25.335,25.335s25.335-11.365,25.335-25.335v-15.369   c0-6.294,5.121-11.415,11.415-11.415s11.415,5.121,11.415,11.415v38.19c0,14.698,11.958,26.656,26.656,26.656   s26.656-11.958,26.656-26.656v-38.19c0-6.294,5.121-11.415,11.415-11.415h10.839c-0.46,2.394-0.952,4.766-1.474,7.097   c-10.272,45.918-9.201,94.713,3.101,141.11c0.384,1.446,0.719,2.906,1.029,4.371H179.33c0.33-1.562,0.69-3.117,1.104-4.658   c3.029-11.274,5.414-22.856,7.087-34.424c0.593-4.099-2.25-7.903-6.349-8.496c-4.104-0.593-7.903,2.249-8.497,6.35   c-1.588,10.98-3.852,21.976-6.728,32.678c-2.489,9.262-3.688,18.867-3.563,28.55c0.344,26.785,11.353,52.368,30.998,72.035   c14.957,14.974,33.35,24.938,53.098,29.008v30.756c-11.867,2.919-20.697,13.644-20.697,26.399c0,1.594,0.152,3.177,0.428,4.736   c-13.474,2.286-23.769,14.035-23.769,28.15c0,7.443,6.055,13.499,13.499,13.499h101.856c7.443,0,13.499-6.056,13.499-13.499   c0-14.115-10.295-25.863-23.769-28.15c0.275-1.559,0.428-3.142,0.428-4.736c0-12.755-8.83-23.481-20.697-26.399v-30.688   c11.752-2.33,23.047-6.66,33.385-12.876c3.55-2.135,4.697-6.743,2.563-10.293s-6.742-4.695-10.293-2.563   c-14.238,8.562-30.633,12.967-47.32,12.732c-47.208-0.657-87.602-41.096-88.208-88.307c-0.021-1.605,0.014-3.207,0.078-4.806   h178.82c0.048,1.208,0.081,2.417,0.081,3.628c0,20.465-6.723,39.725-19.44,55.697c-2.58,3.24-2.045,7.959,1.195,10.539   c1.381,1.1,3.029,1.633,4.667,1.633c2.206,0,4.392-0.969,5.872-2.828c14.854-18.656,22.706-41.147,22.706-65.041   c0-9.1-1.172-18.132-3.482-26.844c-11.688-44.079-12.711-90.412-2.962-133.989C365.807,141.214,366.609,137.142,367.321,133.04z    M316.215,496.966h-98.689c0.749-6.773,6.508-12.059,13.478-12.059h71.733C309.707,484.907,315.466,490.192,316.215,496.966z    M292.956,465.581c0,1.488-0.286,2.952-0.808,4.326h-50.557c-0.521-1.375-0.808-2.838-0.808-4.326   c0-6.721,5.467-12.188,12.188-12.188h27.795C287.488,453.392,292.956,458.86,292.956,465.581z M266.85,410.504   c1.808,0,3.61-0.062,5.408-0.154v28.043H261.48v-28.037c1.298,0.069,2.599,0.12,3.903,0.138   C265.874,410.5,266.361,410.504,266.85,410.504z M144.403,18.048c0.043-0.17,0.192-0.318,0.36-0.361   c25.296-6.513,48.66-1.396,64.102,14.036c1.974,1.974,3.791,4.113,5.438,6.362c-1.589,3.677-2.782,7.566-3.507,11.62   c-5.733,1.653-11.093,4.357-15.827,7.906l-6.104-6.1c1.112-5.174,1.388-10.471,0.8-15.806c-0.454-4.117-4.163-7.073-8.276-6.633   c-4.117,0.454-7.087,4.16-6.633,8.277c0.002,0.022,0.002,0.044,0.005,0.066l-4.537-4.534c-2.93-2.93-7.679-2.927-10.607,0.003   c-2.928,2.93-2.926,7.679,0.003,10.606l4.538,4.535c-0.023-0.002-0.045-0.002-0.067-0.005c-4.123-0.448-7.821,2.52-8.273,6.638   c-0.452,4.117,2.52,7.821,6.637,8.272c1.831,0.201,3.657,0.301,5.475,0.301c3.482,0,6.935-0.376,10.334-1.109l6.212,6.208   c-1.303,1.819-2.497,3.727-3.546,5.731c-0.937,1.786-1.748,3.637-2.456,5.524h-2.355c-5.684,0-10.971,1.728-15.367,4.683   c-0.776-0.692-1.534-1.404-2.266-2.136C143.052,66.708,137.918,43.349,144.403,18.048z M314.501,146.219v38.19   c0,6.428-5.229,11.656-11.656,11.656s-11.656-5.229-11.656-11.656v-38.19c0-14.565-11.85-26.415-26.415-26.415   c-14.565,0-26.415,11.85-26.415,26.415v15.369c0,5.699-4.636,10.335-10.335,10.335s-10.335-4.636-10.335-10.335v-15.369   c0-14.565-11.85-26.415-26.415-26.415H176.12c-6.953,0-12.609-5.656-12.609-12.609c0-6.952,5.656-12.608,12.609-12.608h107.583   c4.143,0,7.5-3.357,7.5-7.5s-3.357-7.5-7.5-7.5h-88.678c5.089-8.655,13.854-14.715,23.763-16.332   c3.434-0.561,6.031-3.408,6.274-6.879c1.393-19.92,18.144-35.523,38.133-35.523c14.745,0,28.332,8.632,34.615,21.99   c1.147,2.439,3.517,4.075,6.204,4.285c18.234,1.422,33.282,14.332,37.447,32.129c0.026,0.109,0.04,0.221,0.065,0.33h-23.301   c-4.143,0-7.5,3.357-7.5,7.5s3.357,7.5,7.5,7.5h39.394c6.952,0,12.608,5.656,12.608,12.608c0,6.953-5.656,12.609-12.608,12.609   h-16.704C326.35,119.804,314.501,131.654,314.501,146.219z"/>
</g>















</svg>
