<?xml version="1.0" encoding="iso-8859-1"?>
<!-- Generator: Adobe Illustrator 19.0.0, SVG Export Plug-In . SVG Version: 6.00 Build 0)  -->
<svg xmlns="http://www.w3.org/2000/svg" xmlns:xlink="http://www.w3.org/1999/xlink" version="1.1" id="Layer_1" x="0px" y="0px" viewBox="0 0 512 512" style="enable-background:new 0 0 512 512;" xml:space="preserve" width="512" height="512">
<g id="XMLID_304_">
	<g id="XMLID_305_">
		<g id="XMLID_306_">
			<g id="XMLID_307_">
				<g id="XMLID_308_">
					<path id="XMLID_309_" d="M497.123,108.121l-23.698-23.702c-9.595-9.59-22.349-14.872-35.914-14.872h-58.403V44.579       c0-10.956-8.913-19.869-19.869-19.869H77.548c-7.265,0-13.733,3.777-17.304,10.104c-3.57,6.328-3.46,13.818,0.297,20.038       l8.877,14.694H50.733c-14.366,0-26.054,11.688-26.054,26.054c0,14.365,11.688,26.053,26.054,26.053h26.8       C43.351,160.028,24.68,208.892,24.68,260.788c0,44.446,13.564,86.503,39.316,122.236c-7.61,3.105-12.993,10.575-12.993,19.288       v15.909H38.451C17.249,418.222,0,435.471,0,456.673v13.832c0,9.255,7.53,16.785,16.785,16.785h308.953       c4.143,0,7.5-3.357,7.5-7.5s-3.357-7.5-7.5-7.5H16.785c-0.984,0-1.785-0.801-1.785-1.785v-13.832       c0-12.931,10.521-23.451,23.451-23.451h391.723c12.931,0,23.451,10.521,23.451,23.451v13.832c0,0.984-0.801,1.785-1.785,1.785       h-91.578c-4.143,0-7.5,3.357-7.5,7.5s3.357,7.5,7.5,7.5h91.578c9.255,0,16.785-7.53,16.785-16.785v-13.832       c0-21.202-17.249-38.451-38.451-38.451h-12.551v-15.909c0-8.713-5.383-16.184-12.994-19.289       c25.752-35.728,39.318-77.775,39.318-122.236c0-51.848-18.685-100.75-52.862-139.135h45.882l22.926,22.927V267.31       c0,14.365,11.688,26.053,26.053,26.053c14.366,0,26.054-11.688,26.054-26.053V144.036       C512,130.468,506.716,117.713,497.123,108.121z M66.002,418.222v-15.909c0-3.216,2.616-5.832,5.832-5.832h324.957       c3.216,0,5.832,2.616,5.832,5.832v15.909H66.002z M371.315,122.569c37.164,36.828,57.632,85.915,57.632,138.219       c0,11.384-0.964,22.596-2.852,33.563H154c-4.143,0-7.5,3.357-7.5,7.5s3.357,7.5,7.5,7.5h268.901       c-6.662,26.073-18.755,50.481-35.895,72.129H81.606c-0.037-0.049-0.068-0.1-0.106-0.148       c-17.074-21.611-29.124-45.97-35.771-71.98H114c4.143,0,7.5-3.357,7.5-7.5s-3.357-7.5-7.5-7.5H42.534       c-1.889-10.969-2.854-22.181-2.854-33.563c0-52.741,20.761-102.116,58.457-139.031c0.034-0.033,0.062-0.07,0.096-0.104h272.307       C370.772,121.973,371.025,122.282,371.315,122.569z M497,267.31c0,6.095-4.959,11.053-11.054,11.053       s-11.053-4.958-11.053-11.053V144.036c0-3.653-1.423-7.09-4.008-9.677l-23.7-23.701c-2.585-2.582-6.021-4.005-9.675-4.005       H50.733c-6.095,0-11.054-4.958-11.054-11.053s4.959-11.054,11.054-11.054h254.005c4.143,0,7.5-3.357,7.5-7.5       s-3.357-7.5-7.5-7.5H86.943l-13.562-22.45c-1.327-2.197-0.493-4.166-0.073-4.911c0.42-0.744,1.674-2.476,4.24-2.476h281.69       c2.685,0,4.869,2.185,4.869,4.869v24.968h-24.846c-4.143,0-7.5,3.357-7.5,7.5s3.357,7.5,7.5,7.5h98.249       c9.56,0,18.548,3.723,25.308,10.479l23.698,23.701c6.76,6.76,10.483,15.748,10.483,25.309V267.31z"/>
					<path id="XMLID_314_" d="M325.446,184.426h29.344c4.143,0,7.5-3.357,7.5-7.5s-3.357-7.5-7.5-7.5h-29.344       c-4.143,0-7.5,3.357-7.5,7.5S321.304,184.426,325.446,184.426z"/>
					<path id="XMLID_315_" d="M354.79,207.77H344c-4.143,0-7.5,3.357-7.5,7.5s3.357,7.5,7.5,7.5h10.79c4.143,0,7.5-3.357,7.5-7.5       S358.933,207.77,354.79,207.77z"/>
					<path id="XMLID_316_" d="M325.446,261.113h29.344c4.143,0,7.5-3.357,7.5-7.5s-3.357-7.5-7.5-7.5h-29.344       c-4.143,0-7.5,3.357-7.5,7.5S321.304,261.113,325.446,261.113z"/>
				</g>
			</g>
		</g>
	</g>
</g>















</svg>
