<?xml version="1.0" encoding="iso-8859-1"?>
<!-- Generator: Adobe Illustrator 19.0.0, SVG Export Plug-In . SVG Version: 6.00 Build 0)  -->
<svg xmlns="http://www.w3.org/2000/svg" xmlns:xlink="http://www.w3.org/1999/xlink" version="1.1" id="Layer_1" x="0px" y="0px" viewBox="0 0 512 512" style="enable-background:new 0 0 512 512;" xml:space="preserve" width="512" height="512">
<g id="XMLID_280_">
	<g id="XMLID_281_">
		<path id="XMLID_282_" d="M494.5,384.328h-15.092l7.529-59.636c0.628-4.981-0.915-9.999-4.236-13.766    c-0.015-0.017-0.033-0.032-0.048-0.049c0.046-0.213,0.085-0.429,0.113-0.649l7.819-61.934c6.832-1.053,12.085-6.954,12.085-14.076    v-25.111c0-7.863-6.397-14.261-14.261-14.261h-9.944v-38.266c0-4.527-2.009-8.771-5.511-11.641    c-3.502-2.869-8.061-4.01-12.497-3.115l-102.256,20.496h-47.604c-8.299,0-15.05,6.751-15.05,15.05v17.476h-9.944    c-7.863,0-14.261,6.397-14.261,14.261v25.111c0,7.122,5.253,13.023,12.084,14.076l7.818,61.934c0.028,0.22,0.067,0.437,0.113,0.65    c-0.015,0.017-0.033,0.032-0.049,0.049c-3.321,3.766-4.864,8.783-4.236,13.765l7.529,59.636h-28.338c-4.143,0-7.5,3.357-7.5,7.5    s3.357,7.5,7.5,7.5H494.5c1.379,0,2.5,1.121,2.5,2.5v19.832c0,1.379-1.121,2.5-2.5,2.5h-477c-1.379,0-2.5-1.121-2.5-2.5v-19.832    c0-1.379,1.121-2.5,2.5-2.5h214.238c4.143,0,7.5-3.357,7.5-7.5s-3.357-7.5-7.5-7.5H217.4l7.527-59.635    c0.63-4.981-0.913-9.998-4.233-13.765c-0.016-0.018-0.034-0.033-0.05-0.05c0.046-0.213,0.085-0.429,0.113-0.65l7.818-61.933    c6.832-1.053,12.085-6.955,12.085-14.077v-25.111c0-7.863-6.396-14.261-14.26-14.261h-9.945v-38.266    c0-4.527-2.009-8.771-5.511-11.641c-3.503-2.869-8.06-4.01-12.497-3.115L96.19,162.322H48.588c-8.299,0-15.051,6.751-15.051,15.05    v17.476h-9.944c-7.863,0-14.261,6.397-14.261,14.261v25.111c0,7.122,5.254,13.024,12.085,14.077l7.903,62.61    c-0.007,0.008-0.014,0.014-0.021,0.021c-3.321,3.767-4.864,8.784-4.236,13.766l7.529,59.636H17.5c-9.649,0-17.5,7.851-17.5,17.5    v19.832c0,9.649,7.851,17.5,17.5,17.5h10.037v26.478c0,9.154,7.448,16.603,16.603,16.603h41.599c4.143,0,7.5-3.357,7.5-7.5    s-3.357-7.5-7.5-7.5H44.14c-0.884,0-1.603-0.719-1.603-1.603V439.16h164.917v26.478c0,0.884-0.719,1.603-1.603,1.603h-85.59    c-4.143,0-7.5,3.357-7.5,7.5s3.357,7.5,7.5,7.5h85.59c9.154,0,16.603-7.448,16.603-16.603V439.16h67.092v26.478    c0,9.154,7.448,16.603,16.603,16.603H467.86c9.154,0,16.603-7.448,16.603-16.603V439.16H494.5c9.649,0,17.5-7.851,17.5-17.5    v-19.832C512,392.179,504.149,384.328,494.5,384.328z M441.664,384.328l4.512-64.327h23.398c0.982,0,1.597,0.53,1.875,0.847    c0.278,0.315,0.728,0.992,0.604,1.966l-7.766,61.515H441.664z M394.504,384.328v-64.327h36.636l-4.512,64.327H394.504z     M347.381,384.328l-4.512-64.327h36.636v64.327H347.381z M310.596,177.322h48.348c0.495,0,0.988-0.049,1.474-0.146l103.046-20.594    v38.266H310.558L310.596,177.322z M286.341,209.847h201.327v23.632h-59.406c-4.143,0-7.5,3.357-7.5,7.5s3.357,7.5,7.5,7.5h47.178    l-7.135,56.522H305.703l-7.135-56.522h95.17c4.143,0,7.5-3.357,7.5-7.5s-3.357-7.5-7.5-7.5H286.341V209.847z M301.954,322.814    c-0.123-0.974,0.326-1.649,0.604-1.966s0.894-0.847,1.876-0.847h23.397l4.512,64.327H309.72L301.954,322.814z M43.695,305.001    l-7.135-56.521h176.871l-7.135,56.521H43.695z M132.496,384.328v-64.327h36.636l-4.512,64.327H132.496z M117.496,320.001v64.327    H85.372l-4.512-64.327H117.496z M179.656,384.328l4.512-64.327h23.397c0.982,0,1.597,0.53,1.876,0.847    c0.278,0.316,0.728,0.991,0.604,1.966l-7.765,61.515H179.656z M48.588,177.322h48.347c0.495,0,0.988-0.049,1.474-0.146    l103.046-20.594v38.266H48.549L48.588,177.322z M24.332,209.847h201.327v23.633H27.884c-0.002,0-0.004,0-0.006,0h-3.546V209.847z     M39.946,322.814c-0.123-0.974,0.326-1.65,0.604-1.966c0.278-0.316,0.893-0.847,1.875-0.847h23.398l4.512,64.327H47.712    L39.946,322.814z M469.463,465.638c0,0.884-0.719,1.603-1.603,1.603H306.148c-0.884,0-1.603-0.719-1.603-1.603V439.16h164.917    V465.638z"/>
		<path id="XMLID_298_" d="M60.174,127.135c1.919,0,3.84-0.732,5.304-2.197c2.929-2.929,2.929-7.678-0.001-10.606    c-1.395-1.395-2.163-3.249-2.163-5.222c0-1.972,0.769-3.826,2.164-5.221l40.276-40.276c8.727-8.728,8.727-22.929,0-31.656    c-2.93-2.928-7.678-2.928-10.607,0c-2.929,2.93-2.929,7.678,0,10.607c1.396,1.395,2.163,3.248,2.163,5.221    s-0.768,3.826-2.163,5.221L54.871,93.281c-4.229,4.228-6.558,9.85-6.558,15.828c0,5.979,2.329,11.602,6.558,15.829    C56.336,126.404,58.255,127.135,60.174,127.135z"/>
		<path id="XMLID_299_" d="M147.916,47.784c0,1.973-0.768,3.826-2.163,5.221l-40.276,40.276c-8.728,8.729-8.728,22.929,0,31.657    c1.465,1.464,3.385,2.196,5.304,2.196s3.839-0.732,5.304-2.196c2.929-2.93,2.929-7.678,0-10.607c-2.88-2.879-2.88-7.563,0-10.442    l40.276-40.276c8.727-8.728,8.727-22.929,0-31.656c-2.93-2.928-7.678-2.928-10.607,0c-2.929,2.93-2.929,7.678,0,10.607    C147.148,43.958,147.916,45.812,147.916,47.784z"/>
		<path id="XMLID_300_" d="M196.359,53.005l-40.276,40.276c-8.728,8.729-8.728,22.929,0,31.657c1.465,1.464,3.385,2.196,5.304,2.196    s3.839-0.732,5.304-2.196c2.929-2.93,2.929-7.678,0-10.607c-1.396-1.395-2.163-3.249-2.163-5.222c0-1.972,0.768-3.826,2.163-5.221    l40.276-40.276c8.727-8.728,8.727-22.929,0-31.656c-2.93-2.928-7.678-2.928-10.607,0c-2.929,2.93-2.929,7.678,0,10.607    C199.238,45.443,199.238,50.126,196.359,53.005z"/>
		<path id="XMLID_301_" d="M310.337,127.135c1.919,0,3.839-0.732,5.304-2.196c2.929-2.93,2.929-7.678,0-10.607    c-2.88-2.879-2.88-7.563,0-10.442l40.276-40.276c8.727-8.728,8.727-22.929,0-31.656c-2.93-2.928-7.678-2.928-10.607,0    c-2.929,2.93-2.929,7.678,0,10.607c1.396,1.395,2.163,3.248,2.163,5.221s-0.768,3.826-2.163,5.221l-40.276,40.276    c-8.728,8.729-8.728,22.929,0,31.657C306.498,126.403,308.418,127.135,310.337,127.135z"/>
		<path id="XMLID_302_" d="M395.916,53.005L355.64,93.281c-8.728,8.729-8.728,22.929,0,31.657c1.465,1.464,3.385,2.196,5.304,2.196    s3.839-0.732,5.304-2.196c2.929-2.93,2.929-7.678,0-10.607c-1.396-1.395-2.163-3.249-2.163-5.222c0-1.972,0.768-3.826,2.163-5.221    l40.276-40.276c8.727-8.728,8.727-22.929,0-31.656c-2.93-2.928-7.678-2.928-10.607,0c-2.929,2.93-2.929,7.678,0,10.607    C398.795,45.443,398.795,50.126,395.916,53.005z"/>
		<path id="XMLID_303_" d="M448.687,47.784c0,1.972-0.769,3.826-2.164,5.221l-40.276,40.276c-8.728,8.729-8.728,22.929,0,31.657    c1.465,1.464,3.385,2.196,5.304,2.196s3.839-0.732,5.304-2.196c2.929-2.93,2.929-7.678,0-10.607    c-1.396-1.395-2.163-3.249-2.163-5.222c0-1.972,0.768-3.826,2.163-5.221l40.275-40.276c4.229-4.228,6.558-9.849,6.558-15.828    s-2.329-11.601-6.558-15.828c-2.93-2.93-7.679-2.929-10.606,0.001c-2.929,2.929-2.929,7.678,0.001,10.606    C447.918,43.958,448.687,45.813,448.687,47.784z"/>
	</g>
</g>















</svg>
