<?xml version="1.0" encoding="iso-8859-1"?>
<!-- Generator: Adobe Illustrator 19.0.0, SVG Export Plug-In . SVG Version: 6.00 Build 0)  -->
<svg xmlns="http://www.w3.org/2000/svg" xmlns:xlink="http://www.w3.org/1999/xlink" version="1.1" id="Layer_1" x="0px" y="0px" viewBox="0 0 511.995 511.995" style="enable-background:new 0 0 511.995 511.995;" xml:space="preserve" width="512" height="512">
<g id="XMLID_267_">
	<path id="XMLID_268_" d="M463.167,295.238c4.142,0,7.5-3.357,7.5-7.5v-121.96c0-9.869-8.029-17.897-17.897-17.897h-20.486v-0.306   c0-9.869-8.029-17.897-17.898-17.897h-17.329c-9.869,0-17.897,8.028-17.897,17.897v0.306h-43.755v-10.062   c0-7.487-4.735-13.872-11.36-16.366c0.98-8.077,6.55-14.854,14.5-17.29l15.794-4.837c5.988-1.836,11.981-1.973,17.334-0.396   c11.585,3.409,24.179-0.854,31.332-10.606c8.573-11.69,6.884-28.485-3.847-38.236c-5.91-5.368-13.538-8.009-21.481-7.412   c-7.831,0.581-15.17,4.4-20.138,10.479c-2.622,3.207-2.146,7.933,1.061,10.554c3.207,2.622,7.932,2.146,10.553-1.062   c2.411-2.95,5.832-4.729,9.633-5.012c3.793-0.285,7.45,0.98,10.284,3.556c5.125,4.657,5.933,12.679,1.838,18.263   c-3.428,4.675-9.457,6.72-15,5.088c-8.179-2.409-17.157-2.255-25.962,0.443l-15.794,4.837   c-13.932,4.267-23.645,16.267-25.085,30.498h-17.291l59.769-90.007c2.496-3.758,2.988-8.501,1.317-12.689   c-1.672-4.191-5.299-7.297-9.704-8.306C327.958,5.838,293.137,0,230.709,0C168.28,0,133.46,5.838,118.26,9.317   c-4.403,1.009-8.03,4.113-9.703,8.306c-1.671,4.188-1.179,8.931,1.316,12.689l59.769,90.007h-24.535c-9.649,0-17.5,7.851-17.5,17.5   v10.062H59.225c-9.869,0-17.897,8.028-17.897,17.897v19.111c0,9.869,8.029,17.897,17.897,17.897h40.511c4.142,0,7.5-3.357,7.5-7.5   s-3.358-7.5-7.5-7.5H59.225c-1.598,0-2.897-1.3-2.897-2.897v-19.111c0-1.598,1.3-2.897,2.897-2.897h319.934v24.906h-244.9   c-4.142,0-7.5,3.357-7.5,7.5s3.358,7.5,7.5,7.5h28.936v11.697c0,9.869,8.029,17.897,17.897,17.897h23.499l28.824,36.706   c3.039,3.869,7.486,5.979,12.145,5.979c1.721,0,3.471-0.288,5.188-0.882c6.368-2.201,10.482-7.978,10.482-14.715v-27.089h19.095   c9.869,0,17.897-8.028,17.897-17.897v-11.697h80.937v29.821c0,9.869,8.029,17.897,17.897,17.897h3.504v206.583h-65.205   c8.45-9.621,13.324-22.119,13.324-35.319v-93.68c0-7.575-6.163-13.738-13.739-13.738h-43.682c-4.142,0-7.5,3.357-7.5,7.5   s3.358,7.5,7.5,7.5h42.421v57.965H126.698v-57.965h130.038c4.142,0,7.5-3.357,7.5-7.5s-3.358-7.5-7.5-7.5H125.437   c-7.576,0-13.739,6.163-13.739,13.738v5.114H85.42c-19.027,0-34.507,15.48-34.507,34.508v26.728   c0,19.027,15.479,34.508,34.507,34.508h26.762c1.424,10.505,5.942,20.282,12.843,28.142h-65.8c-9.869,0-17.897,8.028-17.897,17.897   v19.111c0,9.869,8.029,17.897,17.897,17.897h346.251c0.442,0,0.872-0.046,1.292-0.119c0.421,0.073,0.851,0.119,1.292,0.119h44.709   c9.869,0,17.897-8.028,17.897-17.897V322.262c0-4.143-3.358-7.5-7.5-7.5s-7.5,3.357-7.5,7.5v171.836c0,1.598-1.3,2.897-2.897,2.897   h-37.209v-59.428h9.916c4.142,0,7.5-3.357,7.5-7.5s-3.358-7.5-7.5-7.5h-9.916v-12.361h9.916c4.142,0,7.5-3.357,7.5-7.5   s-3.358-7.5-7.5-7.5h-9.916v-12.36h9.916c4.142,0,7.5-3.357,7.5-7.5s-3.358-7.5-7.5-7.5h-9.916V250.446   c9.321-0.61,16.723-8.365,16.723-17.838v-69.728h20.486c1.598,0,2.897,1.3,2.897,2.897v121.96   C455.667,291.881,459.025,295.238,463.167,295.238z M167.36,89.766l-16.832-25.348H310.89l-16.829,25.343H167.455   C167.423,89.762,167.392,89.766,167.36,89.766z M230.709,15c58.599,0,91.885,5.177,107.325,8.542L320.85,49.419H140.567   l-17.184-25.877C138.825,20.176,172.109,15,230.709,15z M177.318,104.762H284.1l-10.331,15.558h-86.12L177.318,104.762z    M142.607,137.819c0-1.379,1.122-2.5,2.5-2.5h172.796c1.378,0,2.5,1.121,2.5,2.5v10.062H142.607V137.819z M246.23,259.471   c0,0.218,0,0.406-0.383,0.538c-0.383,0.133-0.5-0.016-0.634-0.186l-21.549-27.441h22.567V259.471z M283.223,214.484   c0,1.598-1.3,2.897-2.897,2.897h-99.233c-1.598,0-2.897-1.3-2.897-2.897v-11.697h105.028V214.484z M65.914,394.439v-26.728   c0-10.757,8.75-19.508,19.507-19.508h26.278v65.743H85.42C74.664,413.947,65.914,405.196,65.914,394.439z M146.484,455.427   c-12.205-6.805-19.786-19.701-19.786-33.657v-19.453H333.68v19.453c0,14.019-7.631,26.942-19.916,33.729   c-0.768,0.424-1.426,0.969-1.977,1.59H148.511C147.951,456.439,147.277,455.869,146.484,455.427z M56.328,494.098v-19.111   c0-1.598,1.3-2.897,2.897-2.897h341.336v24.906H59.225C57.627,496.995,56.328,495.695,56.328,494.098z M417.284,232.608   c0,1.598-1.3,2.897-2.898,2.897h-17.329c-1.598,0-2.897-1.3-2.897-2.897v-85.033c0-1.598,1.3-2.897,2.897-2.897h17.329   c1.598,0,2.898,1.3,2.898,2.897V232.608z"/>
</g>















</svg>
