<?xml version="1.0" encoding="iso-8859-1"?>
<!-- Generator: Adobe Illustrator 19.0.0, SVG Export Plug-In . SVG Version: 6.00 Build 0)  -->
<svg xmlns="http://www.w3.org/2000/svg" xmlns:xlink="http://www.w3.org/1999/xlink" version="1.1" id="Layer_1" x="0px" y="0px" viewBox="0 0 512 512" style="enable-background:new 0 0 512 512;" xml:space="preserve">
<g id="XMLID_254_">
	<g id="XMLID_255_">
		<path id="XMLID_256_" d="M421.369,462.928c0.484-1.955,0.751-3.97,0.751-6.01c0-12.469-9.154-22.836-21.094-24.743V279.262    c0-4.143-3.358-7.5-7.5-7.5s-7.5,3.357-7.5,7.5v123.779h-82.051V188.724h53.068c9.673,0,17.542-7.87,17.542-17.543v-10.985h33.464    c0.167,0.133,0.338,0.263,0.519,0.384c0.625,0.415,1.065,1.168,1.149,1.965c0.079,0.746-0.161,1.393-0.735,1.979l-9.459,9.67    c-8.704,8.896-13.497,20.652-13.497,33.104v37.441c0,4.143,3.358,7.5,7.5,7.5s7.5-3.357,7.5-7.5v-37.441    c0-8.507,3.274-16.537,9.219-22.614l9.457-9.667c3.679-3.757,5.477-8.875,4.933-14.043c-0.113-1.073-0.349-2.122-0.654-3.148    c6.464-3.427,10.881-10.218,10.881-18.029c0-11.248-9.151-20.399-20.399-20.399h-36.857c-9.785-15.491-23.268-28.48-39.139-37.647    c-11.61-6.706-24.344-11.256-37.538-13.486V51.385c0-4.742,3.858-8.601,8.6-8.601c11.664,0,21.223-8.946,21.761-20.368    c0.278-5.91-1.813-11.518-5.889-15.789C321.383,2.415,315.741,0,309.922,0H249.21c-11.664,0-21.223,8.946-21.761,20.368    c-0.278,5.91,1.813,11.518,5.889,15.789c4.018,4.212,9.66,6.627,15.479,6.627h0.393c4.742,0,8.6,3.858,8.6,8.601v17.929    c-11.338,2.486-22.262,6.693-32.336,12.536c-15.8,9.164-29.217,22.112-38.966,37.546h-16.726    c-11.249,0-20.399,9.151-20.399,20.399c0,9.041,5.917,16.716,14.077,19.384c-0.239,1.158-0.369,2.348-0.369,3.557v6.426    c-25.707,8.256-48.752,24.075-65.219,44.889c-17.944,22.68-27.429,49.707-27.429,78.16c0,28.325,9.408,55.255,27.206,77.878    c16.477,20.944,39.623,36.877,65.442,45.167v16.918c-11.94,1.907-21.094,12.275-21.094,24.743c0,2.039,0.266,4.055,0.75,6.011    c-11.474,2.148-20.187,12.233-20.187,24.321c0,13.647,11.103,24.75,24.75,24.75h269.498c13.647,0,24.75-11.103,24.75-24.75    C441.557,475.161,432.843,465.076,421.369,462.928z M288.974,403.041h-13.832V188.724h13.832V403.041z M170.591,334.762    c-4.142,0-7.5,3.357-7.5,7.5v29.564c-31.948-15.145-52.155-45.555-52.155-79.614c0-33.545,20.623-64.499,52.155-79.594v95.12    c0,4.143,3.358,7.5,7.5,7.5s7.5-3.357,7.5-7.5V162.737c0-0.853,0.424-1.645,1.135-2.119c0.199-0.133,0.387-0.275,0.569-0.423    h9.737v10.985c0,9.673,7.87,17.543,17.542,17.543h53.068v214.317h-82.051v-60.779    C178.091,338.119,174.733,334.762,170.591,334.762z M359.585,171.181c0,1.402-1.141,2.543-2.542,2.543H207.074    c-1.402,0-2.542-1.141-2.542-2.543v-10.985h155.054V171.181z M249.21,27.784h-0.393c-1.765,0-3.408-0.704-4.626-1.981    c-1.217-1.275-1.842-2.955-1.758-4.729c0.158-3.349,3.198-6.073,6.777-6.073h60.711c1.765,0,3.408,0.704,4.626,1.981    c1.217,1.275,1.842,2.955,1.758,4.729c-0.158,3.349-3.198,6.073-6.777,6.073c-13.013,0-23.6,10.587-23.6,23.601v15.357    c-1.289-0.044-2.579-0.069-3.871-0.069c-3.094,0-6.178,0.142-9.248,0.394V51.385C272.811,38.371,262.224,27.784,249.21,27.784z     M282.058,81.673c30.678,0,58.783,13.913,77.258,37.724H204.835C223.262,95.878,251.864,81.673,282.058,81.673z M169.782,134.396    h244.681c2.977,0,5.399,2.422,5.399,5.399s-2.422,5.399-5.399,5.399H169.782c-2.977,0-5.399-2.422-5.399-5.399    S166.805,134.396,169.782,134.396z M85.443,292.212c0-47.41,31.537-90.371,77.648-107.198v11.211    c-19.019,7.647-35.305,20.124-47.257,36.263c-13.018,17.578-19.898,38.229-19.898,59.724c0,21.398,6.825,41.974,19.736,59.503    c11.957,16.235,28.31,28.791,47.419,36.476v11.227C116.341,382.508,85.443,340.33,85.443,292.212z M167.057,446.857h144.679    c4.142,0,7.5-3.357,7.5-7.5s-3.358-7.5-7.5-7.5H178.091v-13.816h207.935v13.816h-39.767c-4.142,0-7.5,3.357-7.5,7.5    s3.358,7.5,7.5,7.5h50.8c5.547,0,10.061,4.513,10.061,10.061c0,2.421-0.816,4.276-1.695,5.582H158.692    c-0.875-1.301-1.696-3.156-1.696-5.582C156.997,451.37,161.51,446.857,167.057,446.857z M416.807,497H147.309    c-5.376,0-9.75-4.374-9.75-9.75s4.374-9.75,9.75-9.75h269.498c5.376,0,9.75,4.374,9.75,9.75S422.183,497,416.807,497z"/>
	</g>
</g>
</svg>
