<?xml version="1.0" encoding="iso-8859-1"?>
<!-- Generator: Adobe Illustrator 19.0.0, SVG Export Plug-In . SVG Version: 6.00 Build 0)  -->
<svg xmlns="http://www.w3.org/2000/svg" xmlns:xlink="http://www.w3.org/1999/xlink" version="1.1" id="Layer_1" x="0px" y="0px" viewBox="0 0 512 512" style="enable-background:new 0 0 512 512;" xml:space="preserve" width="512" height="512">
<g id="XMLID_232_">
	<g id="XMLID_233_">
		<path id="XMLID_234_" d="M464.611,260.238c4.143,0,7.5-3.357,7.5-7.5V143.641H494.5c9.649,0,17.5-7.851,17.5-17.5V70.993    c0-9.649-7.851-17.5-17.5-17.5h-28.931c-3.507-17.927-19.329-31.5-38.268-31.5s-34.76,13.573-38.267,31.5H370.03    c-3.507-17.927-19.329-31.5-38.268-31.5c-18.939,0-34.76,13.573-38.267,31.5H17.5c-9.649,0-17.5,7.851-17.5,17.5v55.147    c0,9.649,7.851,17.5,17.5,17.5h24.388v52.03c-7.869-0.172-15.582,2.678-21.443,8.006c-6.413,5.833-10.091,14.149-10.091,22.818    c0,8.668,3.678,16.984,10.09,22.816c5.694,5.179,13.132,8.025,20.769,8.025c0.225,0,0.45-0.011,0.675-0.016v108.347H17.5    c-9.649,0-17.5,7.851-17.5,17.5v45.147c0,15.164,12.336,27.5,27.5,27.5h17.994v16.691c0,9.649,7.851,17.5,17.5,17.5h25    c9.649,0,17.5-7.851,17.5-17.5v-16.691h303.012v16.691c0,9.649,7.851,17.5,17.5,17.5h25c9.649,0,17.5-7.851,17.5-17.5v-16.691    H484.5c15.164,0,27.5-12.336,27.5-27.5v-45.147c0-9.649-7.851-17.5-17.5-17.5h-22.389v-78.406c0-4.143-3.357-7.5-7.5-7.5    s-7.5,3.357-7.5,7.5v78.406h-291.85c-4.142,0-7.5,3.357-7.5,7.5s3.358,7.5,7.5,7.5H494.5c1.379,0,2.5,1.121,2.5,2.5v45.147    c0,6.893-5.607,12.5-12.5,12.5h-457c-6.893,0-12.5-5.607-12.5-12.5v-45.147c0-1.379,1.122-2.5,2.5-2.5h113.239    c4.142,0,7.5-3.357,7.5-7.5s-3.358-7.5-7.5-7.5H56.888V255.986l69.82-6.635c1.63,7.973,8.698,13.989,17.146,13.989h14    c9.649,0,17.5-7.851,17.5-17.5v-55.748h11.432c9.649,0,17.5-7.851,17.5-17.5v-28.951h46.453c4.142,0,7.5-3.357,7.5-7.5    s-3.358-7.5-7.5-7.5H17.5c-1.378,0-2.5-1.121-2.5-2.5V70.993c0-1.379,1.122-2.5,2.5-2.5h275.995    c3.508,17.926,19.329,31.497,38.267,31.497c18.938,0,34.76-13.571,38.268-31.497h19.005c3.508,17.926,19.329,31.497,38.267,31.497    s34.76-13.571,38.268-31.497H494.5c1.379,0,2.5,1.121,2.5,2.5v55.147c0,1.379-1.121,2.5-2.5,2.5H285.262    c-4.143,0-7.5,3.357-7.5,7.5s3.357,7.5,7.5,7.5h33.329v28.951c0,9.649,7.851,17.5,17.5,17.5h20.513v13.513l-82.238-7.815    c-8.638-0.821-17.258,2.056-23.67,7.887c-6.413,5.833-10.091,14.149-10.091,22.818c0,8.668,3.678,16.984,10.09,22.817    c5.693,5.178,13.132,8.024,20.769,8.024c0.965,0,1.934-0.045,2.902-0.137l82.593-7.849c1.63,7.973,8.698,13.989,17.146,13.989h14    c9.649,0,17.5-7.851,17.5-17.5v-55.748h11.433c9.649,0,17.5-7.851,17.5-17.5v-28.951h22.575v109.098    C457.111,256.881,460.469,260.238,464.611,260.238z M90.494,472.507c0,1.379-1.122,2.5-2.5,2.5h-25c-1.378,0-2.5-1.121-2.5-2.5    v-16.691h30V472.507z M453.506,472.507c0,1.379-1.121,2.5-2.5,2.5h-25c-1.379,0-2.5-1.121-2.5-2.5v-16.691h30V472.507z     M105.841,190.092h20.513v13.514l-69.466-6.602v-53.363h31.453v28.951C88.341,182.241,96.191,190.092,105.841,190.092z     M30.537,238.215c-3.342-3.039-5.183-7.202-5.183-11.72c0-4.519,1.841-8.681,5.184-11.721c3.342-3.041,7.657-4.483,12.159-4.051    l83.658,7.95v15.642l-83.658,7.95C38.199,242.697,33.88,241.256,30.537,238.215z M160.354,245.84c0,1.379-1.122,2.5-2.5,2.5h-14    c-1.378,0-2.5-1.121-2.5-2.5v-55.748h19V245.84z M189.286,172.592c0,1.379-1.122,2.5-2.5,2.5h-80.945c-1.378,0-2.5-1.121-2.5-2.5    v-28.951h85.945V172.592z M331.762,84.99c-13.232,0-23.998-10.766-23.998-23.998c0-13.233,10.766-23.999,23.998-23.999    c13.233,0,23.999,10.766,23.999,23.999C355.761,74.225,344.995,84.99,331.762,84.99z M427.301,84.99    c-13.232,0-23.998-10.766-23.998-23.998c0-13.233,10.766-23.999,23.998-23.999c13.233,0,23.999,10.766,23.999,23.999    C451.3,74.225,440.534,84.99,427.301,84.99z M272.946,242.267c-4.496,0.431-8.817-1.011-12.16-4.052    c-3.342-3.039-5.183-7.202-5.183-11.72c0-4.519,1.841-8.681,5.184-11.721c3.344-3.041,7.671-4.479,12.158-4.051l83.658,7.95    v15.642L272.946,242.267z M390.604,245.84c0,1.379-1.121,2.5-2.5,2.5h-14c-1.379,0-2.5-1.121-2.5-2.5v-55.748h19V245.84z     M419.536,172.592c0,1.379-1.121,2.5-2.5,2.5h-80.945c-1.379,0-2.5-1.121-2.5-2.5v-28.951h85.945V172.592z"/>
		<path id="XMLID_247_" d="M248.071,91.066c-0.024,0-0.048,0-0.072,0c-4.109,0-7.459,3.312-7.498,7.43    c-0.039,4.142,3.287,7.531,7.429,7.57l0.104,0.001c0.024,0,0.048,0,0.072,0c4.109,0,7.459-3.312,7.498-7.43    c0.039-4.142-3.287-7.531-7.429-7.57L248.071,91.066z"/>
		<path id="XMLID_248_" d="M202.967,91.066c-0.024,0-0.048,0-0.072,0c-4.109,0-7.459,3.312-7.498,7.43    c-0.039,4.142,3.287,7.531,7.429,7.57l0.104,0.001c0.024,0,0.048,0,0.072,0c4.109,0,7.459-3.312,7.498-7.43    c0.039-4.142-3.287-7.531-7.429-7.57L202.967,91.066z"/>
		<path id="XMLID_249_" d="M105,91.067c-4.142,0-7.5,3.358-7.5,7.5c0,4.143,3.358,7.5,7.5,7.5l52.793-0.001    c4.142,0,7.5-3.358,7.5-7.5c0-4.143-3.358-7.5-7.5-7.5L105,91.067z"/>
		<path id="XMLID_250_" d="M193,302v35c0,4.143,3.358,7.5,7.5,7.5s7.5-3.357,7.5-7.5v-35c0-4.143-3.358-7.5-7.5-7.5    S193,297.857,193,302z"/>
		<path id="XMLID_251_" d="M230,302v35c0,4.143,3.358,7.5,7.5,7.5s7.5-3.357,7.5-7.5v-35c0-4.143-3.358-7.5-7.5-7.5    S230,297.857,230,302z"/>
		<path id="XMLID_252_" d="M267,302v35c0,4.143,3.357,7.5,7.5,7.5s7.5-3.357,7.5-7.5v-35c0-4.143-3.357-7.5-7.5-7.5    S267,297.857,267,302z"/>
		<path id="XMLID_253_" d="M304,302v35c0,4.143,3.357,7.5,7.5,7.5s7.5-3.357,7.5-7.5v-35c0-4.143-3.357-7.5-7.5-7.5    S304,297.857,304,302z"/>
	</g>
</g>















</svg>
