<?xml version="1.0" encoding="iso-8859-1"?>
<!-- Generator: Adobe Illustrator 19.0.0, SVG Export Plug-In . SVG Version: 6.00 Build 0)  -->
<svg xmlns="http://www.w3.org/2000/svg" xmlns:xlink="http://www.w3.org/1999/xlink" version="1.1" id="Layer_1" x="0px" y="0px" viewBox="0 0 512 512" style="enable-background:new 0 0 512 512;" xml:space="preserve" width="512" height="512">
<g id="XMLID_213_">
	<g id="XMLID_214_">
		<path id="XMLID_215_" d="M445.774,215.837h-14.427c-1.114-6.178-6.52-10.884-13.014-10.884h-14.021    c-6.495,0-11.9,4.706-13.015,10.884h-29.036c-4.143,0-7.5,3.357-7.5,7.5s3.357,7.5,7.5,7.5h28.814v101.578H285.022V230.837h42.717    c4.143,0,7.5-3.357,7.5-7.5s-3.357-7.5-7.5-7.5H284.8c-1.114-6.178-6.52-10.884-13.015-10.884h-14.021    c-6.494,0-11.899,4.706-13.014,10.884H224.22v-21.009c0-2.94-0.975-5.649-2.603-7.848c22.798-22.457,37.115-61.495,37.911-104.734    c0.001-0.046,0.001-0.092,0.001-0.138v-42.65c5.421-3.979,8.948-10.392,8.948-17.616C268.478,9.799,258.679,0,246.635,0H109.563    C97.518,0,87.719,9.799,87.719,21.843c0,7.224,3.528,13.638,8.949,17.616v42.649c0,0.046,0,0.092,0.001,0.138    c0.233,12.706,1.642,25.221,4.187,37.196c0.749,3.526,3.862,5.943,7.328,5.943c0.517,0,1.041-0.054,1.566-0.166    c4.052-0.86,6.639-4.843,5.777-8.895c-2.341-11.021-3.64-22.557-3.859-34.286V43.686H244.53v38.353    c-0.8,42.573-16.259,81.613-39.393,99.472c-0.034,0.026-0.063,0.056-0.097,0.083h-53.866c-9.875-7.588-18.648-19.287-25.375-33.84    c-1.737-3.758-6.19-5.397-9.955-3.66c-3.76,1.738-5.398,6.194-3.66,9.955c6.064,13.117,13.716,24.315,22.413,32.911    c-1.637,2.203-2.618,4.92-2.618,7.869v21.009h-27.199c-9.406,0-17.06,7.653-17.06,17.06v0.478H66.226    c-9.406,0-17.06,7.653-17.06,17.06v62.385c0,9.406,7.653,17.06,17.06,17.06h21.493v0.478c0,9.406,7.653,17.06,17.06,17.06h13.216    v17.664h-4.267c-9.406,0-17.06,7.653-17.06,17.06v88.573h-3.107c-11.383,0-20.644,9.261-20.644,20.644    c0,11.384,9.261,20.645,20.644,20.645h323.636c11.383,0,20.644-9.261,20.644-20.645c0-11.383-9.261-20.644-20.644-20.644H349.39    l-9.359-47.889c-0.794-4.064-4.731-6.72-8.799-5.922c-4.065,0.794-6.717,4.733-5.922,8.799l8.797,45.012H202.013l24.095-123.297    h18.446c0.259,7.073,6.077,12.75,13.211,12.75h14.021c7.135,0,12.953-5.677,13.212-12.75h25.014l8.553,43.762    c0.699,3.58,3.837,6.063,7.353,6.063c0.477,0,0.961-0.045,1.446-0.141c4.065-0.794,6.717-4.733,5.922-8.799l-7.99-40.885h65.807    c0.259,7.073,6.077,12.75,13.212,12.75h14.021c7.134,0,12.952-5.677,13.211-12.75h14.23c9.406,0,17.06-7.653,17.06-17.06v-97.459    C462.833,223.49,455.18,215.837,445.774,215.837z M109.563,15h137.072c3.773,0,6.843,3.069,6.843,6.843s-3.069,6.843-6.843,6.843    H109.563c-3.773,0-6.844-3.069-6.844-6.843S105.79,15,109.563,15z M244.53,230.837v101.578h-31.825c-1.136,0-2.06-0.924-2.06-2.06    v-26.515h0.34c7.298,0,13.235-5.938,13.235-13.235v-59.769H244.53z M207.373,365.079h-44.745v-18.524    c6.808-2.241,11.741-8.651,11.741-16.199v-26.515h21.275v26.515c0,8.778,6.667,16.024,15.201,16.953L207.373,365.079z     M146.978,196.593h62.242v92.248H174.37v-55.944c0-9.406-7.653-17.06-17.06-17.06h-10.332V196.593z M102.719,292.132h18.474    c2.805,0,5.087,2.282,5.087,5.087s-2.282,5.087-5.087,5.087h-18.474V292.132z M66.226,314.878c-1.136,0-2.06-0.924-2.06-2.06    v-8.978h7.795c4.143,0,7.5-3.357,7.5-7.5s-3.357-7.5-7.5-7.5h-7.795v-14.234h7.795c4.143,0,7.5-3.357,7.5-7.5s-3.357-7.5-7.5-7.5    h-7.795v-9.173c0-1.136,0.924-2.06,2.06-2.06h21.493v66.504H66.226z M102.719,330.355v-13.05h18.474    c11.076,0,20.087-9.011,20.087-20.087s-9.011-20.087-20.087-20.087h-18.474v-44.235c0-1.136,0.924-2.06,2.06-2.06h52.531    c1.136,0,2.06,0.924,2.06,2.06v97.459c0,1.136-0.924,2.06-2.06,2.06h-52.531C103.643,332.415,102.719,331.491,102.719,330.355z     M132.995,347.415h14.634v17.664h-14.634V347.415z M422.84,491.355c0,3.112-2.531,5.645-5.644,5.645H93.561    c-3.112,0-5.644-2.532-5.644-5.645s2.531-5.644,5.644-5.644h323.636C420.309,485.712,422.84,488.243,422.84,491.355z     M111.668,470.712v-88.573c0-1.136,0.924-2.06,2.06-2.06h90.714l-17.712,90.633H111.668z M270.022,345.165H259.53V219.953h10.492    V345.165z M416.569,345.165h-10.492V219.953h10.492V345.165z M447.833,330.355c0,1.136-0.924,2.06-2.06,2.06h-14.205V230.837    h14.205c1.136,0,2.06,0.924,2.06,2.06V330.355z"/>
		<path id="XMLID_230_" d="M139.478,399.021c-4.143,0-7.5,3.357-7.5,7.5v15.296c0,4.143,3.357,7.5,7.5,7.5s7.5-3.357,7.5-7.5    v-15.296C146.978,402.379,143.621,399.021,139.478,399.021z"/>
		<path id="XMLID_231_" d="M168.775,399.021c-4.143,0-7.5,3.357-7.5,7.5v15.296c0,4.143,3.357,7.5,7.5,7.5s7.5-3.357,7.5-7.5    v-15.296C176.275,402.379,172.917,399.021,168.775,399.021z"/>
	</g>
</g>















</svg>
