<?xml version="1.0" encoding="iso-8859-1"?>
<!-- Generator: Adobe Illustrator 19.0.0, SVG Export Plug-In . SVG Version: 6.00 Build 0)  -->
<svg xmlns="http://www.w3.org/2000/svg" xmlns:xlink="http://www.w3.org/1999/xlink" version="1.1" id="Layer_1" x="0px" y="0px" viewBox="0 0 512 512" style="enable-background:new 0 0 512 512;" xml:space="preserve" width="512" height="512">
<g id="XMLID_781_">
	<g id="XMLID_782_">
		<path id="XMLID_783_" d="M445.219,125.761c-4.143,0-7.5,3.358-7.5,7.5V366.93H96.461v-25.22H96.8    c15.453,0,28.024-12.572,28.024-28.024s-12.571-28.024-28.024-28.024h-0.339v-59.323H96.8c15.453,0,28.024-12.571,28.024-28.024    S112.253,170.29,96.8,170.29h-0.339v-59.323H96.8c15.453,0,28.024-12.572,28.024-28.024S112.253,54.918,96.8,54.918h-0.339V27.5    c0-6.893,5.607-12.5,12.5-12.5h68.867c4.143,0,7.5-3.358,7.5-7.5s-3.357-7.5-7.5-7.5h-68.867c-15.163,0-27.5,12.336-27.5,27.5    v28.036c-12.656,2.696-22.18,13.958-22.18,27.407s9.523,24.711,22.18,27.407v60.558c-12.656,2.696-22.18,13.958-22.18,27.407    s9.523,24.71,22.18,27.406v60.558c-12.656,2.696-22.18,13.958-22.18,27.406s9.523,24.711,22.18,27.407v60.558    c-12.656,2.696-22.18,13.958-22.18,27.407s9.523,24.711,22.18,27.407V484.5c0,15.164,12.337,27.5,27.5,27.5h196.867    c4.143,0,7.5-3.358,7.5-7.5s-3.357-7.5-7.5-7.5H108.961c-6.893,0-12.5-5.607-12.5-12.5v-27.418H96.8    c15.453,0,28.024-12.572,28.024-28.024s-12.571-28.024-28.024-28.024h-0.339V381.93h341.258V484.5c0,6.893-5.607,12.5-12.5,12.5    h-84.867c-4.143,0-7.5,3.358-7.5,7.5s3.357,7.5,7.5,7.5h84.867c15.163,0,27.5-12.336,27.5-27.5V133.261    C452.719,129.119,449.361,125.761,445.219,125.761z M74.281,82.943c0-7.182,5.843-13.024,13.024-13.024H96.8    c7.182,0,13.024,5.843,13.024,13.024S103.981,95.967,96.8,95.967h-9.494C80.124,95.967,74.281,90.125,74.281,82.943z     M74.281,198.314c0-7.182,5.843-13.024,13.024-13.024H96.8c7.182,0,13.024,5.843,13.024,13.024s-5.843,13.024-13.024,13.024    h-9.494C80.124,211.338,74.281,205.496,74.281,198.314z M74.281,313.686c0-7.182,5.843-13.024,13.024-13.024H96.8    c7.182,0,13.024,5.842,13.024,13.024S103.981,326.71,96.8,326.71h-9.494C80.124,326.71,74.281,320.867,74.281,313.686z     M109.824,429.057c0,7.182-5.843,13.024-13.024,13.024h-9.494c-7.182,0-13.024-5.843-13.024-13.024s5.843-13.024,13.024-13.024    H96.8C103.981,416.033,109.824,421.875,109.824,429.057z"/>
		<path id="XMLID_789_" d="M425.219,0H212.352c-4.143,0-7.5,3.358-7.5,7.5s3.357,7.5,7.5,7.5h212.867c6.893,0,12.5,5.607,12.5,12.5    v71.239c0,4.142,3.357,7.5,7.5,7.5s7.5-3.358,7.5-7.5V27.5C452.719,12.336,440.382,0,425.219,0z"/>
		<path id="XMLID_790_" d="M267.09,47.008c-45.117,0-81.823,36.706-81.823,81.823s36.706,81.823,81.823,81.823    s81.823-36.706,81.823-81.823S312.207,47.008,267.09,47.008z M267.09,195.654c-36.847,0-66.823-29.977-66.823-66.823    s29.977-66.823,66.823-66.823s66.823,29.977,66.823,66.823S303.937,195.654,267.09,195.654z"/>
		<path id="XMLID_793_" d="M242.92,106.221C242.919,106.221,242.919,106.221,242.92,106.221    c-17.611,17.611-20.79,42.023-7.237,55.578c5.652,5.652,13.189,8.393,21.337,8.393c11.392,0,23.973-5.362,34.241-15.63    c17.61-17.611,20.789-42.023,7.236-55.578C284.94,85.43,260.53,88.609,242.92,106.221z M253.526,116.827L253.526,116.827    c8.409-8.408,19.295-12.385,27.338-10.817l-38.155,38.156C241.141,136.122,245.118,125.235,253.526,116.827z M280.654,143.955    c-8.409,8.407-19.296,12.385-27.339,10.817l38.155-38.156C293.039,124.66,289.062,135.547,280.654,143.955z"/>
		<path id="XMLID_797_" d="M346.649,235.513H187.53c-6.844,0-12.411,5.567-12.411,12.411v2.982h-9.486    c-5.577,0-10.5,3.757-11.972,9.138l-8.841,32.34c-1.029,3.764-0.262,7.701,2.105,10.803c2.368,3.102,5.964,4.881,9.866,4.881    h37.722c6.844,0,12.411-5.567,12.411-12.411v-8.464h120.33v8.464c0,6.844,5.567,12.411,12.411,12.411h37.722    c3.902,0,7.498-1.779,9.866-4.881c2.367-3.102,3.135-7.04,2.105-10.803l-8.841-32.342c-1.472-5.379-6.395-9.137-11.972-9.137    h-9.486v-2.982C359.061,241.08,353.493,235.513,346.649,235.513z M190.119,250.513h153.941v21.68H190.119V250.513z     M191.925,293.068h-31.741l7.425-27.162h7.511v8.875c0,6.844,5.567,12.411,12.411,12.411h4.395V293.068z M366.571,265.906    l7.425,27.162h-31.741v-5.875h4.395c6.844,0,12.411-5.567,12.411-12.411v-8.875H366.571z"/>
		<path id="XMLID_802_" d="M276.744,433.254c4.143,0,7.5-3.358,7.5-7.5s-3.357-7.5-7.5-7.5h-19.309c-4.143,0-7.5,3.358-7.5,7.5    s3.357,7.5,7.5,7.5H276.744z"/>
		<path id="XMLID_803_" d="M224.753,453.176c0,4.142,3.357,7.5,7.5,7.5h69.674c4.143,0,7.5-3.358,7.5-7.5s-3.357-7.5-7.5-7.5    h-69.674C228.11,445.676,224.753,449.034,224.753,453.176z"/>
		<path id="XMLID_804_" d="M257.436,326.71c-4.143,0-7.5,3.358-7.5,7.5s3.357,7.5,7.5,7.5h19.309c4.143,0,7.5-3.358,7.5-7.5    s-3.357-7.5-7.5-7.5H257.436z"/>
	</g>
</g>















</svg>
