<?xml version="1.0" encoding="iso-8859-1"?>
<!-- Generator: Adobe Illustrator 19.0.0, SVG Export Plug-In . SVG Version: 6.00 Build 0)  -->
<svg xmlns="http://www.w3.org/2000/svg" xmlns:xlink="http://www.w3.org/1999/xlink" version="1.1" id="Layer_1" x="0px" y="0px" viewBox="0 0 511.997 511.997" style="enable-background:new 0 0 511.997 511.997;" xml:space="preserve" width="512" height="512">
<g id="XMLID_186_">
	<g id="XMLID_187_">
		<path id="XMLID_188_" d="M455.079,0H196.26c-4.143,0-7.5,3.357-7.5,7.5s3.357,7.5,7.5,7.5h258.818    c1.129,0,2.048,0.919,2.048,2.048v89.895c0,1.129-0.919,2.048-2.048,2.048H56.918c-1.129,0-2.048-0.919-2.048-2.048V17.048    c0-1.129,0.919-2.048,2.048-2.048h104.818c4.143,0,7.5-3.357,7.5-7.5s-3.357-7.5-7.5-7.5H56.918    c-9.4,0-17.048,7.647-17.048,17.048v89.895c0,9.4,7.647,17.048,17.048,17.048h25.527l28.467,268.607H91.292    c-9.4,0-17.048,7.648-17.048,17.049v43.108c0,14.665,11.932,26.596,26.597,26.596h16.843v15.599c0,9.4,7.647,17.048,17.048,17.048    h23.87c9.4,0,17.049-7.647,17.049-17.048v-15.599h162.607v15.599c0,9.4,7.647,17.048,17.048,17.048h23.871    c9.4,0,17.048-7.647,17.048-17.048v-15.599h14.933c14.665,0,26.597-11.931,26.597-26.596v-43.108    c0-9.4-7.647-17.049-17.048-17.049h-17.711l15.531-146.549c0.437-4.119-2.549-7.812-6.668-8.248    c-4.118-0.435-7.812,2.55-8.248,6.668l-15.698,148.129h-64.65c-4.143,0-7.5,3.357-7.5,7.5s3.357,7.5,7.5,7.5h97.445    c1.129,0,2.048,0.919,2.048,2.049v43.108c0,6.394-5.202,11.596-11.597,11.596H100.84c-6.395,0-11.597-5.202-11.597-11.596v-43.108    c0-1.13,0.919-2.049,2.048-2.049h43.841v25.919c0,4.143,3.357,7.5,7.5,7.5s7.5-3.357,7.5-7.5v-25.919h20.328v25.919    c0,4.143,3.357,7.5,7.5,7.5s7.5-3.357,7.5-7.5v-25.919h20.328v25.919c0,4.143,3.357,7.5,7.5,7.5s7.5-3.357,7.5-7.5v-25.919h20.329    v25.919c0,4.143,3.357,7.5,7.5,7.5s7.5-3.357,7.5-7.5v-25.919h32.619c4.143,0,7.5-3.357,7.5-7.5s-3.357-7.5-7.5-7.5H125.996    L97.529,123.99h100.609v27.305c0,9.4,7.647,17.048,17.048,17.048h19.244v12.192l-78.149-7.427    c-8.333-0.795-16.667,1.984-22.86,7.618c-6.194,5.633-9.746,13.665-9.746,22.037s3.552,16.404,9.746,22.037    c5.498,5.001,12.683,7.751,20.058,7.751c0.933,0,1.868-0.044,2.804-0.133l78.569-7.467c1.702,7.617,8.505,13.332,16.627,13.332    h13.368c9.4,0,17.048-7.648,17.048-17.049v-52.891h10.58c9.214,0,16.727-7.353,17.021-16.497h34.39    c7.21,0,13.988,2.808,19.086,7.906l15.002,15.002c1.465,1.464,3.385,2.196,5.304,2.196s3.839-0.732,5.304-2.196    c2.929-2.93,2.929-7.678,0-10.607l-15.002-15.002c-7.932-7.931-18.477-12.299-29.693-12.299h-34.362V123.99h106.854l-9.109,85.955    c-0.437,4.119,2.549,7.812,6.668,8.248c0.269,0.028,0.535,0.043,0.799,0.043c3.787,0,7.041-2.86,7.449-6.711l9.277-87.535h23.618    c9.4,0,17.048-7.647,17.048-17.048V17.048C472.126,7.647,464.479,0,455.079,0z M160.65,494.949c0,1.129-0.919,2.048-2.049,2.048    h-23.87c-1.129,0-2.048-0.919-2.048-2.048v-15.599h27.967V494.949z M381.224,494.949c0,1.129-0.919,2.048-2.048,2.048h-23.871    c-1.129,0-2.048-0.919-2.048-2.048v-15.599h27.967V494.949z M154.863,217.484c-4.202,0.401-8.23-0.943-11.351-3.781    s-4.838-6.723-4.838-10.94s1.718-8.103,4.838-10.94c3.121-2.837,7.158-4.188,11.35-3.781l79.568,7.562v14.319L154.863,217.484z     M266.894,221.233c0,1.13-0.919,2.049-2.048,2.049h-13.368c-1.129,0-2.048-0.919-2.048-2.049v-52.891h17.464V221.233z     M294.523,151.295c0,1.129-0.919,2.048-2.049,2.048h-77.288c-1.129,0-2.048-0.919-2.048-2.048V123.99h81.385V151.295z"/>
		<path id="XMLID_195_" d="M392.804,61.993c0-15.64-12.725-28.364-28.364-28.364c-15.641,0-28.365,12.725-28.365,28.364    c0,15.641,12.725,28.365,28.365,28.365C380.08,90.358,392.804,77.634,392.804,61.993z M351.075,61.993    c0-7.369,5.996-13.364,13.365-13.364s13.364,5.995,13.364,13.364s-5.995,13.365-13.364,13.365S351.075,69.362,351.075,61.993z"/>
		<path id="XMLID_198_" d="M147.557,33.629c-15.64,0-28.364,12.725-28.364,28.364c0,15.641,12.725,28.365,28.364,28.365    c15.641,0,28.365-12.725,28.365-28.365C175.922,46.354,163.198,33.629,147.557,33.629z M147.557,75.358    c-7.369,0-13.364-5.996-13.364-13.365s5.995-13.364,13.364-13.364s13.365,5.995,13.365,13.364S154.926,75.358,147.557,75.358z"/>
		<path id="XMLID_201_" d="M304.999,242.475c-9.649,0-17.5,7.851-17.5,17.5v97.504c0,9.649,7.851,17.5,17.5,17.5h52.242    c9.649,0,17.5-7.851,17.5-17.5v-97.504c0-9.649-7.851-17.5-17.5-17.5H304.999z M359.741,259.975v97.504c0,1.379-1.121,2.5-2.5,2.5    h-52.242c-1.379,0-2.5-1.121-2.5-2.5v-97.504c0-1.379,1.121-2.5,2.5-2.5h52.242C358.62,257.475,359.741,258.596,359.741,259.975z"/>
		<path id="XMLID_204_" d="M336.309,324.497h-10c-4.143,0-7.5,3.357-7.5,7.5s3.357,7.5,7.5,7.5h10c4.143,0,7.5-3.357,7.5-7.5    S340.452,324.497,336.309,324.497z"/>
		<path id="XMLID_205_" d="M331.257,311.997h0.104c4.143,0,7.5-3.357,7.5-7.5s-3.357-7.5-7.5-7.5h-0.104c-4.143,0-7.5,3.357-7.5,7.5    S327.115,311.997,331.257,311.997z"/>
		<path id="XMLID_206_" d="M331.187,286.273l0.104,0.001c0.023,0,0.048,0,0.072,0c4.108,0,7.459-3.312,7.498-7.43    c0.039-4.142-3.287-7.531-7.43-7.57l-0.104-0.001c-0.023,0-0.048,0-0.072,0c-4.108,0-7.459,3.312-7.498,7.43    C323.718,282.845,327.044,286.234,331.187,286.273z"/>
		<path id="XMLID_207_" d="M289.999,79.83c11.304,0,20.5-9.196,20.5-20.5s-9.196-20.5-20.5-20.5h-68c-11.304,0-20.5,9.196-20.5,20.5    s9.196,20.5,20.5,20.5H289.999z M216.499,59.33c0-3.033,2.467-5.5,5.5-5.5h68c3.033,0,5.5,2.467,5.5,5.5s-2.467,5.5-5.5,5.5h-68    C218.965,64.83,216.499,62.363,216.499,59.33z"/>
		<path id="XMLID_210_" d="M174.332,271.273h-22c-4.143,0-7.5,3.357-7.5,7.5s3.357,7.5,7.5,7.5h22c4.143,0,7.5-3.357,7.5-7.5    S178.474,271.273,174.332,271.273z"/>
		<path id="XMLID_211_" d="M174.332,301.227h-22c-4.143,0-7.5,3.357-7.5,7.5s3.357,7.5,7.5,7.5h22c4.143,0,7.5-3.357,7.5-7.5    S178.474,301.227,174.332,301.227z"/>
		<path id="XMLID_212_" d="M174.332,331.18h-22c-4.143,0-7.5,3.357-7.5,7.5s3.357,7.5,7.5,7.5h22c4.143,0,7.5-3.357,7.5-7.5    S178.474,331.18,174.332,331.18z"/>
	</g>
</g>















</svg>
