<?xml version="1.0" encoding="iso-8859-1"?>
<!-- Generator: Adobe Illustrator 19.0.0, SVG Export Plug-In . SVG Version: 6.00 Build 0)  -->
<svg xmlns="http://www.w3.org/2000/svg" xmlns:xlink="http://www.w3.org/1999/xlink" version="1.1" id="Layer_1" x="0px" y="0px" viewBox="0 0 511.959 511.959" style="enable-background:new 0 0 511.959 511.959;" xml:space="preserve" width="512" height="512">
<g id="XMLID_165_">
	<g id="XMLID_166_">
		<path id="XMLID_167_" d="M402.874,262.181c0.171,0.012,0.34,0.017,0.509,0.017c3.914,0,7.21-3.036,7.476-6.999    c1.078-16.088,4.286-48.004,13.661-82.854h20.951c9.903,0,17.959-8.056,17.959-17.958v-42.725c0-9.902-8.056-17.959-17.959-17.959    h-27.492c-9.09-20.362-21.74-38.742-37.639-54.643c-14.134-14.134-32.926-21.918-52.915-21.917    c-19.669,0-38.169,7.551-52.223,21.259c-3.77-4.428-7.738-8.733-11.851-12.847c-34.075-34.074-89.519-34.074-123.594,0    c-19.736,19.736-35.193,42.659-45.994,68.147H66.487c-9.903,0-17.959,8.057-17.959,17.959v42.725    c0,9.902,8.056,17.958,17.959,17.958H87.44c13.61,50.596,14.254,95.28,14.259,95.657l0,10.706    c-0.01,0.942-1.442,95.031-42.377,165.811c-8.093,13.995-8.085,30.741,0.023,44.796c8.18,14.18,22.819,22.645,39.161,22.645    h314.947c16.342,0,30.981-8.465,39.161-22.645c8.108-14.055,8.116-30.801,0.022-44.796    c-32.913-56.907-40.305-127.872-41.956-155.741c-0.245-4.136-3.784-7.281-7.93-7.044c-4.135,0.245-7.289,3.796-7.043,7.931    c1.714,28.936,9.427,102.681,43.945,162.364c5.378,9.299,5.366,20.436-0.031,29.791c-5.469,9.48-15.251,15.14-26.168,15.14H98.506    c-10.917,0-20.699-5.659-26.168-15.14c-5.397-9.355-5.409-20.492-0.031-29.791c42.89-74.158,44.351-169.158,44.392-173.243    l0-10.86c-0.019-1.885-0.614-44.792-13.743-95.58h236.763c4.142,0,7.5-3.357,7.5-7.5s-3.358-7.5-7.5-7.5H66.487    c-1.631,0-2.959-1.327-2.959-2.958v-42.725c0-1.632,1.328-2.959,2.959-2.959h97.231c4.142,0,7.5-3.357,7.5-7.5s-3.358-7.5-7.5-7.5    h-53.556c9.871-21.371,23.362-40.7,40.203-57.54c28.227-28.227,74.154-28.227,102.38,0c4.24,4.24,8.305,8.704,12.145,13.294    c-11.456,13.353-20.847,28.181-28.018,44.246h-38.632c-4.142,0-7.5,3.357-7.5,7.5s3.358,7.5,7.5,7.5h247.231    c1.632,0,2.959,1.327,2.959,2.959v42.725c0,1.631-1.327,2.958-2.959,2.958h-71.231c-4.142,0-7.5,3.357-7.5,7.5s3.358,7.5,7.5,7.5    h34.767c-8.918,34.555-12.041,65.811-13.115,81.852C395.615,258.329,398.741,261.903,402.874,262.181z M285.117,49.668    c11.301-11.301,26.327-17.525,42.309-17.524c15.982,0,31.007,6.224,42.308,17.525c12.988,12.988,23.616,27.772,31.677,44.034    H253.443C261.503,77.444,272.127,62.659,285.117,49.668z"/>
		<path id="XMLID_170_" d="M255.979,247.099c-43.432,0-78.766,35.335-78.766,78.767s35.334,78.766,78.766,78.766    s78.766-35.334,78.766-78.766S299.411,247.099,255.979,247.099z M255.979,389.631c-35.161,0-63.766-28.605-63.766-63.766    c0-35.161,28.605-63.767,63.766-63.767s63.766,28.605,63.766,63.767C319.746,361.025,291.14,389.631,255.979,389.631z"/>
		<path id="XMLID_173_" d="M259.694,289.465c-9.689,1.56-19.317,6.709-27.109,14.501c0,0,0,0,0,0.001    c-17.009,17.009-20.057,40.609-6.939,53.727c5.239,5.239,12.576,8.045,20.703,8.045c1.933,0,3.912-0.159,5.916-0.481    c9.689-1.56,19.317-6.709,27.109-14.502c17.009-17.009,20.057-40.609,6.939-53.727    C279.829,290.543,270.128,287.787,259.694,289.465z M243.191,314.572L243.191,314.572c5.499-5.498,12.382-9.251,18.886-10.298    c1.646-0.264,4.001-0.463,6.464-0.083l-35.743,35.744C231.602,332.389,235.397,322.367,243.191,314.572z M268.768,340.148    c-5.499,5.499-12.382,9.252-18.886,10.299c-1.645,0.265-4.001,0.464-6.464,0.083l35.744-35.744    C280.357,322.333,276.562,332.354,268.768,340.148z"/>
		<path id="XMLID_177_" d="M345.392,439.556c1.919,0,3.839-0.732,5.303-2.196l11.815-11.814c2.929-2.929,2.929-7.678,0-10.606    c-2.93-2.93-7.678-2.929-10.607-0.001l-11.815,11.814c-2.929,2.929-2.929,7.678,0,10.606    C341.553,438.823,343.472,439.556,345.392,439.556z"/>
		<path id="XMLID_178_" d="M364.548,458.712c1.919,0,3.839-0.732,5.303-2.196l11.815-11.814c2.929-2.929,2.929-7.678,0-10.606    c-2.93-2.93-7.678-2.929-10.607-0.001l-11.815,11.814c-2.929,2.929-2.929,7.678,0,10.606    C360.709,457.979,362.628,458.712,364.548,458.712z"/>
		<path id="XMLID_179_" d="M347.43,237.458c1.464,1.464,3.384,2.196,5.303,2.196s3.839-0.732,5.303-2.197l11.815-11.815    c2.929-2.929,2.929-7.678,0-10.606c-2.929-2.928-7.678-2.929-10.606,0.001l-11.815,11.815    C344.5,229.78,344.5,234.529,347.43,237.458z"/>
		<path id="XMLID_180_" d="M350.695,206.485c2.929-2.929,2.929-7.678,0-10.606c-2.929-2.928-7.678-2.929-10.606,0.001    l-11.815,11.815c-2.929,2.929-2.929,7.678,0,10.606c1.464,1.464,3.384,2.196,5.303,2.196s3.839-0.732,5.303-2.197L350.695,206.485    z"/>
		<path id="XMLID_181_" d="M153.929,408.399c1.919,0,3.839-0.732,5.303-2.197l11.815-11.815c2.929-2.929,2.929-7.678,0-10.606    c-2.929-2.928-7.678-2.929-10.606,0.001l-11.815,11.815c-2.929,2.929-2.929,7.678,0,10.606    C150.09,407.667,152.01,408.399,153.929,408.399z"/>
		<path id="XMLID_182_" d="M151.891,364.624c-2.929-2.928-7.678-2.928-10.606,0l-11.815,11.815c-2.929,2.93-2.929,7.678,0,10.607    c1.464,1.464,3.384,2.196,5.303,2.196s3.839-0.732,5.303-2.196l11.815-11.815C154.82,372.302,154.82,367.554,151.891,364.624z"/>
		<path id="XMLID_183_" d="M345.513,51.02l-0.108-0.001c-0.023,0-0.045,0-0.069,0c-4.11,0-7.461,3.313-7.498,7.433    c-0.038,4.142,3.29,7.529,7.432,7.567l0.108,0.001c0.023,0,0.045,0,0.069,0c4.11,0,7.461-3.313,7.498-7.433    C352.983,54.445,349.655,51.058,345.513,51.02z"/>
		<path id="XMLID_184_" d="M214.494,78.201c4.142,0,7.5-3.357,7.5-7.5s-3.358-7.5-7.5-7.5h-0.108c-4.142,0-7.5,3.357-7.5,7.5    s3.358,7.5,7.5,7.5H214.494z"/>
		<path id="XMLID_185_" d="M229.833,55.386c4.142,0,7.5-3.357,7.5-7.5s-3.358-7.5-7.5-7.5h-0.108c-4.142,0-7.5,3.357-7.5,7.5    s3.358,7.5,7.5,7.5H229.833z"/>
	</g>
</g>















</svg>
