<?xml version="1.0" encoding="iso-8859-1"?>
<!-- Generator: Adobe Illustrator 19.0.0, SVG Export Plug-In . SVG Version: 6.00 Build 0)  -->
<svg xmlns="http://www.w3.org/2000/svg" xmlns:xlink="http://www.w3.org/1999/xlink" version="1.1" id="Layer_1" x="0px" y="0px" viewBox="0 0 512 512" style="enable-background:new 0 0 512 512;" xml:space="preserve" width="512" height="512">
<g id="XMLID_129_">
	<g id="XMLID_130_">
		<path id="XMLID_131_" d="M445.06,74.898V17.293C445.06,7.758,437.302,0,427.767,0H84.233C74.698,0,66.94,7.758,66.94,17.293    v57.605c0,8.366,5.974,15.361,13.879,16.951v16.512c-7.905,1.59-13.879,8.585-13.879,16.951v369.395    c0,9.535,7.758,17.293,17.293,17.293h343.533c9.535,0,17.293-7.758,17.293-17.293V278.262c0-4.143-3.357-7.5-7.5-7.5    s-7.5,3.357-7.5,7.5v178.027H377.5V123.02h50.267c1.265,0,2.293,1.028,2.293,2.293v118.426c0,4.143,3.357,7.5,7.5,7.5    s7.5-3.357,7.5-7.5V125.313c0-8.366-5.974-15.361-13.879-16.951V91.85C439.086,90.26,445.06,83.265,445.06,74.898z M81.94,17.293    c0-1.265,1.029-2.293,2.293-2.293h343.533c1.265,0,2.293,1.028,2.293,2.293v57.605c0,1.265-1.028,2.293-2.293,2.293H222.261    c-4.142,0-7.5,3.357-7.5,7.5s3.358,7.5,7.5,7.5h193.919v15.828H95.819V92.191h91.919c4.142,0,7.5-3.357,7.5-7.5    s-3.358-7.5-7.5-7.5H84.233c-1.264,0-2.293-1.028-2.293-2.293V17.293z M430.06,494.707c0,1.265-1.028,2.293-2.293,2.293H84.233    c-1.264,0-2.293-1.028-2.293-2.293v-23.418H430.06V494.707z M362.5,456.289h-213V399c0-4.143-3.358-7.5-7.5-7.5    s-7.5,3.357-7.5,7.5v57.289H81.94V125.313c0-1.265,1.029-2.293,2.293-2.293H134.5V363c0,4.143,3.358,7.5,7.5,7.5    s7.5-3.357,7.5-7.5V123.02h213V456.289z"/>
		<path id="XMLID_136_" d="M256,316.42c44.604,0,80.891-36.287,80.891-80.891S300.604,154.639,256,154.639    c-44.603,0-80.891,36.287-80.891,80.891S211.397,316.42,256,316.42z M256,169.639c36.332,0,65.891,29.559,65.891,65.891    S292.332,301.42,256,301.42s-65.891-29.559-65.891-65.891S219.668,169.639,256,169.639z"/>
		<path id="XMLID_139_" d="M245.908,276.387c2.023,0,4.104-0.17,6.231-0.512c9.933-1.598,19.804-6.88,27.796-14.872    c17.427-17.428,20.565-41.592,7.146-55.014c-6.725-6.724-16.393-9.472-27.219-7.725c-9.932,1.599-19.804,6.88-27.795,14.871    c-7.992,7.991-13.273,17.862-14.872,27.795c-1.743,10.828,1.001,20.494,7.725,27.218    C230.324,273.553,237.628,276.387,245.908,276.387z M269.327,250.396c-5.694,5.695-12.829,9.584-19.572,10.669    c-1.807,0.291-4.435,0.499-7.153,0.009l37.413-37.413C281.468,231.555,277.547,242.177,269.327,250.396z M232.004,243.314    c1.085-6.743,4.974-13.877,10.668-19.571c0,0,0,0,0-0.001c5.695-5.694,12.829-9.583,19.572-10.668    c1.029-0.166,2.326-0.308,3.755-0.308c1.074,0,2.225,0.094,3.392,0.304l-37.396,37.397    C231.506,247.749,231.713,245.121,232.004,243.314z"/>
		<path id="XMLID_143_" d="M265.625,355.16c4.143,0,7.5-3.357,7.5-7.5s-3.357-7.5-7.5-7.5h-19.25c-4.142,0-7.5,3.357-7.5,7.5    s3.358,7.5,7.5,7.5H265.625z"/>
		<path id="XMLID_144_" d="M290.732,367.5h-69.464c-4.142,0-7.5,3.357-7.5,7.5s3.358,7.5,7.5,7.5h69.464c4.143,0,7.5-3.357,7.5-7.5    S294.875,367.5,290.732,367.5z"/>
		<path id="XMLID_145_" d="M265.625,418.692h-19.25c-4.142,0-7.5,3.357-7.5,7.5s3.358,7.5,7.5,7.5h19.25c4.143,0,7.5-3.357,7.5-7.5    S269.768,418.692,265.625,418.692z"/>
	</g>
</g>















</svg>
