<?xml version="1.0" encoding="iso-8859-1"?>
<!-- Generator: Adobe Illustrator 19.0.0, SVG Export Plug-In . SVG Version: 6.00 Build 0)  -->
<svg xmlns="http://www.w3.org/2000/svg" xmlns:xlink="http://www.w3.org/1999/xlink" version="1.1" id="Layer_1" x="0px" y="0px" viewBox="0 0 512.012 512.012" style="enable-background:new 0 0 512.012 512.012;" xml:space="preserve" width="512" height="512">
<g id="XMLID_100_">
	<g id="XMLID_101_">
		<path id="XMLID_102_" d="M376.792,454.865c-4.09-0.687-7.952,2.07-8.638,6.155c-2.881,17.167-12.249,30.448-23.562,34.607v-91.553    c9.249,3.366,17.258,12.815,21.468,25.953c1.265,3.945,5.49,6.113,9.431,4.854c3.945-1.265,6.117-5.487,4.853-9.432    c-7.346-22.92-24.324-37.729-43.252-37.729c-6.471,0-12.65,1.697-18.282,4.792V290.126c0-42.013-27.437-77.732-65.331-90.197    l3.388-58.231c0.241-4.135-2.917-7.683-7.052-7.923c-4.146-0.237-7.682,2.917-7.923,7.052l-3.231,55.525    c-4.817-0.756-9.752-1.152-14.778-1.152c-5.026,0-9.96,0.396-14.777,1.152l-9.08-156.065c-0.386-6.637,1.914-12.954,6.476-17.789    C211.065,17.663,217.238,15,223.885,15s12.821,2.663,17.382,7.498c4.562,4.835,6.862,11.152,6.476,17.788l-3.841,66.017    c-0.241,4.135,2.917,7.683,7.052,7.923c4.15,0.255,7.682-2.916,7.923-7.052l3.841-66.017c0.628-10.802-3.115-21.084-10.54-28.953    C244.753,4.334,234.705,0,223.885,0s-20.867,4.334-28.292,12.203c-7.425,7.87-11.168,18.152-10.54,28.954l9.238,158.771    c-37.895,12.465-65.331,48.185-65.331,90.197v70.612c0,4.143,3.358,7.5,7.5,7.5s7.5-3.357,7.5-7.5v-70.612    c0-44.071,35.854-79.927,79.926-79.927s79.926,35.855,79.926,79.927v113.501c0,0.635,0.087,1.247,0.236,1.836    c-4.281,5.577-7.759,12.278-10.177,19.834c-3.438-3.002-7.081-5.646-10.86-7.903V290.126c0-32.602-26.523-59.125-59.125-59.125    c-32.602,0-59.125,26.523-59.125,59.125v190.767h-19.536c-0.697,0-1.265-0.567-1.265-1.266v-84.365c0-4.143-3.358-7.5-7.5-7.5    s-7.5,3.357-7.5,7.5v84.365c0,8.969,7.296,16.266,16.265,16.266h92.322c0.753,0,1.479-0.114,2.165-0.32    c9.795,8.384,21.196,13.925,32.64,15.767c2.798,0.45,5.534,0.673,8.192,0.673c10.757,0,20.213-3.648,27.175-10.609    c0.485-0.485,0.948-0.987,1.401-1.496c8.006,7.847,17.688,12.093,27.973,12.093c22.207,0,41.063-19.942,45.854-48.497    C383.633,459.418,380.877,455.551,376.792,454.865z M302.846,468.418c0.97,6.028,0.433,11.497-1.489,16.015l-59.086-59.086    c3.038-1.292,6.492-1.977,10.272-1.977c1.841,0,3.756,0.157,5.729,0.475c10.14,1.632,20.398,7.204,28.884,15.689    c0,0.001,0,0.001,0,0.001C295.642,448.021,301.214,458.278,302.846,468.418z M179.76,290.126    c0-24.331,19.794-44.125,44.125-44.125c24.331,0,44.125,19.794,44.125,44.125v120.601c-2.44-0.728-4.896-1.296-7.355-1.691    c-14.126-2.274-26.686,1.256-35.367,9.937c-8.681,8.682-12.21,21.241-9.937,35.367c1.471,9.144,5.303,18.261,11.06,26.554H179.76    V290.126z M245.851,480.839c-8.486-8.485-14.058-18.743-15.689-28.883c-0.97-6.027-0.432-11.497,1.489-16.015l59.083,59.083    C278.439,500.177,259.737,494.726,245.851,480.839z M316.718,486.006c1.745-6.055,2.09-12.81,0.938-19.971    c-1.519-9.438-5.561-18.845-11.631-27.348c2.885-17.176,12.242-30.449,23.569-34.599v91.573    C324.912,493.963,320.518,490.677,316.718,486.006z"/>
		<path id="XMLID_108_" d="M216.382,37.5v6c0,4.143,3.358,7.5,7.5,7.5s7.5-3.357,7.5-7.5v-6c0-4.143-3.358-7.5-7.5-7.5    S216.382,33.357,216.382,37.5z"/>
	</g>
</g>















</svg>
