<?xml version="1.0" encoding="iso-8859-1"?>
<!-- Generator: Adobe Illustrator 19.0.0, SVG Export Plug-In . SVG Version: 6.00 Build 0)  -->
<svg xmlns="http://www.w3.org/2000/svg" xmlns:xlink="http://www.w3.org/1999/xlink" version="1.1" id="Layer_1" x="0px" y="0px" viewBox="0 0 512.011 512.011" style="enable-background:new 0 0 512.011 512.011;" xml:space="preserve" width="512" height="512">
<g id="XMLID_86_">
	<g id="XMLID_87_">
		<g id="XMLID_88_">
			<path id="XMLID_89_" d="M387.071,347.169c0.344,0.047,0.686,0.069,1.023,0.069c3.692,0,6.909-2.727,7.422-6.487l6.893-50.528     c13.204-0.024,23.939-10.773,23.939-23.981c0-13.225-10.759-23.983-23.983-23.983h-14.933V92.819h0.763     c13.224,0,23.983-10.759,23.983-23.983c0-13.224-10.759-23.982-23.983-23.982h-10.226l-17.256-31.227     C356.068,5.222,347.217,0,337.613,0h-34.34c-4.142,0-7.5,3.357-7.5,7.5s3.358,7.5,7.5,7.5h34.34c4.146,0,7.967,2.254,9.972,5.883     l13.246,23.971H194.828l13.246-23.971C210.079,17.254,213.9,15,218.046,15h50.704c4.142,0,7.5-3.357,7.5-7.5s-3.358-7.5-7.5-7.5     h-50.704c-9.604,0-18.456,5.222-23.101,13.628L177.69,44.854h-10.226c-13.225,0-23.983,10.759-23.983,23.982     c0,13.225,10.759,23.983,23.983,23.983h0.763v44.918c0,4.143,3.358,7.5,7.5,7.5s7.5-3.357,7.5-7.5V92.819H294.89v149.438H183.227     v-69.997c0-4.143-3.358-7.5-7.5-7.5s-7.5,3.357-7.5,7.5v69.997h-14.933c-13.224,0-23.983,10.759-23.983,23.983     c0,13.209,10.735,23.957,23.938,23.981l16.611,121.766c-2.843,4.466-5.209,9.514-6.997,15.037     c-9.637-8.344-20.902-13.852-32.208-15.671c-13.817-2.227-26.107,1.23-34.605,9.73c-8.499,8.498-11.954,20.788-9.73,34.605     c2.079,12.923,8.978,25.792,19.424,36.239c10.446,10.445,23.315,17.344,36.238,19.423c2.736,0.44,5.41,0.658,8.009,0.658     c10.525,0,19.782-3.572,26.597-10.389c0.426-0.427,0.831-0.869,1.232-1.314c7.811,7.586,17.242,11.691,27.229,11.691     c10.603,0,20.556-4.609,28.62-13.095h138.905c13.224,0,23.983-10.759,23.983-23.982c0-10.518-6.809-19.47-16.248-22.696     l10.498-76.951c0.56-4.104-2.313-7.885-6.417-8.445c-4.106-0.561-7.885,2.313-8.445,6.418l-10.599,77.691h-114.35     c-0.068-15.642-4.56-30.421-12.678-41.651c-8.71-12.052-20.525-18.689-33.268-18.689c-7.956,0-15.444,2.593-21.982,7.228     l-14.679-107.602H387.27l-6.617,48.5C380.094,342.827,382.967,346.608,387.071,347.169z M372.432,242.258h-26.645V92.819h26.645     V242.258z M158.481,68.836c0-4.953,4.03-8.982,8.983-8.982h220.731c4.953,0,8.983,4.029,8.983,8.982s-4.03,8.983-8.983,8.983     H167.464C162.511,77.819,158.481,73.789,158.481,68.836z M309.89,92.819h20.897v149.438H309.89V92.819z M144.311,266.241     c0-4.953,4.03-8.983,8.983-8.983h249.071c4.953,0,8.983,4.03,8.983,8.983s-4.03,8.982-8.983,8.982H153.294     C148.341,275.224,144.311,271.194,144.311,266.241z M156.288,441.385c13.362,13.362,18.675,31.311,13.879,43.209l-57.079-57.078     c2.891-1.165,6.126-1.754,9.58-1.754C133.427,425.762,146.175,431.271,156.288,441.385z M116.351,481.322     c-13.362-13.362-18.675-31.311-13.879-43.209l57.089,57.088C147.662,499.998,129.713,494.685,116.351,481.322z M372.574,483.904     H243.882c2.656-5.534,4.608-11.592,5.788-17.966h122.904c4.953,0,8.983,4.03,8.983,8.983S377.527,483.904,372.574,483.904z      M236.001,451.299c0,20.969-10.157,39.18-23.452,44.278V407.02C225.844,412.118,236.001,430.329,236.001,451.299z      M197.549,407.003v88.592c-4.394-1.658-8.531-4.758-12.119-9.141c1.683-5.898,2.009-12.473,0.888-19.438     c-1.479-9.193-5.408-18.355-11.307-26.641C177.806,423.858,186.698,411.105,197.549,407.003z"/>
		</g>
	</g>
</g>















</svg>
