<?xml version="1.0" encoding="iso-8859-1"?>
<!-- Generator: Adobe Illustrator 19.0.0, SVG Export Plug-In . SVG Version: 6.00 Build 0)  -->
<svg xmlns="http://www.w3.org/2000/svg" xmlns:xlink="http://www.w3.org/1999/xlink" version="1.1" id="Layer_1" x="0px" y="0px" viewBox="0 0 512.012 512.012" style="enable-background:new 0 0 512.012 512.012;" xml:space="preserve" width="512" height="512">
<g id="XMLID_72_">
	<g id="XMLID_73_">
		<g id="XMLID_74_">
			<path id="XMLID_75_" d="M410.79,0H372.28c-11.774,0-21.354,9.579-21.354,21.354c0,2.211,0.338,4.345,0.965,6.353H244.724v-1.203     C244.724,11.89,232.835,0,218.221,0c-14.613,0-26.502,11.89-26.502,26.503v28.104h-26.452c-4.142,0-7.5,3.357-7.5,7.5     s3.358,7.5,7.5,7.5h176.306V92.7H94.869V69.607h35.876c4.142,0,7.5-3.357,7.5-7.5s-3.358-7.5-7.5-7.5H93.369     c-7.444,0-13.5,6.056-13.5,13.5V94.2c0,6.346,4.407,11.669,10.317,13.105c1.944,25.179,10.839,48.839,25.317,67.105     c9.188,11.592,15.824,25.766,19.419,41.339h-25.174c-7.489,0-13.581,6.093-13.581,13.581v39.525     c0,7.488,6.092,13.581,13.581,13.581h0.336l-3.404,35.588c-0.395,4.123,2.628,7.785,6.752,8.18     c0.243,0.023,0.484,0.035,0.723,0.035c3.82,0,7.086-2.906,7.457-6.787l3.54-37.016H311.29l10.26,107.272     c-11.011,6.57-19.94,18.455-24.712,33.404c-10.288-9.076-22.378-15.074-34.515-17.026c-14.518-2.338-27.42,1.285-36.333,10.199     c-8.913,8.913-12.535,21.816-10.199,36.334c1.478,9.184,5.276,18.343,10.966,26.715h-67.169     c-13.613,0-26.671-5.777-35.828-15.851c-9.156-10.074-13.664-23.623-12.368-37.175l6.918-72.333     c0.395-4.123-2.628-7.785-6.752-8.18c-4.123-0.403-7.785,2.629-8.18,6.752l-6.918,72.333     c-1.698,17.749,4.207,35.496,16.199,48.691c11.993,13.194,29.097,20.762,46.928,20.762h80.435     c10.278,9.054,22.351,15.036,34.469,16.985c2.879,0.464,5.692,0.692,8.426,0.692c11.05,0,20.763-3.745,27.909-10.892     c0.56-0.56,1.098-1.135,1.616-1.726c8.264,8.179,18.283,12.606,28.919,12.606c21.79,0,40.446-18.547,46.426-46.15     c0.877-4.049-1.694-8.041-5.742-8.918c-4.055-0.881-8.042,1.695-8.918,5.742c-3.597,16.606-13.059,29.09-24.266,33.017v-95.348     c10.796,3.73,19.909,15.337,23.834,31.198c0.994,4.021,5.06,6.472,9.082,5.479c4.021-0.995,6.474-5.061,5.479-9.082     c-6.494-26.244-24.938-43.877-45.895-43.877c-1.77,0-3.518,0.143-5.246,0.393l-9.757-102.016h0.336     c7.488,0,13.581-6.093,13.581-13.581V229.33c0-7.488-6.093-13.581-13.581-13.581h-25.177     c3.595-15.574,10.238-29.751,19.423-41.34c14.462-18.246,23.362-41.931,25.308-67.102c5.915-1.434,10.325-6.758,10.325-13.107     V68.107c0-7.444-6.056-13.5-13.5-13.5h-98.349V42.706H410.79c11.773,0,21.353-9.579,21.353-21.353     C432.143,9.579,422.564,0,410.79,0z M289.929,437.181c14.551,14.55,20.178,34.212,14.573,47.008l-61.56-61.56     c3.278-1.435,6.991-2.156,10.969-2.156C265.459,420.474,279.11,426.36,289.929,437.181z M246.885,480.225     c-14.55-14.55-20.177-34.213-14.571-47.009l61.58,61.581C281.099,500.401,261.436,494.775,246.885,480.225z M320.022,485.442     c1.825-6.255,2.195-13.243,1.003-20.656c-1.569-9.745-5.751-19.459-12.033-28.238c3.01-18.117,12.863-32.029,24.87-36.195v95.358     C328.821,493.968,324.089,490.473,320.022,485.442z M192.266,215.749c-3.879-19.053-11.773-36.482-23.008-50.657     c-12.34-15.567-20.022-35.758-21.971-57.392h141.867c-1.948,21.633-9.631,41.824-21.97,57.392     c-11.235,14.175-19.129,31.604-23.008,50.657H192.266z M127.258,165.092c-12.34-15.567-20.022-35.758-21.971-57.392h26.936     c2.006,25.03,10.877,48.54,25.279,66.709c9.189,11.593,15.825,25.767,19.42,41.34h-26.657     C146.387,196.695,138.493,179.266,127.258,165.092z M325.276,267.437h-34.308v-10.304c0-4.143-3.357-7.5-7.5-7.5     s-7.5,3.357-7.5,7.5v10.304h-12.462v-10.304c0-4.143-3.357-7.5-7.5-7.5c-4.142,0-7.5,3.357-7.5,7.5v10.304h-12.462v-10.304     c0-4.143-3.358-7.5-7.5-7.5s-7.5,3.357-7.5,7.5v10.304H111.167v-36.688h214.108V267.437z M309.185,165.092     c-11.232,14.17-19.131,31.604-23.01,50.657H259.52c3.595-15.573,10.232-29.747,19.421-41.339     c14.401-18.17,23.272-41.68,25.278-66.71h26.941C329.209,129.331,321.51,149.541,309.185,165.092z M206.719,54.607V26.503     c0-6.343,5.16-11.503,11.502-11.503c6.343,0,11.503,5.16,11.503,11.503v28.104H206.719z M410.79,27.706H372.28     c-3.503,0-6.354-2.85-6.354-6.353S368.777,15,372.28,15h38.511c3.503,0,6.353,2.851,6.353,6.354S414.293,27.706,410.79,27.706z"/>
		</g>
	</g>
</g>















</svg>
