<?xml version="1.0" encoding="iso-8859-1"?>
<!-- Generator: Adobe Illustrator 19.0.0, SVG Export Plug-In . SVG Version: 6.00 Build 0)  -->
<svg xmlns="http://www.w3.org/2000/svg" xmlns:xlink="http://www.w3.org/1999/xlink" version="1.1" id="Layer_1" x="0px" y="0px" viewBox="0 0 511.999 511.999" style="enable-background:new 0 0 511.999 511.999;" xml:space="preserve" width="512" height="512">
<g id="XMLID_62_">
	<g id="XMLID_63_">
		<path id="XMLID_64_" d="M238.738,337.005h-37.135v-29.1h130.135c4.143,0,7.5-3.357,7.5-7.5s-3.357-7.5-7.5-7.5h-131.55    c-5.579,0-10.379,3.383-12.468,8.203h-24.554v-7.159c13.62-2.81,23.892-14.894,23.892-29.334v-38.276    c0-9.728-7.914-17.641-17.642-17.641h-2.902c-7.234-16.584-17.425-31.518-30.344-44.438c-23.512-23.512-61.771-23.512-85.284,0    c-12.918,12.919-23.113,27.854-30.346,44.438h-2.899C7.914,208.698,0,216.611,0,226.339v38.276    c0,14.44,10.272,26.525,23.892,29.334v19.959c0,20.662,16.611,37.505,37.178,37.906v6.058c0,4.143,3.357,7.5,7.5,7.5    s7.5-3.357,7.5-7.5v-6.039h9.96v6.039c0,4.143,3.357,7.5,7.5,7.5s7.5-3.357,7.5-7.5v-6.039h9.96v6.039c0,4.143,3.357,7.5,7.5,7.5    s7.5-3.357,7.5-7.5v-6.058c8.498-0.166,16.316-3.137,22.569-8.028c0.104,0.004,0.206,0.016,0.312,0.016h38.851    c2.089,4.82,6.889,8.202,12.468,8.202h38.55c4.143,0,7.5-3.357,7.5-7.5S242.881,337.005,238.738,337.005z M163.098,316.108h23.505    v12.694h-26.487C161.803,324.867,162.841,320.591,163.098,316.108z M15,264.615v-38.276c0-1.456,1.185-2.641,2.642-2.641h41.097    c4.143,0,7.5-3.357,7.5-7.5s-3.357-7.5-7.5-7.5H37.091c6.22-12.479,14.4-23.828,24.403-33.831    c17.664-17.664,46.406-17.663,64.07-0.001c10.004,10.005,18.181,21.353,24.401,33.832H93.262c-4.143,0-7.5,3.357-7.5,7.5    s3.357,7.5,7.5,7.5h76.155c1.457,0,2.642,1.185,2.642,2.641v38.276c0,8.244-6.707,14.951-14.951,14.951H29.951    C21.707,279.566,15,272.859,15,264.615z M118.489,327.724c-4.143,0-7.5,3.357-7.5,7.5v1.61h-9.96v-1.61c0-4.143-3.357-7.5-7.5-7.5    s-7.5,3.357-7.5,7.5v1.61h-9.96v-1.61c0-4.143-3.357-7.5-7.5-7.5s-7.5,3.357-7.5,7.5v1.591    c-12.296-0.396-22.178-10.515-22.178-22.906v-19.343h109.275v19.343c0,12.39-9.882,22.509-22.178,22.906v-1.591    C125.989,331.081,122.632,327.724,118.489,327.724z"/>
		<path id="XMLID_69_" d="M482.449,292.905H366.262c-4.143,0-7.5,3.357-7.5,7.5s3.357,7.5,7.5,7.5h57.694v29.1H273.262    c-4.143,0-7.5,3.357-7.5,7.5s3.357,7.5,7.5,7.5h209.188c16.294,0,29.55-13.256,29.55-29.549    C511.999,306.162,498.743,292.905,482.449,292.905z M482.449,337.005h-43.493v-29.1h43.493c8.022,0,14.55,6.527,14.55,14.551    C496.999,330.479,490.472,337.005,482.449,337.005z"/>
	</g>
</g>















</svg>
