<?xml version="1.0" encoding="iso-8859-1"?>
<!-- Generator: Adobe Illustrator 19.0.0, SVG Export Plug-In . SVG Version: 6.00 Build 0)  -->
<svg xmlns="http://www.w3.org/2000/svg" xmlns:xlink="http://www.w3.org/1999/xlink" version="1.1" id="Layer_1" x="0px" y="0px" viewBox="0 0 512 512" style="enable-background:new 0 0 512 512;" xml:space="preserve" width="512" height="512">
<g id="XMLID_756_">
	<g id="XMLID_757_">
		<path id="XMLID_758_" d="M480.238,311.761c-4.143,0-7.5,3.358-7.5,7.5v147.359c0,1.378-1.121,2.5-2.5,2.5H162.262    c-4.143,0-7.5,3.358-7.5,7.5s3.357,7.5,7.5,7.5h307.977c9.649,0,17.5-7.851,17.5-17.5V319.261    C487.738,315.119,484.381,311.761,480.238,311.761z"/>
		<path id="XMLID_759_" d="M494.5,193.157h-38.479v-53.432c4.098-0.052,7.404-3.385,7.404-7.495v-25.279c0-4.142-3.357-7.5-7.5-7.5    h-72.459c-4.143,0-7.5,3.358-7.5,7.5v25.279c0,4.11,3.307,7.444,7.405,7.495v53.432h-26.796v-53.432    c4.098-0.051,7.405-3.385,7.405-7.495v-25.279c0-4.142-3.357-7.5-7.5-7.5h-72.459c-4.143,0-7.5,3.358-7.5,7.5v25.279    c0,4.11,3.307,7.444,7.405,7.495v53.432h-55.893v-83.626c0-9.938-8.085-18.023-18.023-18.023H139.5v-18.11h15.825    c9.938,0,18.023-8.085,18.023-18.023v-9.471c0-9.938-8.085-18.023-18.023-18.023H85.344c-9.938,0-18.023,8.085-18.023,18.023    v9.471c0,9.938,8.085,18.023,18.023,18.023h18.678v18.11h-9.769c-9.938,0-18.023,8.085-18.023,18.023v12.74h-4.919    c-14.695,0-26.651,11.956-26.651,26.652v44.235H17.5c-9.649,0-17.5,7.851-17.5,17.5v27.381c0,9.649,7.851,17.5,17.5,17.5h6.762    v211.083c0,9.649,7.851,17.5,17.5,17.5h85.977c4.143,0,7.5-3.358,7.5-7.5s-3.357-7.5-7.5-7.5H41.762c-1.379,0-2.5-1.122-2.5-2.5    V255.538h433.477v29.201c0,4.142,3.357,7.5,7.5,7.5s7.5-3.358,7.5-7.5v-29.201h6.762c9.649,0,17.5-7.851,17.5-17.5v-27.381    C512,201.008,504.149,193.157,494.5,193.157z M398.372,139.73h42.649v11.298l-42.649,4.602V139.73z M390.967,114.451h57.459    v10.279h-57.459V114.451z M398.372,170.717l42.649-4.602v27.043h-42.649V170.717z M298.928,139.73h42.648v11.298l-42.648,4.602    V139.73z M291.522,114.451h57.459v10.279h-57.459V114.451z M298.928,170.717l42.648-4.602v27.042h-42.648V170.717z M82.32,55.374    v-9.471c0-1.667,1.356-3.023,3.023-3.023h69.981c1.667,0,3.023,1.356,3.023,3.023v9.471c0,1.667-1.356,3.023-3.023,3.023H85.344    C83.677,58.397,82.32,57.041,82.32,55.374z M124.5,73.397v46.134c0,1.51-1.229,2.739-2.739,2.739s-2.739-1.229-2.739-2.739V73.397    H124.5z M71.311,137.271h4.919v16.891h-4.919c-4.176,0-8.129,0.968-11.651,2.687v-7.927    C59.659,142.498,64.886,137.271,71.311,137.271z M59.659,180.813c0-6.425,5.227-11.652,11.651-11.652h4.919v23.996h-16.57V180.813    z M497,238.038c0,1.378-1.121,2.5-2.5,2.5h-477c-1.379,0-2.5-1.122-2.5-2.5v-27.381c0-1.378,1.121-2.5,2.5-2.5h91.238    c4.143,0,7.5-3.358,7.5-7.5s-3.357-7.5-7.5-7.5H91.229v-83.626c0-1.667,1.356-3.023,3.023-3.023h9.769v13.024    c0,9.781,7.958,17.739,17.739,17.739s17.739-7.958,17.739-17.739v-13.024h70.512c1.667,0,3.023,1.356,3.023,3.023v26.741H201.76    c-4.143,0-7.5,3.358-7.5,7.5s3.357,7.5,7.5,7.5h11.275v13.608H201.76c-4.143,0-7.5,3.358-7.5,7.5s3.357,7.5,7.5,7.5h11.275v13.277    h-69.773c-4.143,0-7.5,3.358-7.5,7.5s3.357,7.5,7.5,7.5H494.5c1.379,0,2.5,1.122,2.5,2.5V238.038z"/>
		<path id="XMLID_772_" d="M355.606,318.511h-44.924c-1.039-9.137-4.732-17.164-10.896-23.328    c-9.178-9.177-22.472-12.905-37.434-10.498c-14.067,2.264-28.084,9.78-39.47,21.166c-0.001,0-0.001,0-0.001,0    c-3.939,3.939-7.402,8.198-10.357,12.66h-59.51c-7.583,0-13.753,6.169-13.753,13.753v5.846h-14.127    c-6.181,0-11.636,4.164-13.266,10.126l-11.257,41.176c-1.141,4.17-0.29,8.534,2.334,11.971c2.623,3.438,6.607,5.409,10.932,5.409    h48.028c7.583,0,13.753-6.169,13.753-13.753v-12.826h34.264c0.726,0.874,1.479,1.729,2.291,2.541    c7.357,7.357,17.358,11.212,28.745,11.212c2.817,0,5.721-0.236,8.688-0.714c10.432-1.679,20.833-6.252,30.157-13.143    c0.39,0.063,0.788,0.104,1.196,0.104h51.963v12.826c0,7.583,6.17,13.753,13.753,13.753h48.027c4.323,0,8.308-1.971,10.932-5.407    c2.624-3.437,3.475-7.8,2.335-11.973l-11.257-41.175c-1.63-5.962-7.085-10.126-13.266-10.126h-14.128v-5.846    C369.359,324.681,363.189,318.511,355.606,318.511z M295.266,365.213c7.731-9.668,12.899-20.652,14.852-31.702h44.241v31.702    H295.266z M233.489,316.458L233.489,316.458c15.303-15.302,36.042-21.113,49.407-14.992l-64.424,64.424    c-2.36-5.07-3.055-11.3-1.946-18.186C218.292,336.727,224.316,325.63,233.489,316.458z M160.659,391.792h-45.147l10.575-38.682    h13.175v13.35c0,7.583,6.17,13.752,13.753,13.752h7.645V391.792z M154.262,365.213v-31.702h50.6    c-1.439,3.895-2.507,7.849-3.145,11.81c-1.142,7.095-0.887,13.808,0.657,19.892H154.262z M229.104,376.471l64.423-64.423    c2.36,5.069,3.054,11.3,1.946,18.185c-1.766,10.977-7.79,22.073-16.962,31.246C263.207,376.781,242.469,382.592,229.104,376.471z     M382.535,353.11l10.575,38.682h-45.147v-11.579h7.644c7.583,0,13.753-6.169,13.753-13.752v-13.35H382.535z"/>
		<path id="XMLID_780_" d="M232.056,413.835c-4.143,0-7.5,3.358-7.5,7.5s3.357,7.5,7.5,7.5h47.889c4.143,0,7.5-3.358,7.5-7.5    s-3.357-7.5-7.5-7.5H232.056z"/>
	</g>
</g>















</svg>
