<?xml version="1.0" encoding="iso-8859-1"?>
<!-- Generator: Adobe Illustrator 19.0.0, SVG Export Plug-In . SVG Version: 6.00 Build 0)  -->
<svg xmlns="http://www.w3.org/2000/svg" xmlns:xlink="http://www.w3.org/1999/xlink" version="1.1" id="Layer_1" x="0px" y="0px" viewBox="0 0 512 512" style="enable-background:new 0 0 512 512;" xml:space="preserve" width="512" height="512">
<g id="XMLID_733_">
	<g id="XMLID_734_">
		<path id="XMLID_735_" d="M396.903,249.199c-9.332-13.335-22.022-23.671-36.851-30.067c-1.352-8.05-8.187-14.243-16.526-14.609    c4.341-8.879,7.368-18.512,8.831-28.645c0.568,0.031,1.137,0.055,1.707,0.055c17.946,0,32.546-15.208,32.546-33.901    c0-11.166-5.34-21.459-13.844-27.714c1.301-2.633,2.052-5.584,2.052-8.714c0-22.598-7.042-44.156-20.366-62.344    c-2.448-3.342-7.141-4.065-10.482-1.618c-3.341,2.448-4.066,7.141-1.618,10.482c11.427,15.599,17.467,34.091,17.467,53.479    c0,2.626-2.137,4.763-4.763,4.763h-80.221c-39.364,0-71.389-32.025-71.389-71.389V19.763c0-2.626,2.137-4.763,4.763-4.763h61.005    c17.9,0,35.211,5.215,50.063,15.082c3.452,2.292,8.106,1.353,10.397-2.097c2.292-3.45,1.354-8.105-2.097-10.397    C310.256,6.082,290.075,0,269.212,0h-61.005c-10.897,0-19.763,8.866-19.763,19.763v6.324    c-31.475,18.927-50.992,53.041-51.249,89.819c-7.424,6.409-11.805,16.034-11.805,26.126c0,18.693,14.6,33.901,32.546,33.901    c0.57,0,1.138-0.031,1.706-0.062c1.463,10.136,4.49,19.772,8.833,28.655c-8.339,0.365-15.174,6.557-16.528,14.605    c-14.83,6.396-27.519,16.732-36.851,30.067c-10.253,14.652-15.672,31.88-15.672,49.822V504.5c0,4.142,3.358,7.5,7.5,7.5    s7.5-3.358,7.5-7.5V299.021c0-26.285,14.64-50.521,37.26-63.054v146.959h-13.727c-4.142,0-7.5,3.358-7.5,7.5s3.358,7.5,7.5,7.5    h13.727v13.813c0,4.142,3.358,7.5,7.5,7.5s7.5-3.358,7.5-7.5v-79.692h178.63V504.5c0,4.142,3.358,7.5,7.5,7.5s7.5-3.358,7.5-7.5    V397.926h13.727c4.142,0,7.5-3.358,7.5-7.5s-3.358-7.5-7.5-7.5h-13.727l0-84.665c0-4.142-3.358-7.5-7.5-7.5s-7.5,3.358-7.5,7.5    v18.786h-25.716v-81.48c5.533-4.784,10.52-10.182,14.862-16.082h8.294c1.412,0,2.561,1.148,2.561,2.561v41.694    c0,4.142,3.358,7.5,7.5,7.5s7.5-3.358,7.5-7.5v-27.771c22.62,12.532,37.261,36.768,37.261,63.054V504.5c0,4.142,3.358,7.5,7.5,7.5    s7.5-3.358,7.5-7.5V299.021C412.575,281.079,407.156,263.851,396.903,249.199z M360.687,124.54    c6.563,2.888,10.924,9.8,10.924,17.493c0,10.422-7.871,18.901-17.546,18.901c-0.234,0-0.467-0.013-0.7-0.022v-35.543h1.69    C357.012,125.368,358.9,125.072,360.687,124.54z M188.596,44.034c1.476,25.45,14.015,47.98,32.872,62.835    c-12.37,9.413-27.44,14.536-43.165,14.536h-21.358c-2.626,0-4.763-2.137-4.763-4.763    C152.183,87.914,165.897,61.018,188.596,44.034z M140.39,142.033c0-3.931,1.151-7.715,3.204-10.863    c3.521,3.239,8.202,5.235,13.352,5.235h1.69v24.503c-0.233,0.01-0.466,0.025-0.7,0.025    C148.261,160.934,140.39,152.455,140.39,142.033z M169.246,219.487h8.296c4.342,5.9,9.328,11.297,14.86,16.08v81.48h-25.717    v-94.999C166.685,220.636,167.834,219.487,169.246,219.487z M304.599,317.047h-97.196v-70.8    c14.311,8.277,30.91,13.02,48.598,13.02c17.688,0,34.288-4.743,48.599-13.021V317.047z M256,244.267    c-45.416,0-82.364-36.948-82.364-82.364v-25.497h4.668c20.824,0,40.703-7.419,56.386-20.951    c12.002,6.326,25.661,9.914,40.144,9.914h63.531v36.534C338.364,207.318,301.416,244.267,256,244.267z"/>
		<path id="XMLID_743_" d="M159.185,438.761c-4.142,0-7.5,3.358-7.5,7.5V504.5c0,4.142,3.358,7.5,7.5,7.5s7.5-3.358,7.5-7.5v-58.239    C166.685,442.119,163.327,438.761,159.185,438.761z"/>
		<path id="XMLID_744_" d="M301.047,347.934c-17.265,0-31.311,14.046-31.311,31.311s14.046,31.31,31.311,31.31    s31.311-14.045,31.311-31.31S318.312,347.934,301.047,347.934z M301.047,395.554c-8.994,0-16.311-7.317-16.311-16.31    c0-8.994,7.317-16.311,16.311-16.311s16.311,7.317,16.311,16.311C317.358,388.237,310.041,395.554,301.047,395.554z"/>
		<path id="XMLID_747_" d="M192.489,382.062h11.531c4.142,0,7.5-3.358,7.5-7.5s-3.358-7.5-7.5-7.5h-11.531    c-4.142,0-7.5,3.358-7.5,7.5S188.347,382.062,192.489,382.062z"/>
		<path id="XMLID_748_" d="M231.027,408.877c4.142,0,7.5-3.358,7.5-7.5s-3.358-7.5-7.5-7.5h-38.539c-4.142,0-7.5,3.358-7.5,7.5    s3.358,7.5,7.5,7.5H231.027z"/>
		<path id="XMLID_749_" d="M304.338,443.846h-96.676c-9.683,0-17.561,7.878-17.561,17.561V504.5c0,4.142,3.358,7.5,7.5,7.5    s7.5-3.358,7.5-7.5v-43.093c0-1.412,1.149-2.561,2.561-2.561h96.676c1.412,0,2.561,1.149,2.561,2.561V504.5    c0,4.142,3.358,7.5,7.5,7.5s7.5-3.358,7.5-7.5v-43.093C321.899,451.724,314.021,443.846,304.338,443.846z"/>
		<path id="XMLID_750_" d="M213.497,145.378l-0.104,0c-4.146,0.006-7.516,3.323-7.535,7.465c-0.019,4.142,3.323,7.516,7.465,7.535    l0.104,0c0.012,0,0.024,0,0.036,0c4.125,0,7.479-3.335,7.499-7.465C220.981,148.771,217.639,145.397,213.497,145.378z"/>
		<path id="XMLID_751_" d="M298.678,145.378l-0.104,0c-4.101,0.006-7.516,3.323-7.535,7.465c-0.019,4.142,3.323,7.516,7.465,7.535    l0.104,0c0.012,0,0.024,0,0.036,0c4.125,0,7.479-3.335,7.499-7.465C306.162,148.771,302.82,145.397,298.678,145.378z"/>
		<path id="XMLID_752_" d="M246.393,193.578h19.214c3.731,0,7.333-1.562,9.883-4.286c2.549-2.724,3.871-6.421,3.624-10.145    l-1.731-26.145c-0.742-11.223-10.135-20.015-21.383-20.015s-20.641,8.792-21.383,20.014l-1.731,26.146    c-0.247,3.723,1.075,7.42,3.624,10.145C239.06,192.016,242.662,193.578,246.393,193.578z M249.584,153.993    c0.223-3.367,3.041-6.005,6.416-6.005s6.193,2.638,6.416,6.005l1.627,24.585h-16.087L249.584,153.993z"/>
		<path id="XMLID_755_" d="M287.01,204.53c-3.097-2.752-7.837-2.471-10.588,0.625c-5.188,5.838-12.631,9.187-20.422,9.187    s-15.235-3.349-20.422-9.187c-2.75-3.096-7.491-3.377-10.588-0.625c-3.097,2.751-3.376,7.492-0.625,10.588    c8.031,9.04,19.562,14.224,31.635,14.224s23.604-5.184,31.635-14.224C290.387,212.022,290.107,207.281,287.01,204.53z"/>
	</g>
</g>















</svg>
