<?xml version="1.0" encoding="iso-8859-1"?>
<!-- Generator: Adobe Illustrator 19.0.0, SVG Export Plug-In . SVG Version: 6.00 Build 0)  -->
<svg xmlns="http://www.w3.org/2000/svg" xmlns:xlink="http://www.w3.org/1999/xlink" version="1.1" id="Layer_1" x="0px" y="0px" viewBox="0 0 512 512" style="enable-background:new 0 0 512 512;" xml:space="preserve" width="512" height="512">
<g id="XMLID_707_">
	<g id="XMLID_708_">
		<path id="XMLID_709_" d="M108.85,455.761c-4.142,0-7.5,3.358-7.5,7.5V504.5c0,4.142,3.358,7.5,7.5,7.5s7.5-3.358,7.5-7.5v-41.239    C116.35,459.119,112.992,455.761,108.85,455.761z"/>
		<path id="XMLID_710_" d="M395.163,264.284c-7.704-11.009-17.73-19.94-29.364-26.271c7.687-11.383,11.85-24.845,11.85-38.74    v-14.606c0-0.041-0.005-0.081-0.006-0.122c4.606-5.805,7.377-13.245,7.377-21.347c0-8.114-2.78-15.564-7.399-21.373    c0.014-0.184,0.028-0.368,0.028-0.556V121.65C377.65,54.572,323.078,0,256,0S134.35,54.572,134.35,121.65v19.619    c0,0.188,0.015,0.372,0.028,0.556c-4.619,5.809-7.399,13.259-7.399,21.373c0,8.102,2.771,15.542,7.377,21.347    c-0.001,0.041-0.006,0.081-0.006,0.122v14.606c0,13.895,4.163,27.357,11.85,38.74c-11.633,6.331-21.659,15.262-29.364,26.271    c-10.132,14.479-15.487,31.504-15.487,49.235v115.22c0,4.142,3.358,7.5,7.5,7.5s7.5-3.358,7.5-7.5v-115.22    c0-25.855,14.37-49.699,36.585-62.076v144.8h-13.453c-4.142,0-7.5,3.358-7.5,7.5s3.358,7.5,7.5,7.5h13.453V504.5    c0,4.142,3.358,7.5,7.5,7.5s7.5-3.358,7.5-7.5V346.215h78.804c4.142,0,7.5-3.358,7.5-7.5s-3.358-7.5-7.5-7.5h-38.612v-69.619    c14.107,8.127,30.457,12.779,47.874,12.779c17.417,0,33.767-4.653,47.875-12.78v69.62h-22.613c-4.142,0-7.5,3.358-7.5,7.5    s3.358,7.5,7.5,7.5h62.804V504.5c0,4.142,3.358,7.5,7.5,7.5s7.5-3.358,7.5-7.5v-93.257h13.453c4.142,0,7.5-3.358,7.5-7.5    s-3.358-7.5-7.5-7.5h-13.453c0,0,0-57.535,0-57.538v-87.263c22.216,12.377,36.586,36.221,36.586,62.076v27.22    c0,4.142,3.358,7.5,7.5,7.5s7.5-3.358,7.5-7.5v-27.22C410.65,295.788,405.295,278.763,395.163,264.284z M370.021,163.198    c0,10.234-7.726,18.56-17.223,18.56c-0.223,0-0.445-0.012-0.667-0.021c0.043-1.184,0.073-2.372,0.073-3.566v-33.512    c0.198-0.007,0.395-0.02,0.594-0.02C362.295,144.638,370.021,152.964,370.021,163.198z M350.415,196.657    c0.792,0.061,1.587,0.101,2.383,0.101c3.436,0,6.745-0.569,9.852-1.61v4.125c0,9.702-2.597,19.131-7.422,27.381    c-3.018-3.762-7.558-6.234-12.679-6.502C346.132,212.793,348.801,204.912,350.415,196.657z M256,15    c58.807,0,106.65,47.843,106.65,106.65v9.598c-3.107-1.042-6.417-1.61-9.852-1.61c-0.175,0-0.349,0.015-0.523,0.018    c-0.12-0.006-0.237-0.018-0.358-0.018h-50.17c-8.332,0-15.851-4.482-19.86-11.608c4.636-7.924,7.306-17.131,7.306-26.956    c0-4.142-3.358-7.5-7.5-7.5s-7.5,3.358-7.5,7.5c0,21.264-17.3,38.564-38.564,38.564h-76.426c-3.436,0-6.745,0.569-9.852,1.61    v-9.598C149.35,62.843,197.193,15,256,15z M156.773,226.655c-4.826-8.25-7.423-17.68-7.423-27.382v-4.125    c3.107,1.042,6.417,1.61,9.852,1.61c0.797,0,1.592-0.034,2.384-0.095c1.614,8.254,4.283,16.134,7.866,23.492    C164.332,220.422,159.791,222.894,156.773,226.655z M159.202,144.638c0.198,0,0.396,0.013,0.594,0.02v33.512    c0,1.194,0.029,2.38,0.073,3.563c-0.222,0.009-0.444,0.024-0.667,0.024c-9.497,0-17.223-8.326-17.223-18.56    S149.705,144.638,159.202,144.638z M193.126,331.215h-25.191V237.54c0-1.34,1.09-2.431,2.431-2.431h8.14    c4.274,5.802,9.18,11.112,14.621,15.821V331.215z M174.796,178.17v-33.533h60.833c14.073,0,26.887-5.463,36.456-14.37    c7.048,8.943,17.862,14.37,29.661,14.37h35.458v33.533c0,44.776-36.428,81.204-81.204,81.204S174.796,222.946,174.796,178.17z     M318.875,250.928c5.442-4.709,10.347-10.02,14.622-15.823h8.137c1.34,0,2.431,1.091,2.431,2.431v93.678h-25.19V250.928z"/>
		<path id="XMLID_720_" d="M403.15,367.761c-4.142,0-7.5,3.358-7.5,7.5V504.5c0,4.142,3.358,7.5,7.5,7.5s7.5-3.358,7.5-7.5V375.261    C410.65,371.119,407.292,367.761,403.15,367.761z"/>
		<path id="XMLID_721_" d="M300.466,361.703c-17.095,0-31.003,13.908-31.003,31.003s13.908,31.003,31.003,31.003    s31.003-13.908,31.003-31.003S317.561,361.703,300.466,361.703z M300.466,408.709c-8.824,0-16.003-7.179-16.003-16.003    s7.179-16.003,16.003-16.003s16.003,7.179,16.003,16.003S309.29,408.709,300.466,408.709z"/>
		<path id="XMLID_724_" d="M193.309,395.584h11.382c4.142,0,7.5-3.358,7.5-7.5s-3.358-7.5-7.5-7.5h-11.382    c-4.142,0-7.5,3.358-7.5,7.5S189.167,395.584,193.309,395.584z"/>
		<path id="XMLID_725_" d="M231.35,422.054c4.142,0,7.5-3.358,7.5-7.5s-3.358-7.5-7.5-7.5h-38.041c-4.142,0-7.5,3.358-7.5,7.5    s3.358,7.5,7.5,7.5H231.35z"/>
		<path id="XMLID_726_" d="M303.714,456.377h-95.428c-9.611,0-17.431,7.82-17.431,17.431V504.5c0,4.142,3.358,7.5,7.5,7.5    s7.5-3.358,7.5-7.5v-30.692c0-1.34,1.091-2.431,2.431-2.431h95.428c1.34,0,2.431,1.091,2.431,2.431V504.5    c0,4.142,3.358,7.5,7.5,7.5s7.5-3.358,7.5-7.5v-30.692C321.145,464.197,313.325,456.377,303.714,456.377z"/>
		<path id="XMLID_727_" d="M214.046,161.762l-0.103,0c-0.012,0-0.024,0-0.037,0c-4.125,0-7.479,3.334-7.499,7.464    c-0.02,4.142,3.322,7.516,7.464,7.536l0.103,0c0.012,0,0.024,0,0.037,0c4.125,0,7.479-3.334,7.499-7.464    C221.53,165.156,218.188,161.782,214.046,161.762z"/>
		<path id="XMLID_728_" d="M298.127,161.762l-0.103,0c-0.012,0-0.024,0-0.037,0c-4.125,0-7.479,3.334-7.499,7.464    c-0.02,4.142,3.322,7.516,7.464,7.536l0.103,0c0.012,0,0.024,0,0.037,0c4.125,0,7.479-3.334,7.499-7.464    C305.611,165.156,302.27,161.782,298.127,161.762z"/>
		<path id="XMLID_729_" d="M246.517,209.534h18.966c3.709,0,7.291-1.553,9.826-4.262c2.535-2.708,3.848-6.384,3.603-10.086    l-1.708-25.808c-0.737-11.129-10.051-19.846-21.204-19.846s-20.467,8.717-21.204,19.846l-1.708,25.808    c-0.245,3.701,1.068,7.377,3.603,10.085C239.226,207.98,242.808,209.534,246.517,209.534z M249.763,170.37    c0.217-3.273,2.957-5.837,6.237-5.837s6.02,2.564,6.237,5.837l1.6,24.164h-15.673L249.763,170.37z"/>
		<path id="XMLID_732_" d="M286.674,220.176c-3.097-2.752-7.837-2.471-10.588,0.625c-5.102,5.742-12.423,9.035-20.086,9.035    s-14.984-3.293-20.085-9.035c-2.75-3.096-7.49-3.377-10.588-0.625c-3.096,2.751-3.376,7.492-0.625,10.588    c7.945,8.943,19.354,14.072,31.299,14.072c11.945,0,23.354-5.129,31.299-14.072C290.051,227.667,289.771,222.927,286.674,220.176z    "/>
	</g>
</g>















</svg>
