<?xml version="1.0" encoding="iso-8859-1"?>
<!-- Generator: Adobe Illustrator 19.0.0, SVG Export Plug-In . SVG Version: 6.00 Build 0)  -->
<svg xmlns="http://www.w3.org/2000/svg" xmlns:xlink="http://www.w3.org/1999/xlink" version="1.1" id="Layer_1" x="0px" y="0px" viewBox="0 0 512 512" style="enable-background:new 0 0 512 512;" xml:space="preserve" width="512" height="512">
<g id="XMLID_678_">
	<g id="XMLID_679_">
		<path id="XMLID_680_" d="M110.84,340.114v50.625c0,4.142,3.358,7.5,7.5,7.5s7.5-3.358,7.5-7.5V161.827c0-1.378,1.122-2.5,2.5-2.5    h255.334c1.379,0,2.5,1.122,2.5,2.5v68.912c0,4.142,3.357,7.5,7.5,7.5s7.5-3.358,7.5-7.5v-68.912    c0-8.283-5.79-15.224-13.531-17.029V80.792c6.52-2.547,11.158-8.882,11.158-16.292v-10c0-7.411-4.638-13.745-11.158-16.292V20.4    c0-11.249-9.151-20.4-20.4-20.4h-39.306c-4.143,0-7.5,3.358-7.5,7.5v30.669c-6.574,2.521-11.262,8.881-11.262,16.331v10    c0,7.45,4.688,13.81,11.262,16.331v63.497H191.578V80.83c6.573-2.521,11.261-8.881,11.261-16.33v-10    c0-7.449-4.687-13.809-11.261-16.33V7.504c0-4.142-3.358-7.5-7.5-7.5h-39.307c-11.249,0-20.4,9.151-20.4,20.4v17.804    c-6.52,2.547-11.158,8.882-11.158,16.292v10c0,7.411,4.638,13.745,11.158,16.292v64.006c-7.741,1.805-13.531,8.746-13.531,17.029    v119.8H90.529c-0.15-7.315-6.136-13.222-13.486-13.222H58.376c-7.444,0-13.5,6.056-13.5,13.5v58.409c0,7.444,6.056,13.5,13.5,13.5    h18.667c7.444,0,13.5-6.056,13.5-13.5v-0.201H110.84z M75.543,338.814H59.876v-55.409h15.667V338.814z M326.674,67    c-1.379,0-2.5-1.122-2.5-2.5v-10c0-1.378,1.121-2.5,2.5-2.5H381.3c1.379,0,2.5,1.122,2.5,2.5v10c0,1.378-1.121,2.5-2.5,2.5    H326.674z M367.242,15c2.978,0,5.4,2.422,5.4,5.4V37h-37.206V15H367.242z M335.436,82h37.206v62.327h-37.206V82z M139.371,144.327    V82h37.207v62.327H139.371z M185.339,52c1.378,0,2.5,1.122,2.5,2.5v10c0,1.378-1.122,2.5-2.5,2.5h-54.625    c-1.378,0-2.5-1.122-2.5-2.5v-10c0-1.378,1.122-2.5,2.5-2.5H185.339z M144.771,15.004h31.807V37h-37.207V20.404    C139.371,17.426,141.793,15.004,144.771,15.004z M110.84,325.114H90.543v-28.486h20.297V325.114z"/>
		<path id="XMLID_690_" d="M462.101,298.748l-6.938-7.04c-6.314-6.406-15.095-10.081-24.091-10.081h-29.898v-16.366    c0-4.142-3.357-7.5-7.5-7.5s-7.5,3.358-7.5,7.5v212.982c0,10.343-8.414,18.757-18.757,18.757h-222.82    c-10.342,0-18.756-8.414-18.756-18.757v-52.982c0-4.142-3.358-7.5-7.5-7.5s-7.5,3.358-7.5,7.5v52.982    c0,18.614,15.143,33.757,33.756,33.757h222.82c18.613,0,33.757-15.143,33.757-33.757V340.114h30.068    c8.987,0,17.449-3.486,23.827-9.817l6.896-6.844C468.79,316.679,468.851,305.597,462.101,298.748z M451.398,312.807l-6.896,6.844    c-3.55,3.523-8.259,5.463-13.261,5.463h-30.068v-28.486h29.898c5.007,0,9.894,2.045,13.407,5.61l6.938,7.04    C452.382,310.256,452.373,311.839,451.398,312.807z"/>
		<path id="XMLID_693_" d="M351.796,221.96c0-20.969-17.06-38.029-38.029-38.029s-38.029,17.06-38.029,38.029    c0,20.97,17.06,38.03,38.029,38.03S351.796,242.93,351.796,221.96z M313.766,244.99c-12.698,0-23.029-10.331-23.029-23.03    c0-12.698,10.331-23.029,23.029-23.029s23.029,10.331,23.029,23.029C336.796,234.659,326.465,244.99,313.766,244.99z"/>
		<path id="XMLID_696_" d="M286.268,448.17h26.458c15.163,0,27.5-12.336,27.5-27.5v-89.019c0-9.649-7.851-17.5-17.5-17.5H189.287    c-9.649,0-17.5,7.851-17.5,17.5v89.019c0,15.164,12.336,27.5,27.5,27.5h52.458c4.142,0,7.5-3.358,7.5-7.5s-3.357-7.5-7.5-7.5    h-52.458c-6.893,0-12.5-5.607-12.5-12.5v-89.019c0-1.378,1.122-2.5,2.5-2.5h133.439c1.379,0,2.5,1.122,2.5,2.5v89.019    c0,6.893-5.607,12.5-12.5,12.5h-26.458c-4.143,0-7.5,3.358-7.5,7.5S282.126,448.17,286.268,448.17z"/>
		<path id="XMLID_697_" d="M354.091,105.883h-0.104c-4.143,0-7.5,3.358-7.5,7.5s3.357,7.5,7.5,7.5h0.104c4.143,0,7.5-3.358,7.5-7.5    S358.233,105.883,354.091,105.883z"/>
		<path id="XMLID_698_" d="M158.026,105.883h-0.104c-4.142,0-7.5,3.358-7.5,7.5s3.358,7.5,7.5,7.5h0.104c4.142,0,7.5-3.358,7.5-7.5    S162.168,105.883,158.026,105.883z"/>
		<path id="XMLID_699_" d="M285.213,352.893c-6.271-6.271-15.646-8.938-25.712-7.317c-9.323,1.5-18.583,6.452-26.074,13.943    c-16.377,16.377-19.288,39.124-6.626,51.785c5.297,5.297,12.359,7.869,19.983,7.869c10.597,0,22.278-4.97,31.803-14.495    c7.491-7.491,12.442-16.751,13.942-26.074C294.15,368.534,291.483,359.162,285.213,352.893z M244.033,370.125    c5.202-5.202,11.708-8.752,17.85-9.74c0.932-0.15,2.104-0.278,3.396-0.278c0.64,0,1.312,0.041,1.994,0.116l-33.153,33.153    C233.309,386.365,236.891,377.268,244.033,370.125z M277.719,376.221c-0.988,6.142-4.538,12.648-9.74,17.85    c-7.142,7.143-16.24,10.725-23.252,9.913l33.159-33.158C278.116,372.888,277.944,374.827,277.719,376.221z"/>
		<path id="XMLID_703_" d="M173.287,233.537h49.638c7.444,0,13.5-6.056,13.5-13.5v-16.1c0-7.444-6.056-13.5-13.5-13.5h-49.638    c-7.444,0-13.5,6.056-13.5,13.5v16.1C159.787,227.481,165.843,233.537,173.287,233.537z M174.787,205.438h46.638v13.1h-46.638    V205.438z"/>
		<path id="XMLID_706_" d="M167.287,264.66h42.386c4.142,0,7.5-3.358,7.5-7.5s-3.358-7.5-7.5-7.5h-42.386    c-4.142,0-7.5,3.358-7.5,7.5S163.145,264.66,167.287,264.66z"/>
	</g>
</g>















</svg>
