<?xml version="1.0" encoding="iso-8859-1"?>
<!-- Generator: Adobe Illustrator 19.0.0, SVG Export Plug-In . SVG Version: 6.00 Build 0)  -->
<svg xmlns="http://www.w3.org/2000/svg" xmlns:xlink="http://www.w3.org/1999/xlink" version="1.1" id="Layer_1" x="0px" y="0px" viewBox="0 0 512 512" style="enable-background:new 0 0 512 512;" xml:space="preserve" width="512" height="512">
<g id="XMLID_661_">
	<g id="XMLID_662_">
		<g id="XMLID_663_">
			<path id="XMLID_664_" d="M504.5,173.239c4.143,0,7.5-3.358,7.5-7.5v-62.961c0-7.835-6.375-14.21-14.211-14.21h-22.18     c-7.835,0-14.21,6.375-14.21,14.21V255.79h-85.796c-17.643,0-31.996,14.353-31.996,31.996v21.87c0,0.34,0.031,0.672,0.074,1     c-0.044,0.328-0.074,0.66-0.074,1v97.567c0,7.835,6.375,14.21,14.21,14.21h22.181c7.835,0,14.21-6.375,14.21-14.21v-92.067     h67.191v92.067c0,7.835,6.375,14.21,14.21,14.21h22.18c7.836,0,14.211-6.375,14.211-14.21V200.261c0-4.142-3.357-7.5-7.5-7.5     s-7.5,3.358-7.5,7.5v208.171h-20.601V103.567H497v62.171C497,169.881,500.357,173.239,504.5,173.239z M379.208,408.433h-20.601     v-91.277h20.601V408.433z M358.607,302.155v-14.37c0-9.372,7.624-16.996,16.996-16.996h85.796v31.365H358.607z"/>
			<path id="XMLID_668_" d="M136.396,255.79h-30.135c-4.143,0-7.5,3.358-7.5,7.5s3.357,7.5,7.5,7.5h30.135     c9.372,0,16.996,7.624,16.996,16.996v14.37H50.601V270.79h21.138c4.143,0,7.5-3.358,7.5-7.5s-3.357-7.5-7.5-7.5H50.601V102.778     c0-7.835-6.375-14.21-14.21-14.21h-22.18C6.375,88.567,0,94.942,0,102.778v306.444c0,7.835,6.375,14.21,14.211,14.21h22.18     c7.835,0,14.21-6.375,14.21-14.21v-92.067h67.189v92.066c0,7.835,6.375,14.21,14.21,14.21h22.18c7.835,0,14.21-6.375,14.21-14.21     v-97.566c0-0.337-0.03-0.666-0.073-0.99c0.045-0.331,0.076-0.666,0.076-1.01v-21.87     C168.393,270.143,154.039,255.79,136.396,255.79z M35.601,408.433H15V103.567h20.601V408.433z M132.79,408.432v-91.276h20.6     v91.276H132.79z"/>
			<path id="XMLID_672_" d="M330.262,218.385c-4.143,0-7.5,3.358-7.5,7.5s3.357,7.5,7.5,7.5h70.678     c7.836,0,14.211-6.375,14.211-14.21v-20.986c0-7.835-6.375-14.21-14.211-14.21h-26.691l5.677-56.415     c0.213-2.109-0.478-4.209-1.899-5.782s-3.442-2.469-5.563-2.469h-11.929v-10.958l9.731-3.743     c3.866-1.487,5.795-5.826,4.308-9.692c-1.487-3.865-5.823-5.798-9.692-4.308l-14.539,5.592c-2.896,1.114-4.808,3.896-4.808,7     v16.109h-20.087c-2.12,0-4.141,0.897-5.563,2.469s-2.112,3.672-1.899,5.782l5.677,56.415h-90.136l5.638-56.024     c0.213-2.109-0.478-4.209-1.899-5.782s-3.442-2.469-5.563-2.469h-47.016c-2.12,0-4.141,0.897-5.563,2.469     s-2.112,3.672-1.899,5.782l5.638,56.024h-71.802c-7.836,0-14.211,6.375-14.211,14.21v20.986c0,7.835,6.375,14.21,14.211,14.21     h123.334V380.33h-18.888c-16.548,0-30.011,13.463-30.011,30.011c0,7.219,5.873,13.092,13.092,13.092h114.824     c7.219,0,13.092-5.873,13.092-13.092c0-16.548-13.463-30.011-30.011-30.011h-18.888V233.385h18.133c4.143,0,7.5-3.358,7.5-7.5     s-3.357-7.5-7.5-7.5H111.85v-19.407H400.15v19.407H330.262z M311.383,408.433H200.617c0.939-7.379,7.259-13.103,14.89-13.103     h80.986C304.124,395.33,310.443,401.053,311.383,408.433z M262.605,380.33h-13.211V233.385h13.211V380.33z M333.74,134.312h30.43     l-4.997,49.666h-20.436L333.74,134.312z M192.979,134.702h30.43l-4.958,49.275h-20.514L192.979,134.702z"/>
		</g>
	</g>
</g>















</svg>
